<?xml version="1.0" encoding="utf-8" standalone="no"?>
<!DOCTYPE svg PUBLIC "-//W3C//DTD SVG 1.1//EN"
  "http://www.w3.org/Graphics/SVG/1.1/DTD/svg11.dtd">
<!-- Created with matplotlib (https://matplotlib.org/) -->
<svg height="331.971695pt" version="1.1" viewBox="0 0 430.816617 331.971695" width="430.816617pt" xmlns="http://www.w3.org/2000/svg" xmlns:xlink="http://www.w3.org/1999/xlink">
 <metadata>
  <rdf:RDF xmlns:cc="http://creativecommons.org/ns#" xmlns:dc="http://purl.org/dc/elements/1.1/" xmlns:rdf="http://www.w3.org/1999/02/22-rdf-syntax-ns#">
   <cc:Work>
    <dc:type rdf:resource="http://purl.org/dc/dcmitype/StillImage"/>
    <dc:date>2020-10-05T14:33:34.178623</dc:date>
    <dc:format>image/svg+xml</dc:format>
    <dc:creator>
     <cc:Agent>
      <dc:title>Matplotlib v3.3.1, https://matplotlib.org/</dc:title>
     </cc:Agent>
    </dc:creator>
   </cc:Work>
  </rdf:RDF>
 </metadata>
 <defs>
  <style type="text/css">*{stroke-linecap:butt;stroke-linejoin:round;}</style>
 </defs>
 <g id="figure_1">
  <g id="patch_1">
   <path d="M 0 331.971695 
L 430.816617 331.971695 
L 430.816617 0 
L 0 0 
z
" style="fill:none;"/>
  </g>
  <g id="axes_1">
   <g id="patch_2">
    <path d="M 36.616617 288.99 
L 427.216617 288.99 
L 427.216617 3.6 
L 36.616617 3.6 
z
" style="fill:#ffffff;"/>
   </g>
   <g id="PathCollection_1">
    <defs>
     <path d="M 0 1.118034 
C 0.296506 1.118034 0.580908 1.000231 0.790569 0.790569 
C 1.000231 0.580908 1.118034 0.296506 1.118034 0 
C 1.118034 -0.296506 1.000231 -0.580908 0.790569 -0.790569 
C 0.580908 -1.000231 0.296506 -1.118034 0 -1.118034 
C -0.296506 -1.118034 -0.580908 -1.000231 -0.790569 -0.790569 
C -1.000231 -0.580908 -1.118034 -0.296506 -1.118034 0 
C -1.118034 0.296506 -1.000231 0.580908 -0.790569 0.790569 
C -0.580908 1.000231 -0.296506 1.118034 0 1.118034 
z
" id="mc1f3bc9fc6" style="stroke:#ff0000;"/>
    </defs>
    <g clip-path="url(#p146b36752d)">
     <use style="fill:#ff0000;stroke:#ff0000;" x="54.371163" xlink:href="#mc1f3bc9fc6" y="276.017727"/>
     <use style="fill:#ff0000;stroke:#ff0000;" x="57.95794" xlink:href="#mc1f3bc9fc6" y="265.3015"/>
     <use style="fill:#ff0000;stroke:#ff0000;" x="61.544717" xlink:href="#mc1f3bc9fc6" y="255.393678"/>
     <use style="fill:#ff0000;stroke:#ff0000;" x="65.131493" xlink:href="#mc1f3bc9fc6" y="247.021941"/>
     <use style="fill:#ff0000;stroke:#ff0000;" x="68.71827" xlink:href="#mc1f3bc9fc6" y="240.760578"/>
     <use style="fill:#ff0000;stroke:#ff0000;" x="72.305047" xlink:href="#mc1f3bc9fc6" y="236.973142"/>
     <use style="fill:#ff0000;stroke:#ff0000;" x="75.891824" xlink:href="#mc1f3bc9fc6" y="235.776144"/>
     <use style="fill:#ff0000;stroke:#ff0000;" x="79.478601" xlink:href="#mc1f3bc9fc6" y="237.02742"/>
     <use style="fill:#ff0000;stroke:#ff0000;" x="83.065378" xlink:href="#mc1f3bc9fc6" y="240.340328"/>
     <use style="fill:#ff0000;stroke:#ff0000;" x="86.652155" xlink:href="#mc1f3bc9fc6" y="245.122354"/>
     <use style="fill:#ff0000;stroke:#ff0000;" x="90.238931" xlink:href="#mc1f3bc9fc6" y="250.634283"/>
     <use style="fill:#ff0000;stroke:#ff0000;" x="93.825708" xlink:href="#mc1f3bc9fc6" y="256.064012"/>
     <use style="fill:#ff0000;stroke:#ff0000;" x="97.412485" xlink:href="#mc1f3bc9fc6" y="260.607647"/>
     <use style="fill:#ff0000;stroke:#ff0000;" x="100.999262" xlink:href="#mc1f3bc9fc6" y="263.549779"/>
     <use style="fill:#ff0000;stroke:#ff0000;" x="104.586039" xlink:href="#mc1f3bc9fc6" y="264.334918"/>
     <use style="fill:#ff0000;stroke:#ff0000;" x="108.172816" xlink:href="#mc1f3bc9fc6" y="262.622969"/>
     <use style="fill:#ff0000;stroke:#ff0000;" x="111.759593" xlink:href="#mc1f3bc9fc6" y="258.32319"/>
     <use style="fill:#ff0000;stroke:#ff0000;" x="115.346369" xlink:href="#mc1f3bc9fc6" y="251.603255"/>
     <use style="fill:#ff0000;stroke:#ff0000;" x="118.933146" xlink:href="#mc1f3bc9fc6" y="242.872507"/>
     <use style="fill:#ff0000;stroke:#ff0000;" x="122.519923" xlink:href="#mc1f3bc9fc6" y="232.741086"/>
     <use style="fill:#ff0000;stroke:#ff0000;" x="126.1067" xlink:href="#mc1f3bc9fc6" y="221.958999"/>
     <use style="fill:#ff0000;stroke:#ff0000;" x="129.693477" xlink:href="#mc1f3bc9fc6" y="211.34123"/>
     <use style="fill:#ff0000;stroke:#ff0000;" x="133.280254" xlink:href="#mc1f3bc9fc6" y="201.686349"/>
     <use style="fill:#ff0000;stroke:#ff0000;" x="136.867031" xlink:href="#mc1f3bc9fc6" y="193.696781"/>
     <use style="fill:#ff0000;stroke:#ff0000;" x="140.453807" xlink:href="#mc1f3bc9fc6" y="187.90865"/>
     <use style="fill:#ff0000;stroke:#ff0000;" x="144.040584" xlink:href="#mc1f3bc9fc6" y="184.638254"/>
     <use style="fill:#ff0000;stroke:#ff0000;" x="147.627361" xlink:href="#mc1f3bc9fc6" y="183.950474"/>
     <use style="fill:#ff0000;stroke:#ff0000;" x="151.214138" xlink:href="#mc1f3bc9fc6" y="185.652297"/>
     <use style="fill:#ff0000;stroke:#ff0000;" x="154.800915" xlink:href="#mc1f3bc9fc6" y="189.312088"/>
     <use style="fill:#ff0000;stroke:#ff0000;" x="158.387692" xlink:href="#mc1f3bc9fc6" y="194.302697"/>
     <use style="fill:#ff0000;stroke:#ff0000;" x="161.974469" xlink:href="#mc1f3bc9fc6" y="199.864078"/>
     <use style="fill:#ff0000;stroke:#ff0000;" x="165.561245" xlink:href="#mc1f3bc9fc6" y="205.179192"/>
     <use style="fill:#ff0000;stroke:#ff0000;" x="169.148022" xlink:href="#mc1f3bc9fc6" y="209.455589"/>
     <use style="fill:#ff0000;stroke:#ff0000;" x="172.734799" xlink:href="#mc1f3bc9fc6" y="212.004545"/>
     <use style="fill:#ff0000;stroke:#ff0000;" x="176.321576" xlink:href="#mc1f3bc9fc6" y="212.309832"/>
     <use style="fill:#ff0000;stroke:#ff0000;" x="179.908353" xlink:href="#mc1f3bc9fc6" y="210.079274"/>
     <use style="fill:#ff0000;stroke:#ff0000;" x="183.49513" xlink:href="#mc1f3bc9fc6" y="205.273914"/>
     <use style="fill:#ff0000;stroke:#ff0000;" x="187.081907" xlink:href="#mc1f3bc9fc6" y="198.111912"/>
     <use style="fill:#ff0000;stroke:#ff0000;" x="190.668683" xlink:href="#mc1f3bc9fc6" y="189.046757"/>
     <use style="fill:#ff0000;stroke:#ff0000;" x="194.25546" xlink:href="#mc1f3bc9fc6" y="178.72198"/>
     <use style="fill:#ff0000;stroke:#ff0000;" x="197.842237" xlink:href="#mc1f3bc9fc6" y="167.906897"/>
     <use style="fill:#ff0000;stroke:#ff0000;" x="201.429014" xlink:href="#mc1f3bc9fc6" y="157.419786"/>
     <use style="fill:#ff0000;stroke:#ff0000;" x="205.015791" xlink:href="#mc1f3bc9fc6" y="148.046172"/>
     <use style="fill:#ff0000;stroke:#ff0000;" x="208.602568" xlink:href="#mc1f3bc9fc6" y="140.460391"/>
     <use style="fill:#ff0000;stroke:#ff0000;" x="212.189345" xlink:href="#mc1f3bc9fc6" y="135.158247"/>
     <use style="fill:#ff0000;stroke:#ff0000;" x="215.776122" xlink:href="#mc1f3bc9fc6" y="132.407508"/>
     <use style="fill:#ff0000;stroke:#ff0000;" x="219.362898" xlink:href="#mc1f3bc9fc6" y="132.221163"/>
     <use style="fill:#ff0000;stroke:#ff0000;" x="222.949675" xlink:href="#mc1f3bc9fc6" y="134.356127"/>
     <use style="fill:#ff0000;stroke:#ff0000;" x="226.536452" xlink:href="#mc1f3bc9fc6" y="138.337513"/>
     <use style="fill:#ff0000;stroke:#ff0000;" x="230.123229" xlink:href="#mc1f3bc9fc6" y="143.506056"/>
     <use style="fill:#ff0000;stroke:#ff0000;" x="233.710006" xlink:href="#mc1f3bc9fc6" y="149.083944"/>
     <use style="fill:#ff0000;stroke:#ff0000;" x="237.296783" xlink:href="#mc1f3bc9fc6" y="154.252487"/>
     <use style="fill:#ff0000;stroke:#ff0000;" x="240.88356" xlink:href="#mc1f3bc9fc6" y="158.233873"/>
     <use style="fill:#ff0000;stroke:#ff0000;" x="244.470336" xlink:href="#mc1f3bc9fc6" y="160.368837"/>
     <use style="fill:#ff0000;stroke:#ff0000;" x="248.057113" xlink:href="#mc1f3bc9fc6" y="160.182492"/>
     <use style="fill:#ff0000;stroke:#ff0000;" x="251.64389" xlink:href="#mc1f3bc9fc6" y="157.431753"/>
     <use style="fill:#ff0000;stroke:#ff0000;" x="255.230667" xlink:href="#mc1f3bc9fc6" y="152.129609"/>
     <use style="fill:#ff0000;stroke:#ff0000;" x="258.817444" xlink:href="#mc1f3bc9fc6" y="144.543828"/>
     <use style="fill:#ff0000;stroke:#ff0000;" x="262.404221" xlink:href="#mc1f3bc9fc6" y="135.170214"/>
     <use style="fill:#ff0000;stroke:#ff0000;" x="265.990998" xlink:href="#mc1f3bc9fc6" y="124.683103"/>
     <use style="fill:#ff0000;stroke:#ff0000;" x="269.577774" xlink:href="#mc1f3bc9fc6" y="113.86802"/>
     <use style="fill:#ff0000;stroke:#ff0000;" x="273.164551" xlink:href="#mc1f3bc9fc6" y="103.543243"/>
     <use style="fill:#ff0000;stroke:#ff0000;" x="276.751328" xlink:href="#mc1f3bc9fc6" y="94.478088"/>
     <use style="fill:#ff0000;stroke:#ff0000;" x="280.338105" xlink:href="#mc1f3bc9fc6" y="87.316086"/>
     <use style="fill:#ff0000;stroke:#ff0000;" x="283.924882" xlink:href="#mc1f3bc9fc6" y="82.510726"/>
     <use style="fill:#ff0000;stroke:#ff0000;" x="287.511659" xlink:href="#mc1f3bc9fc6" y="80.280168"/>
     <use style="fill:#ff0000;stroke:#ff0000;" x="291.098436" xlink:href="#mc1f3bc9fc6" y="80.585455"/>
     <use style="fill:#ff0000;stroke:#ff0000;" x="294.685212" xlink:href="#mc1f3bc9fc6" y="83.134411"/>
     <use style="fill:#ff0000;stroke:#ff0000;" x="298.271989" xlink:href="#mc1f3bc9fc6" y="87.410808"/>
     <use style="fill:#ff0000;stroke:#ff0000;" x="301.858766" xlink:href="#mc1f3bc9fc6" y="92.725922"/>
     <use style="fill:#ff0000;stroke:#ff0000;" x="305.445543" xlink:href="#mc1f3bc9fc6" y="98.287303"/>
     <use style="fill:#ff0000;stroke:#ff0000;" x="309.03232" xlink:href="#mc1f3bc9fc6" y="103.277912"/>
     <use style="fill:#ff0000;stroke:#ff0000;" x="312.619097" xlink:href="#mc1f3bc9fc6" y="106.937703"/>
     <use style="fill:#ff0000;stroke:#ff0000;" x="316.205874" xlink:href="#mc1f3bc9fc6" y="108.639526"/>
     <use style="fill:#ff0000;stroke:#ff0000;" x="319.79265" xlink:href="#mc1f3bc9fc6" y="107.951746"/>
     <use style="fill:#ff0000;stroke:#ff0000;" x="323.379427" xlink:href="#mc1f3bc9fc6" y="104.68135"/>
     <use style="fill:#ff0000;stroke:#ff0000;" x="326.966204" xlink:href="#mc1f3bc9fc6" y="98.893219"/>
     <use style="fill:#ff0000;stroke:#ff0000;" x="330.552981" xlink:href="#mc1f3bc9fc6" y="90.903651"/>
     <use style="fill:#ff0000;stroke:#ff0000;" x="334.139758" xlink:href="#mc1f3bc9fc6" y="81.24877"/>
     <use style="fill:#ff0000;stroke:#ff0000;" x="337.726535" xlink:href="#mc1f3bc9fc6" y="70.631001"/>
     <use style="fill:#ff0000;stroke:#ff0000;" x="341.313312" xlink:href="#mc1f3bc9fc6" y="59.848914"/>
     <use style="fill:#ff0000;stroke:#ff0000;" x="344.900088" xlink:href="#mc1f3bc9fc6" y="49.717493"/>
     <use style="fill:#ff0000;stroke:#ff0000;" x="348.486865" xlink:href="#mc1f3bc9fc6" y="40.986745"/>
     <use style="fill:#ff0000;stroke:#ff0000;" x="352.073642" xlink:href="#mc1f3bc9fc6" y="34.26681"/>
     <use style="fill:#ff0000;stroke:#ff0000;" x="355.660419" xlink:href="#mc1f3bc9fc6" y="29.967031"/>
     <use style="fill:#ff0000;stroke:#ff0000;" x="359.247196" xlink:href="#mc1f3bc9fc6" y="28.255082"/>
     <use style="fill:#ff0000;stroke:#ff0000;" x="362.833973" xlink:href="#mc1f3bc9fc6" y="29.040221"/>
     <use style="fill:#ff0000;stroke:#ff0000;" x="366.42075" xlink:href="#mc1f3bc9fc6" y="31.982353"/>
     <use style="fill:#ff0000;stroke:#ff0000;" x="370.007526" xlink:href="#mc1f3bc9fc6" y="36.525988"/>
     <use style="fill:#ff0000;stroke:#ff0000;" x="373.594303" xlink:href="#mc1f3bc9fc6" y="41.955717"/>
     <use style="fill:#ff0000;stroke:#ff0000;" x="377.18108" xlink:href="#mc1f3bc9fc6" y="47.467646"/>
     <use style="fill:#ff0000;stroke:#ff0000;" x="380.767857" xlink:href="#mc1f3bc9fc6" y="52.249672"/>
     <use style="fill:#ff0000;stroke:#ff0000;" x="384.354634" xlink:href="#mc1f3bc9fc6" y="55.56258"/>
     <use style="fill:#ff0000;stroke:#ff0000;" x="387.941411" xlink:href="#mc1f3bc9fc6" y="56.813856"/>
     <use style="fill:#ff0000;stroke:#ff0000;" x="391.528188" xlink:href="#mc1f3bc9fc6" y="55.616858"/>
     <use style="fill:#ff0000;stroke:#ff0000;" x="395.114964" xlink:href="#mc1f3bc9fc6" y="51.829422"/>
     <use style="fill:#ff0000;stroke:#ff0000;" x="398.701741" xlink:href="#mc1f3bc9fc6" y="45.568059"/>
     <use style="fill:#ff0000;stroke:#ff0000;" x="402.288518" xlink:href="#mc1f3bc9fc6" y="37.196322"/>
     <use style="fill:#ff0000;stroke:#ff0000;" x="405.875295" xlink:href="#mc1f3bc9fc6" y="27.2885"/>
     <use style="fill:#ff0000;stroke:#ff0000;" x="409.462072" xlink:href="#mc1f3bc9fc6" y="16.572273"/>
    </g>
   </g>
   <g id="matplotlib.axis_1">
    <g id="xtick_1">
     <g id="line2d_1">
      <defs>
       <path d="M 0 0 
L 0 -3 
" id="m182b8b1456" style="stroke:#000000;stroke-width:0.5;"/>
      </defs>
      <g>
       <use style="stroke:#000000;stroke-width:0.5;" x="54.371163" xlink:href="#m182b8b1456" y="288.99"/>
      </g>
     </g>
     <g id="line2d_2">
      <defs>
       <path d="M 0 0 
L 0 3 
" id="mabd8f6472d" style="stroke:#000000;stroke-width:0.5;"/>
      </defs>
      <g>
       <use style="stroke:#000000;stroke-width:0.5;" x="54.371163" xlink:href="#mabd8f6472d" y="3.6"/>
      </g>
     </g>
     <g id="text_1">
      <!-- $\mathdefault{0.0}$ -->
      <g transform="translate(44.399402 303.559588)scale(0.16 -0.16)">
       <defs>
        <path d="M 42 31.84375 
C 42 37.96875 41.90625 48.421875 37.703125 56.453125 
C 34 63.484375 28.09375 66 22.90625 66 
C 18.09375 66 12 63.78125 8.203125 56.5625 
C 4.203125 49.015625 3.796875 39.671875 3.796875 31.84375 
C 3.796875 26.109375 3.90625 17.375 7 9.734375 
C 11.296875 -0.609375 19 -2 22.90625 -2 
C 27.5 -2 34.5 -0.109375 38.59375 9.4375 
C 41.59375 16.375 42 24.5 42 31.84375 
z
M 22.90625 -0.40625 
C 16.5 -0.40625 12.703125 5.125 11.296875 12.75 
C 10.203125 18.6875 10.203125 27.328125 10.203125 32.953125 
C 10.203125 40.6875 10.203125 47.109375 11.5 53.234375 
C 13.40625 61.78125 19 64.390625 22.90625 64.390625 
C 27 64.390625 32.296875 61.671875 34.203125 53.4375 
C 35.5 47.71875 35.59375 40.984375 35.59375 32.953125 
C 35.59375 26.421875 35.59375 18.375 34.40625 12.453125 
C 32.296875 1.5 26.40625 -0.40625 22.90625 -0.40625 
z
" id="CMR17-48"/>
        <path d="M 18.40625 4.796875 
C 18.40625 7.6875 16 9.6875 13.59375 9.6875 
C 10.703125 9.6875 8.703125 7.296875 8.703125 4.890625 
C 8.703125 2 11.09375 0 13.5 0 
C 16.40625 0 18.40625 2.390625 18.40625 4.796875 
z
" id="CMMI12-58"/>
       </defs>
       <use transform="scale(0.996264)" xlink:href="#CMR17-48"/>
       <use transform="translate(45.690477 0)scale(0.996264)" xlink:href="#CMMI12-58"/>
       <use transform="translate(72.787654 0)scale(0.996264)" xlink:href="#CMR17-48"/>
      </g>
     </g>
    </g>
    <g id="xtick_2">
     <g id="line2d_3">
      <g>
       <use style="stroke:#000000;stroke-width:0.5;" x="125.389345" xlink:href="#m182b8b1456" y="288.99"/>
      </g>
     </g>
     <g id="line2d_4">
      <g>
       <use style="stroke:#000000;stroke-width:0.5;" x="125.389345" xlink:href="#mabd8f6472d" y="3.6"/>
      </g>
     </g>
     <g id="text_2">
      <!-- $\mathdefault{0.2}$ -->
      <g transform="translate(115.417583 303.559588)scale(0.16 -0.16)">
       <defs>
        <path d="M 41.703125 15.46875 
L 39.90625 15.46875 
C 38.90625 8.390625 38.09375 7.1875 37.703125 6.59375 
C 37.203125 5.796875 30 5.796875 28.59375 5.796875 
L 9.40625 5.796875 
C 13 9.6875 20 16.765625 28.5 24.9375 
C 34.59375 30.71875 41.703125 37.5 41.703125 47.390625 
C 41.703125 59.1875 32.296875 66 21.796875 66 
C 10.796875 66 4.09375 56.296875 4.09375 47.296875 
C 4.09375 43.390625 7 42.890625 8.203125 42.890625 
C 9.203125 42.890625 12.203125 43.484375 12.203125 46.984375 
C 12.203125 50.09375 9.59375 51 8.203125 51 
C 7.59375 51 7 50.890625 6.59375 50.6875 
C 8.5 59.1875 14.296875 63.390625 20.40625 63.390625 
C 29.09375 63.390625 34.796875 56.5 34.796875 47.390625 
C 34.796875 38.703125 29.703125 31.21875 24 24.734375 
L 4.09375 2.296875 
L 4.09375 0 
L 39.296875 0 
z
" id="CMR17-50"/>
       </defs>
       <use transform="scale(0.996264)" xlink:href="#CMR17-48"/>
       <use transform="translate(45.690477 0)scale(0.996264)" xlink:href="#CMMI12-58"/>
       <use transform="translate(72.787654 0)scale(0.996264)" xlink:href="#CMR17-50"/>
      </g>
     </g>
    </g>
    <g id="xtick_3">
     <g id="line2d_5">
      <g>
       <use style="stroke:#000000;stroke-width:0.5;" x="196.407526" xlink:href="#m182b8b1456" y="288.99"/>
      </g>
     </g>
     <g id="line2d_6">
      <g>
       <use style="stroke:#000000;stroke-width:0.5;" x="196.407526" xlink:href="#mabd8f6472d" y="3.6"/>
      </g>
     </g>
     <g id="text_3">
      <!-- $\mathdefault{0.4}$ -->
      <g transform="translate(186.435765 303.559588)scale(0.16 -0.16)">
       <defs>
        <path d="M 33.59375 64.796875 
C 33.59375 66.890625 33.5 67 31.703125 67 
L 2 19.59375 
L 2 17 
L 27.796875 17 
L 27.796875 7.1875 
C 27.796875 3.59375 27.59375 2.59375 20.59375 2.59375 
L 18.703125 2.59375 
L 18.703125 0 
C 21.90625 0.1875 27.296875 0.1875 30.703125 0.1875 
C 34.09375 0.1875 39.5 0.1875 42.703125 0 
L 42.703125 2.59375 
L 40.796875 2.59375 
C 33.796875 2.59375 33.59375 3.59375 33.59375 7.1875 
L 33.59375 17 
L 43.796875 17 
L 43.796875 19.59375 
L 33.59375 19.59375 
z
M 28.09375 58.171875 
L 28.09375 19.59375 
L 4 19.59375 
z
" id="CMR17-52"/>
       </defs>
       <use transform="scale(0.996264)" xlink:href="#CMR17-48"/>
       <use transform="translate(45.690477 0)scale(0.996264)" xlink:href="#CMMI12-58"/>
       <use transform="translate(72.787654 0)scale(0.996264)" xlink:href="#CMR17-52"/>
      </g>
     </g>
    </g>
    <g id="xtick_4">
     <g id="line2d_7">
      <g>
       <use style="stroke:#000000;stroke-width:0.5;" x="267.425708" xlink:href="#m182b8b1456" y="288.99"/>
      </g>
     </g>
     <g id="line2d_8">
      <g>
       <use style="stroke:#000000;stroke-width:0.5;" x="267.425708" xlink:href="#mabd8f6472d" y="3.6"/>
      </g>
     </g>
     <g id="text_4">
      <!-- $\mathdefault{0.6}$ -->
      <g transform="translate(257.453947 303.559588)scale(0.16 -0.16)">
       <defs>
        <path d="M 10.59375 34.34375 
C 10.59375 58 21.796875 63.6875 28.296875 63.6875 
C 30.40625 63.6875 35.5 63.265625 37.5 59.09375 
C 35.90625 59.09375 32.90625 59.09375 32.90625 55.59375 
C 32.90625 52.890625 35.09375 52 36.5 52 
C 37.40625 52 40.09375 52.390625 40.09375 55.796875 
C 40.09375 62.296875 35.09375 66 28.203125 66 
C 16.296875 66 3.796875 53.296875 3.796875 31.421875 
C 3.796875 4.015625 15.09375 -2 23.09375 -2 
C 32.796875 -2 42 6.734375 42 20.234375 
C 42 32.828125 33.90625 42 23.703125 42 
C 17.59375 42 13.09375 37.96875 10.59375 30.921875 
z
M 23.09375 0.390625 
C 10.796875 0.390625 10.796875 18.9375 10.796875 22.65625 
C 10.796875 29.90625 14.203125 40.390625 23.5 40.390625 
C 25.203125 40.390625 30.09375 40.390625 33.40625 33.4375 
C 35.203125 29.515625 35.203125 25.375 35.203125 20.34375 
C 35.203125 14.90625 35.203125 10.875 33.09375 6.84375 
C 30.90625 2.703125 27.703125 0.390625 23.09375 0.390625 
z
" id="CMR17-54"/>
       </defs>
       <use transform="scale(0.996264)" xlink:href="#CMR17-48"/>
       <use transform="translate(45.690477 0)scale(0.996264)" xlink:href="#CMMI12-58"/>
       <use transform="translate(72.787654 0)scale(0.996264)" xlink:href="#CMR17-54"/>
      </g>
     </g>
    </g>
    <g id="xtick_5">
     <g id="line2d_9">
      <g>
       <use style="stroke:#000000;stroke-width:0.5;" x="338.44389" xlink:href="#m182b8b1456" y="288.99"/>
      </g>
     </g>
     <g id="line2d_10">
      <g>
       <use style="stroke:#000000;stroke-width:0.5;" x="338.44389" xlink:href="#mabd8f6472d" y="3.6"/>
      </g>
     </g>
     <g id="text_5">
      <!-- $\mathdefault{0.8}$ -->
      <g transform="translate(328.472129 303.559588)scale(0.16 -0.16)">
       <defs>
        <path d="M 27.203125 35.765625 
C 33.5 38.96875 39.90625 43.796875 39.90625 51.53125 
C 39.90625 60.6875 31.09375 66 23 66 
C 13.90625 66 5.90625 59.375 5.90625 50.234375 
C 5.90625 47.71875 6.5 43.390625 10.40625 39.578125 
C 11.40625 38.578125 15.59375 35.5625 18.296875 33.65625 
C 13.796875 31.34375 3.296875 25.8125 3.296875 14.765625 
C 3.296875 4.40625 13.09375 -2 22.796875 -2 
C 33.5 -2 42.5 5.71875 42.5 15.96875 
C 42.5 25.109375 36.40625 29.328125 32.40625 32.046875 
z
M 14.09375 44.609375 
C 13.296875 45.109375 9.296875 48.21875 9.296875 52.9375 
C 9.296875 59.078125 15.59375 63.6875 22.796875 63.6875 
C 30.703125 63.6875 36.5 58.0625 36.5 51.53125 
C 36.5 42.1875 26.09375 36.859375 25.59375 36.859375 
C 25.5 36.859375 25.40625 36.859375 24.59375 37.46875 
z
M 32.5 24 
C 34 22.90625 38.796875 19.578125 38.796875 13.453125 
C 38.796875 6.015625 31.40625 0.390625 23 0.390625 
C 13.90625 0.390625 7 6.921875 7 14.859375 
C 7 22.796875 13.09375 29.4375 20 32.546875 
z
" id="CMR17-56"/>
       </defs>
       <use transform="scale(0.996264)" xlink:href="#CMR17-48"/>
       <use transform="translate(45.690477 0)scale(0.996264)" xlink:href="#CMMI12-58"/>
       <use transform="translate(72.787654 0)scale(0.996264)" xlink:href="#CMR17-56"/>
      </g>
     </g>
    </g>
    <g id="xtick_6">
     <g id="line2d_11">
      <g>
       <use style="stroke:#000000;stroke-width:0.5;" x="409.462072" xlink:href="#m182b8b1456" y="288.99"/>
      </g>
     </g>
     <g id="line2d_12">
      <g>
       <use style="stroke:#000000;stroke-width:0.5;" x="409.462072" xlink:href="#mabd8f6472d" y="3.6"/>
      </g>
     </g>
     <g id="text_6">
      <!-- $\mathdefault{1.0}$ -->
      <g transform="translate(399.490311 303.559588)scale(0.16 -0.16)">
       <defs>
        <path d="M 26.59375 63.796875 
C 26.59375 65.890625 26.5 66 25.09375 66 
C 21.203125 61.359375 15.296875 59.890625 9.703125 59.6875 
C 9.40625 59.6875 8.90625 59.6875 8.796875 59.5 
C 8.703125 59.296875 8.703125 59.09375 8.703125 57 
C 11.796875 57 17 57.59375 21 59.984375 
L 21 7.296875 
C 21 3.796875 20.796875 2.59375 12.203125 2.59375 
L 9.203125 2.59375 
L 9.203125 0 
C 14 0.09375 19 0.1875 23.796875 0.1875 
C 28.59375 0.1875 33.59375 0.09375 38.40625 0 
L 38.40625 2.59375 
L 35.40625 2.59375 
C 26.796875 2.59375 26.59375 3.6875 26.59375 7.296875 
z
" id="CMR17-49"/>
       </defs>
       <use transform="scale(0.996264)" xlink:href="#CMR17-49"/>
       <use transform="translate(45.690477 0)scale(0.996264)" xlink:href="#CMMI12-58"/>
       <use transform="translate(72.787654 0)scale(0.996264)" xlink:href="#CMR17-48"/>
      </g>
     </g>
    </g>
    <g id="xtick_7">
     <g id="line2d_13">
      <defs>
       <path d="M 0 0 
L 0 -1.5 
" id="mde486bc880" style="stroke:#000000;stroke-width:0.5;"/>
      </defs>
      <g>
       <use style="stroke:#000000;stroke-width:0.5;" x="72.125708" xlink:href="#mde486bc880" y="288.99"/>
      </g>
     </g>
     <g id="line2d_14">
      <defs>
       <path d="M 0 0 
L 0 1.5 
" id="m9a38244f76" style="stroke:#000000;stroke-width:0.5;"/>
      </defs>
      <g>
       <use style="stroke:#000000;stroke-width:0.5;" x="72.125708" xlink:href="#m9a38244f76" y="3.6"/>
      </g>
     </g>
    </g>
    <g id="xtick_8">
     <g id="line2d_15">
      <g>
       <use style="stroke:#000000;stroke-width:0.5;" x="89.880254" xlink:href="#mde486bc880" y="288.99"/>
      </g>
     </g>
     <g id="line2d_16">
      <g>
       <use style="stroke:#000000;stroke-width:0.5;" x="89.880254" xlink:href="#m9a38244f76" y="3.6"/>
      </g>
     </g>
    </g>
    <g id="xtick_9">
     <g id="line2d_17">
      <g>
       <use style="stroke:#000000;stroke-width:0.5;" x="107.634799" xlink:href="#mde486bc880" y="288.99"/>
      </g>
     </g>
     <g id="line2d_18">
      <g>
       <use style="stroke:#000000;stroke-width:0.5;" x="107.634799" xlink:href="#m9a38244f76" y="3.6"/>
      </g>
     </g>
    </g>
    <g id="xtick_10">
     <g id="line2d_19">
      <g>
       <use style="stroke:#000000;stroke-width:0.5;" x="143.14389" xlink:href="#mde486bc880" y="288.99"/>
      </g>
     </g>
     <g id="line2d_20">
      <g>
       <use style="stroke:#000000;stroke-width:0.5;" x="143.14389" xlink:href="#m9a38244f76" y="3.6"/>
      </g>
     </g>
    </g>
    <g id="xtick_11">
     <g id="line2d_21">
      <g>
       <use style="stroke:#000000;stroke-width:0.5;" x="160.898436" xlink:href="#mde486bc880" y="288.99"/>
      </g>
     </g>
     <g id="line2d_22">
      <g>
       <use style="stroke:#000000;stroke-width:0.5;" x="160.898436" xlink:href="#m9a38244f76" y="3.6"/>
      </g>
     </g>
    </g>
    <g id="xtick_12">
     <g id="line2d_23">
      <g>
       <use style="stroke:#000000;stroke-width:0.5;" x="178.652981" xlink:href="#mde486bc880" y="288.99"/>
      </g>
     </g>
     <g id="line2d_24">
      <g>
       <use style="stroke:#000000;stroke-width:0.5;" x="178.652981" xlink:href="#m9a38244f76" y="3.6"/>
      </g>
     </g>
    </g>
    <g id="xtick_13">
     <g id="line2d_25">
      <g>
       <use style="stroke:#000000;stroke-width:0.5;" x="214.162072" xlink:href="#mde486bc880" y="288.99"/>
      </g>
     </g>
     <g id="line2d_26">
      <g>
       <use style="stroke:#000000;stroke-width:0.5;" x="214.162072" xlink:href="#m9a38244f76" y="3.6"/>
      </g>
     </g>
    </g>
    <g id="xtick_14">
     <g id="line2d_27">
      <g>
       <use style="stroke:#000000;stroke-width:0.5;" x="231.916617" xlink:href="#mde486bc880" y="288.99"/>
      </g>
     </g>
     <g id="line2d_28">
      <g>
       <use style="stroke:#000000;stroke-width:0.5;" x="231.916617" xlink:href="#m9a38244f76" y="3.6"/>
      </g>
     </g>
    </g>
    <g id="xtick_15">
     <g id="line2d_29">
      <g>
       <use style="stroke:#000000;stroke-width:0.5;" x="249.671163" xlink:href="#mde486bc880" y="288.99"/>
      </g>
     </g>
     <g id="line2d_30">
      <g>
       <use style="stroke:#000000;stroke-width:0.5;" x="249.671163" xlink:href="#m9a38244f76" y="3.6"/>
      </g>
     </g>
    </g>
    <g id="xtick_16">
     <g id="line2d_31">
      <g>
       <use style="stroke:#000000;stroke-width:0.5;" x="285.180254" xlink:href="#mde486bc880" y="288.99"/>
      </g>
     </g>
     <g id="line2d_32">
      <g>
       <use style="stroke:#000000;stroke-width:0.5;" x="285.180254" xlink:href="#m9a38244f76" y="3.6"/>
      </g>
     </g>
    </g>
    <g id="xtick_17">
     <g id="line2d_33">
      <g>
       <use style="stroke:#000000;stroke-width:0.5;" x="302.934799" xlink:href="#mde486bc880" y="288.99"/>
      </g>
     </g>
     <g id="line2d_34">
      <g>
       <use style="stroke:#000000;stroke-width:0.5;" x="302.934799" xlink:href="#m9a38244f76" y="3.6"/>
      </g>
     </g>
    </g>
    <g id="xtick_18">
     <g id="line2d_35">
      <g>
       <use style="stroke:#000000;stroke-width:0.5;" x="320.689345" xlink:href="#mde486bc880" y="288.99"/>
      </g>
     </g>
     <g id="line2d_36">
      <g>
       <use style="stroke:#000000;stroke-width:0.5;" x="320.689345" xlink:href="#m9a38244f76" y="3.6"/>
      </g>
     </g>
    </g>
    <g id="xtick_19">
     <g id="line2d_37">
      <g>
       <use style="stroke:#000000;stroke-width:0.5;" x="356.198436" xlink:href="#mde486bc880" y="288.99"/>
      </g>
     </g>
     <g id="line2d_38">
      <g>
       <use style="stroke:#000000;stroke-width:0.5;" x="356.198436" xlink:href="#m9a38244f76" y="3.6"/>
      </g>
     </g>
    </g>
    <g id="xtick_20">
     <g id="line2d_39">
      <g>
       <use style="stroke:#000000;stroke-width:0.5;" x="373.952981" xlink:href="#mde486bc880" y="288.99"/>
      </g>
     </g>
     <g id="line2d_40">
      <g>
       <use style="stroke:#000000;stroke-width:0.5;" x="373.952981" xlink:href="#m9a38244f76" y="3.6"/>
      </g>
     </g>
    </g>
    <g id="xtick_21">
     <g id="line2d_41">
      <g>
       <use style="stroke:#000000;stroke-width:0.5;" x="391.707526" xlink:href="#mde486bc880" y="288.99"/>
      </g>
     </g>
     <g id="line2d_42">
      <g>
       <use style="stroke:#000000;stroke-width:0.5;" x="391.707526" xlink:href="#m9a38244f76" y="3.6"/>
      </g>
     </g>
    </g>
    <g id="text_7">
     <!-- x -->
     <g transform="translate(227.08733 324.496061)scale(0.2 -0.2)">
      <defs>
       <path d="M 26 23.296875 
C 29 27.1875 32.40625 31.59375 35.203125 34.890625 
C 38.5 38.6875 42.296875 40.296875 46.703125 40.390625 
L 46.703125 43 
C 45 42.890625 41.5 42.796875 39.703125 42.796875 
C 37 42.796875 33.90625 42.796875 31.59375 43 
L 31.59375 40.390625 
C 33 40.1875 33.796875 39.1875 33.796875 37.796875 
C 33.796875 36 32.796875 34.890625 32.296875 34.1875 
L 24.90625 24.796875 
L 16.09375 36.296875 
C 15.203125 37.390625 15.203125 37.59375 15.203125 38.09375 
C 15.203125 39.296875 16.203125 40.296875 17.90625 40.390625 
L 17.90625 43 
C 15.5 42.796875 11.203125 42.796875 8.703125 42.796875 
C 6 42.796875 2.796875 42.796875 0.59375 43 
L 0.59375 40.390625 
C 6 40.390625 7.203125 40 9.59375 37 
L 21.09375 22.09375 
C 21.296875 21.890625 21.796875 21.296875 21.796875 21 
C 21.796875 20.59375 13.09375 9.890625 12 8.5 
C 7.5 3.09375 2.796875 2.6875 0.09375 2.59375 
L 0.09375 0 
C 1.796875 0.09375 5.296875 0.1875 7.09375 0.1875 
C 9.09375 0.1875 13.5 0.1875 15.296875 0 
L 15.296875 2.59375 
C 14.703125 2.6875 13.09375 2.890625 13.09375 5.1875 
C 13.09375 7 13.90625 8.09375 14.796875 9.296875 
L 23.09375 19.5 
L 31.796875 8.1875 
C 32.59375 7.09375 33.796875 5.59375 33.796875 4.890625 
C 33.796875 3.5 32.59375 2.6875 31 2.59375 
L 31 0 
C 33.40625 0.1875 37.703125 0.1875 40.203125 0.1875 
C 42.90625 0.1875 46.09375 0.1875 48.296875 0 
L 48.296875 2.59375 
C 43.296875 2.59375 41.796875 2.796875 39.40625 5.890625 
z
" id="CMR17-120"/>
      </defs>
      <use transform="scale(0.996264)" xlink:href="#CMR17-120"/>
     </g>
    </g>
   </g>
   <g id="matplotlib.axis_2">
    <g id="ytick_1">
     <g id="line2d_43">
      <defs>
       <path d="M 0 0 
L 3 0 
" id="me8467c4031" style="stroke:#000000;stroke-width:0.5;"/>
      </defs>
      <g>
       <use style="stroke:#000000;stroke-width:0.5;" x="36.616617" xlink:href="#me8467c4031" y="276.017727"/>
      </g>
     </g>
     <g id="line2d_44">
      <defs>
       <path d="M 0 0 
L -3 0 
" id="m2050e1b662" style="stroke:#000000;stroke-width:0.5;"/>
      </defs>
      <g>
       <use style="stroke:#000000;stroke-width:0.5;" x="427.216617" xlink:href="#m2050e1b662" y="276.017727"/>
      </g>
     </g>
     <g id="text_8">
      <!-- $\mathdefault{4}$ -->
      <g transform="translate(25.31263 281.552521)scale(0.16 -0.16)">
       <use transform="scale(0.996264)" xlink:href="#CMR17-52"/>
      </g>
     </g>
    </g>
    <g id="ytick_2">
     <g id="line2d_45">
      <g>
       <use style="stroke:#000000;stroke-width:0.5;" x="36.616617" xlink:href="#me8467c4031" y="224.128636"/>
      </g>
     </g>
     <g id="line2d_46">
      <g>
       <use style="stroke:#000000;stroke-width:0.5;" x="427.216617" xlink:href="#m2050e1b662" y="224.128636"/>
      </g>
     </g>
     <g id="text_9">
      <!-- $\mathdefault{5}$ -->
      <g transform="translate(25.31263 229.663431)scale(0.16 -0.16)">
       <defs>
        <path d="M 11.40625 58.59375 
C 12.40625 58.1875 16.5 56.890625 20.703125 56.890625 
C 30 56.890625 35.09375 61.890625 38 64.6875 
C 38 65.484375 38 66 37.40625 66 
C 37.296875 66 37.09375 66 36.296875 65.59375 
C 32.796875 64.09375 28.703125 63 23.703125 63 
C 20.703125 63 16.203125 63.359375 11.296875 65.484375 
C 10.203125 66 10 66 9.90625 66 
C 9.40625 66 9.296875 65.890625 9.296875 63.90625 
L 9.296875 34.859375 
C 9.296875 33.015625 9.296875 32.5 10.296875 32.5 
C 10.796875 32.5 11 32.703125 11.5 33.421875 
C 14.703125 38.046875 19.09375 40 24.09375 40 
C 27.59375 40 35.09375 37.734375 35.09375 20.203125 
C 35.09375 16.984375 35.09375 11.1875 32.09375 6.59375 
C 29.59375 2.484375 25.703125 0.390625 21.40625 0.390625 
C 14.796875 0.390625 8.09375 4.984375 6.296875 12.6875 
C 6.703125 12.59375 7.5 12.390625 7.90625 12.390625 
C 9.203125 12.390625 11.703125 13.09375 11.703125 16.1875 
C 11.703125 18.890625 9.796875 20 7.90625 20 
C 5.59375 20 4.09375 18.59375 4.09375 15.796875 
C 4.09375 7.09375 11 -2 21.59375 -2 
C 31.90625 -2 41.703125 6.890625 41.703125 19.796875 
C 41.703125 32.09375 33.90625 41.59375 24.203125 41.59375 
C 19.09375 41.59375 14.796875 39.6875 11.40625 36 
z
" id="CMR17-53"/>
       </defs>
       <use transform="scale(0.996264)" xlink:href="#CMR17-53"/>
      </g>
     </g>
    </g>
    <g id="ytick_3">
     <g id="line2d_47">
      <g>
       <use style="stroke:#000000;stroke-width:0.5;" x="36.616617" xlink:href="#me8467c4031" y="172.239545"/>
      </g>
     </g>
     <g id="line2d_48">
      <g>
       <use style="stroke:#000000;stroke-width:0.5;" x="427.216617" xlink:href="#m2050e1b662" y="172.239545"/>
      </g>
     </g>
     <g id="text_10">
      <!-- $\mathdefault{6}$ -->
      <g transform="translate(25.31263 177.77434)scale(0.16 -0.16)">
       <use transform="scale(0.996264)" xlink:href="#CMR17-54"/>
      </g>
     </g>
    </g>
    <g id="ytick_4">
     <g id="line2d_49">
      <g>
       <use style="stroke:#000000;stroke-width:0.5;" x="36.616617" xlink:href="#me8467c4031" y="120.350455"/>
      </g>
     </g>
     <g id="line2d_50">
      <g>
       <use style="stroke:#000000;stroke-width:0.5;" x="427.216617" xlink:href="#m2050e1b662" y="120.350455"/>
      </g>
     </g>
     <g id="text_11">
      <!-- $\mathdefault{7}$ -->
      <g transform="translate(25.31263 125.885249)scale(0.16 -0.16)">
       <defs>
        <path d="M 45.09375 61.796875 
L 45.09375 64 
L 21.59375 64 
C 9.90625 64 9.703125 65.09375 9.296875 67 
L 7.5 67 
L 4.59375 48.5 
L 6.40625 48.5 
C 6.703125 50.40625 7.40625 55.5 8.59375 57.390625 
C 9.203125 58.1875 16.59375 58.1875 18.296875 58.1875 
L 40.296875 58.1875 
L 29.203125 41.71875 
C 21.796875 30.640625 16.703125 15.671875 16.703125 2.59375 
C 16.703125 1.390625 16.703125 -2 20.296875 -2 
C 23.90625 -2 23.90625 1.390625 23.90625 2.6875 
L 23.90625 7.28125 
C 23.90625 23.65625 26.703125 34.4375 31.296875 41.3125 
z
" id="CMR17-55"/>
       </defs>
       <use transform="scale(0.996264)" xlink:href="#CMR17-55"/>
      </g>
     </g>
    </g>
    <g id="ytick_5">
     <g id="line2d_51">
      <g>
       <use style="stroke:#000000;stroke-width:0.5;" x="36.616617" xlink:href="#me8467c4031" y="68.461364"/>
      </g>
     </g>
     <g id="line2d_52">
      <g>
       <use style="stroke:#000000;stroke-width:0.5;" x="427.216617" xlink:href="#m2050e1b662" y="68.461364"/>
      </g>
     </g>
     <g id="text_12">
      <!-- $\mathdefault{8}$ -->
      <g transform="translate(25.31263 73.996158)scale(0.16 -0.16)">
       <use transform="scale(0.996264)" xlink:href="#CMR17-56"/>
      </g>
     </g>
    </g>
    <g id="ytick_6">
     <g id="line2d_53">
      <g>
       <use style="stroke:#000000;stroke-width:0.5;" x="36.616617" xlink:href="#me8467c4031" y="16.572273"/>
      </g>
     </g>
     <g id="line2d_54">
      <g>
       <use style="stroke:#000000;stroke-width:0.5;" x="427.216617" xlink:href="#m2050e1b662" y="16.572273"/>
      </g>
     </g>
     <g id="text_13">
      <!-- $\mathdefault{9}$ -->
      <g transform="translate(25.31263 22.107067)scale(0.16 -0.16)">
       <defs>
        <path d="M 35.203125 29.234375 
C 35.203125 7 26.09375 0.390625 18.59375 0.390625 
C 16.296875 0.390625 10.703125 0.671875 8.40625 4.390625 
C 11 4 12.90625 5.390625 12.90625 7.890625 
C 12.90625 10.59375 10.703125 11.5 9.296875 11.5 
C 8.40625 11.5 5.703125 11.09375 5.703125 7.6875 
C 5.703125 1.0625 11.59375 -2 18.796875 -2 
C 30.296875 -2 42 10.390625 42 32.65625 
C 42 60.265625 30.796875 66 23.203125 66 
C 13.296875 66 3.796875 57.25 3.796875 43.75 
C 3.796875 31.25 11.90625 22 22.09375 22 
C 30.5 22 34.203125 29.84375 35.203125 33.15625 
z
M 22.296875 23.59375 
C 19.59375 23.59375 15.796875 24.09375 12.703125 30.140625 
C 10.59375 34.078125 10.59375 38.703125 10.59375 43.640625 
C 10.59375 49.59375 10.59375 53.71875 13.40625 58.15625 
C 14.796875 60.265625 17.40625 63.6875 23.203125 63.6875 
C 35 63.6875 35 45.453125 35 41.421875 
C 35 34.265625 31.796875 23.59375 22.296875 23.59375 
z
" id="CMR17-57"/>
       </defs>
       <use transform="scale(0.996264)" xlink:href="#CMR17-57"/>
      </g>
     </g>
    </g>
    <g id="ytick_7">
     <g id="line2d_55">
      <defs>
       <path d="M 0 0 
L 1.5 0 
" id="m83399ca6a8" style="stroke:#000000;stroke-width:0.5;"/>
      </defs>
      <g>
       <use style="stroke:#000000;stroke-width:0.5;" x="36.616617" xlink:href="#m83399ca6a8" y="286.395545"/>
      </g>
     </g>
     <g id="line2d_56">
      <defs>
       <path d="M 0 0 
L -1.5 0 
" id="mc950cdedaf" style="stroke:#000000;stroke-width:0.5;"/>
      </defs>
      <g>
       <use style="stroke:#000000;stroke-width:0.5;" x="427.216617" xlink:href="#mc950cdedaf" y="286.395545"/>
      </g>
     </g>
    </g>
    <g id="ytick_8">
     <g id="line2d_57">
      <g>
       <use style="stroke:#000000;stroke-width:0.5;" x="36.616617" xlink:href="#m83399ca6a8" y="265.639909"/>
      </g>
     </g>
     <g id="line2d_58">
      <g>
       <use style="stroke:#000000;stroke-width:0.5;" x="427.216617" xlink:href="#mc950cdedaf" y="265.639909"/>
      </g>
     </g>
    </g>
    <g id="ytick_9">
     <g id="line2d_59">
      <g>
       <use style="stroke:#000000;stroke-width:0.5;" x="36.616617" xlink:href="#m83399ca6a8" y="255.262091"/>
      </g>
     </g>
     <g id="line2d_60">
      <g>
       <use style="stroke:#000000;stroke-width:0.5;" x="427.216617" xlink:href="#mc950cdedaf" y="255.262091"/>
      </g>
     </g>
    </g>
    <g id="ytick_10">
     <g id="line2d_61">
      <g>
       <use style="stroke:#000000;stroke-width:0.5;" x="36.616617" xlink:href="#m83399ca6a8" y="244.884273"/>
      </g>
     </g>
     <g id="line2d_62">
      <g>
       <use style="stroke:#000000;stroke-width:0.5;" x="427.216617" xlink:href="#mc950cdedaf" y="244.884273"/>
      </g>
     </g>
    </g>
    <g id="ytick_11">
     <g id="line2d_63">
      <g>
       <use style="stroke:#000000;stroke-width:0.5;" x="36.616617" xlink:href="#m83399ca6a8" y="234.506455"/>
      </g>
     </g>
     <g id="line2d_64">
      <g>
       <use style="stroke:#000000;stroke-width:0.5;" x="427.216617" xlink:href="#mc950cdedaf" y="234.506455"/>
      </g>
     </g>
    </g>
    <g id="ytick_12">
     <g id="line2d_65">
      <g>
       <use style="stroke:#000000;stroke-width:0.5;" x="36.616617" xlink:href="#m83399ca6a8" y="213.750818"/>
      </g>
     </g>
     <g id="line2d_66">
      <g>
       <use style="stroke:#000000;stroke-width:0.5;" x="427.216617" xlink:href="#mc950cdedaf" y="213.750818"/>
      </g>
     </g>
    </g>
    <g id="ytick_13">
     <g id="line2d_67">
      <g>
       <use style="stroke:#000000;stroke-width:0.5;" x="36.616617" xlink:href="#m83399ca6a8" y="203.373"/>
      </g>
     </g>
     <g id="line2d_68">
      <g>
       <use style="stroke:#000000;stroke-width:0.5;" x="427.216617" xlink:href="#mc950cdedaf" y="203.373"/>
      </g>
     </g>
    </g>
    <g id="ytick_14">
     <g id="line2d_69">
      <g>
       <use style="stroke:#000000;stroke-width:0.5;" x="36.616617" xlink:href="#m83399ca6a8" y="192.995182"/>
      </g>
     </g>
     <g id="line2d_70">
      <g>
       <use style="stroke:#000000;stroke-width:0.5;" x="427.216617" xlink:href="#mc950cdedaf" y="192.995182"/>
      </g>
     </g>
    </g>
    <g id="ytick_15">
     <g id="line2d_71">
      <g>
       <use style="stroke:#000000;stroke-width:0.5;" x="36.616617" xlink:href="#m83399ca6a8" y="182.617364"/>
      </g>
     </g>
     <g id="line2d_72">
      <g>
       <use style="stroke:#000000;stroke-width:0.5;" x="427.216617" xlink:href="#mc950cdedaf" y="182.617364"/>
      </g>
     </g>
    </g>
    <g id="ytick_16">
     <g id="line2d_73">
      <g>
       <use style="stroke:#000000;stroke-width:0.5;" x="36.616617" xlink:href="#m83399ca6a8" y="161.861727"/>
      </g>
     </g>
     <g id="line2d_74">
      <g>
       <use style="stroke:#000000;stroke-width:0.5;" x="427.216617" xlink:href="#mc950cdedaf" y="161.861727"/>
      </g>
     </g>
    </g>
    <g id="ytick_17">
     <g id="line2d_75">
      <g>
       <use style="stroke:#000000;stroke-width:0.5;" x="36.616617" xlink:href="#m83399ca6a8" y="151.483909"/>
      </g>
     </g>
     <g id="line2d_76">
      <g>
       <use style="stroke:#000000;stroke-width:0.5;" x="427.216617" xlink:href="#mc950cdedaf" y="151.483909"/>
      </g>
     </g>
    </g>
    <g id="ytick_18">
     <g id="line2d_77">
      <g>
       <use style="stroke:#000000;stroke-width:0.5;" x="36.616617" xlink:href="#m83399ca6a8" y="141.106091"/>
      </g>
     </g>
     <g id="line2d_78">
      <g>
       <use style="stroke:#000000;stroke-width:0.5;" x="427.216617" xlink:href="#mc950cdedaf" y="141.106091"/>
      </g>
     </g>
    </g>
    <g id="ytick_19">
     <g id="line2d_79">
      <g>
       <use style="stroke:#000000;stroke-width:0.5;" x="36.616617" xlink:href="#m83399ca6a8" y="130.728273"/>
      </g>
     </g>
     <g id="line2d_80">
      <g>
       <use style="stroke:#000000;stroke-width:0.5;" x="427.216617" xlink:href="#mc950cdedaf" y="130.728273"/>
      </g>
     </g>
    </g>
    <g id="ytick_20">
     <g id="line2d_81">
      <g>
       <use style="stroke:#000000;stroke-width:0.5;" x="36.616617" xlink:href="#m83399ca6a8" y="109.972636"/>
      </g>
     </g>
     <g id="line2d_82">
      <g>
       <use style="stroke:#000000;stroke-width:0.5;" x="427.216617" xlink:href="#mc950cdedaf" y="109.972636"/>
      </g>
     </g>
    </g>
    <g id="ytick_21">
     <g id="line2d_83">
      <g>
       <use style="stroke:#000000;stroke-width:0.5;" x="36.616617" xlink:href="#m83399ca6a8" y="99.594818"/>
      </g>
     </g>
     <g id="line2d_84">
      <g>
       <use style="stroke:#000000;stroke-width:0.5;" x="427.216617" xlink:href="#mc950cdedaf" y="99.594818"/>
      </g>
     </g>
    </g>
    <g id="ytick_22">
     <g id="line2d_85">
      <g>
       <use style="stroke:#000000;stroke-width:0.5;" x="36.616617" xlink:href="#m83399ca6a8" y="89.217"/>
      </g>
     </g>
     <g id="line2d_86">
      <g>
       <use style="stroke:#000000;stroke-width:0.5;" x="427.216617" xlink:href="#mc950cdedaf" y="89.217"/>
      </g>
     </g>
    </g>
    <g id="ytick_23">
     <g id="line2d_87">
      <g>
       <use style="stroke:#000000;stroke-width:0.5;" x="36.616617" xlink:href="#m83399ca6a8" y="78.839182"/>
      </g>
     </g>
     <g id="line2d_88">
      <g>
       <use style="stroke:#000000;stroke-width:0.5;" x="427.216617" xlink:href="#mc950cdedaf" y="78.839182"/>
      </g>
     </g>
    </g>
    <g id="ytick_24">
     <g id="line2d_89">
      <g>
       <use style="stroke:#000000;stroke-width:0.5;" x="36.616617" xlink:href="#m83399ca6a8" y="58.083545"/>
      </g>
     </g>
     <g id="line2d_90">
      <g>
       <use style="stroke:#000000;stroke-width:0.5;" x="427.216617" xlink:href="#mc950cdedaf" y="58.083545"/>
      </g>
     </g>
    </g>
    <g id="ytick_25">
     <g id="line2d_91">
      <g>
       <use style="stroke:#000000;stroke-width:0.5;" x="36.616617" xlink:href="#m83399ca6a8" y="47.705727"/>
      </g>
     </g>
     <g id="line2d_92">
      <g>
       <use style="stroke:#000000;stroke-width:0.5;" x="427.216617" xlink:href="#mc950cdedaf" y="47.705727"/>
      </g>
     </g>
    </g>
    <g id="ytick_26">
     <g id="line2d_93">
      <g>
       <use style="stroke:#000000;stroke-width:0.5;" x="36.616617" xlink:href="#m83399ca6a8" y="37.327909"/>
      </g>
     </g>
     <g id="line2d_94">
      <g>
       <use style="stroke:#000000;stroke-width:0.5;" x="427.216617" xlink:href="#mc950cdedaf" y="37.327909"/>
      </g>
     </g>
    </g>
    <g id="ytick_27">
     <g id="line2d_95">
      <g>
       <use style="stroke:#000000;stroke-width:0.5;" x="36.616617" xlink:href="#m83399ca6a8" y="26.950091"/>
      </g>
     </g>
     <g id="line2d_96">
      <g>
       <use style="stroke:#000000;stroke-width:0.5;" x="427.216617" xlink:href="#mc950cdedaf" y="26.950091"/>
      </g>
     </g>
    </g>
    <g id="ytick_28">
     <g id="line2d_97">
      <g>
       <use style="stroke:#000000;stroke-width:0.5;" x="36.616617" xlink:href="#m83399ca6a8" y="6.194455"/>
      </g>
     </g>
     <g id="line2d_98">
      <g>
       <use style="stroke:#000000;stroke-width:0.5;" x="427.216617" xlink:href="#mc950cdedaf" y="6.194455"/>
      </g>
     </g>
    </g>
    <g id="text_14">
     <!-- y -->
     <g transform="translate(17.436997 151.124287)rotate(-90)scale(0.2 -0.2)">
      <defs>
       <path d="M 39 34.109375 
C 41.5 40.296875 46 40.390625 47.40625 40.390625 
L 47.40625 43 
C 45.5 42.890625 43 42.796875 41.09375 42.796875 
C 39 42.796875 35.703125 42.796875 33.703125 43 
L 33.703125 40.390625 
C 37.5 40.09375 37.59375 37.25 37.59375 36.4375 
C 37.59375 35.4375 37.40625 34.921875 36.90625 33.71875 
L 26 6.390625 
L 14.09375 35.9375 
C 13.59375 37.15625 13.59375 37.859375 13.59375 37.96875 
C 13.59375 40.1875 15.90625 40.390625 18.296875 40.390625 
L 18.296875 43 
C 15.90625 42.796875 11.59375 42.796875 9.09375 42.796875 
C 6.40625 42.796875 3.203125 42.796875 1 43 
L 1 40.390625 
C 6.40625 40.390625 7 39.890625 8.296875 36.640625 
L 23.203125 -0.484375 
C 18.703125 -12.421875 16.09375 -19.40625 9.796875 -19.40625 
C 8.703125 -19.40625 6.203125 -19.109375 4.40625 -17.28125 
C 6.703125 -17.078125 7.703125 -15.65625 7.703125 -13.9375 
C 7.703125 -12.21875 6.5 -10.703125 4.5 -10.703125 
C 2.296875 -10.703125 1.203125 -12.21875 1.203125 -14.046875 
C 1.203125 -18.09375 5.296875 -21 9.796875 -21 
C 15.59375 -21 19.203125 -15.359375 21.203125 -10.296875 
z
" id="CMR17-121"/>
      </defs>
      <use transform="scale(0.996264)" xlink:href="#CMR17-121"/>
     </g>
    </g>
   </g>
   <g id="line2d_99">
    <path clip-path="url(#p146b36752d)" d="M 54.371163 275.933331 
L 57.95794 265.618454 
L 61.544717 256.117521 
L 65.131493 248.038367 
L 68.71827 241.953451 
L 72.305047 238.222219 
L 75.891824 236.956671 
L 79.478601 238.021513 
L 83.065378 241.048718 
L 86.652155 245.474304 
L 90.238931 250.594647 
L 93.825708 255.636748 
L 97.412485 259.835422 
L 100.999262 262.509704 
L 104.586039 263.130853 
L 108.172816 261.37515 
L 111.759593 257.156221 
L 115.346369 250.633666 
L 118.933146 242.19712 
L 122.519923 232.427343 
L 126.1067 222.038231 
L 129.693477 211.805523 
L 133.280254 202.489342 
L 136.867031 194.758287 
L 140.453807 189.12267 
L 144.040584 185.88356 
L 147.627361 185.102711 
L 151.214138 186.596405 
L 154.800915 189.953792 
L 158.387692 194.577917 
L 161.974469 199.745331 
L 165.561245 204.678336 
L 169.148022 208.622638 
L 172.734799 210.922676 
L 176.321576 211.087079 
L 179.908353 208.837737 
L 183.49513 204.137571 
L 187.081907 197.194235 
L 190.668683 188.439383 
L 194.25546 178.485561 
L 197.842237 168.065041 
L 201.429014 157.956701 
L 205.015791 148.908243 
L 208.602568 141.561532 
L 212.189345 136.388503 
L 215.776122 133.644027 
L 219.362898 133.340469 
L 222.949675 135.246449 
L 226.536452 138.909945 
L 230.123229 143.703437 
L 233.710006 148.886563 
L 237.296783 153.680055 
L 240.88356 157.343551 
L 244.470336 159.249531 
L 248.057113 158.945973 
L 251.64389 156.201497 
L 255.230667 151.028468 
L 258.817444 143.681757 
L 262.404221 134.633299 
L 265.990998 124.524959 
L 269.577774 114.104439 
L 273.164551 104.150617 
L 276.751328 95.395765 
L 280.338105 88.452429 
L 283.924882 83.752263 
L 287.511659 81.502921 
L 291.098436 81.667324 
L 294.685212 83.967362 
L 298.271989 87.911664 
L 301.858766 92.844669 
L 305.445543 98.012083 
L 309.03232 102.636208 
L 312.619097 105.993595 
L 316.205874 107.487289 
L 319.79265 106.70644 
L 323.379427 103.46733 
L 326.966204 97.831713 
L 330.552981 90.100658 
L 334.139758 80.784477 
L 337.726535 70.551769 
L 341.313312 60.162657 
L 344.900088 50.39288 
L 348.486865 41.956334 
L 352.073642 35.433779 
L 355.660419 31.21485 
L 359.247196 29.459147 
L 362.833973 30.080296 
L 366.42075 32.754578 
L 370.007526 36.953252 
L 373.594303 41.995353 
L 377.18108 47.115696 
L 380.767857 51.541282 
L 384.354634 54.568487 
L 387.941411 55.633329 
L 391.528188 54.367781 
L 395.114964 50.636549 
L 398.701741 44.551633 
L 402.288518 36.472479 
L 405.875295 26.971546 
L 409.462072 16.656669 
" style="fill:none;stroke:#0c5da5;stroke-linecap:square;"/>
   </g>
   <g id="line2d_100">
    <path clip-path="url(#p146b36752d)" d="M 54.371163 263.066341 
L 57.95794 258.592219 
L 61.544717 254.971058 
L 65.131493 252.192576 
L 68.71827 250.217766 
L 72.305047 248.976271 
L 75.891824 248.365601 
L 79.478601 248.252591 
L 83.065378 248.477238 
L 86.652155 248.858918 
L 90.238931 249.204827 
L 93.825708 249.320456 
L 97.412485 249.021898 
L 100.999262 248.149558 
L 104.586039 246.582414 
L 108.172816 244.251272 
L 111.759593 241.148898 
L 115.346369 237.334852 
L 118.933146 232.933419 
L 122.519923 228.124178 
L 126.1067 223.125968 
L 129.693477 218.17603 
L 133.280254 213.506743 
L 136.867031 209.322529 
L 140.453807 205.779445 
L 144.040584 202.969572 
L 147.627361 200.911792 
L 151.214138 199.549895 
L 154.800915 198.758183 
L 158.387692 198.354022 
L 161.974469 198.116078 
L 165.561245 197.806417 
L 169.148022 197.194268 
L 172.734799 196.079066 
L 176.321576 194.310479 
L 179.908353 191.803421 
L 183.49513 188.546548 
L 187.081907 184.603389 
L 190.668683 180.106008 
L 194.25546 175.241809 
L 197.842237 170.234826 
L 201.429014 165.323353 
L 205.015791 160.736145 
L 208.602568 156.669576 
L 212.189345 153.268032 
L 215.776122 150.609491 
L 219.362898 148.697734 
L 222.949675 147.461972 
L 226.536452 146.763913 
L 230.123229 146.411569 
L 233.710006 146.178431 
L 237.296783 145.826087 
L 240.88356 145.128028 
L 244.470336 143.892266 
L 248.057113 141.980509 
L 251.64389 139.321968 
L 255.230667 135.920424 
L 258.817444 131.853855 
L 262.404221 127.266647 
L 265.990998 122.355174 
L 269.577774 117.348191 
L 273.164551 112.483992 
L 276.751328 107.986611 
L 280.338105 104.043452 
L 283.924882 100.786579 
L 287.511659 98.279521 
L 291.098436 96.510934 
L 294.685212 95.395732 
L 298.271989 94.783583 
L 301.858766 94.473922 
L 305.445543 94.235978 
L 309.03232 93.831817 
L 312.619097 93.040105 
L 316.205874 91.678208 
L 319.79265 89.620428 
L 323.379427 86.810555 
L 326.966204 83.267471 
L 330.552981 79.083257 
L 334.139758 74.41397 
L 337.726535 69.464032 
L 341.313312 64.465822 
L 344.900088 59.656581 
L 348.486865 55.255148 
L 352.073642 51.441102 
L 355.660419 48.338728 
L 359.247196 46.007586 
L 362.833973 44.440442 
L 366.42075 43.568102 
L 370.007526 43.269544 
L 373.594303 43.385173 
L 377.18108 43.731082 
L 380.767857 44.112762 
L 384.354634 44.337409 
L 387.941411 44.224399 
L 391.528188 43.613729 
L 395.114964 42.372234 
L 398.701741 40.397424 
L 402.288518 37.618942 
L 405.875295 33.997781 
L 409.462072 29.523659 
" style="fill:none;stroke:#00b945;stroke-linecap:square;"/>
   </g>
   <g id="line2d_101">
    <path clip-path="url(#p146b36752d)" d="M 54.371163 258.428712 
L 57.95794 257.400174 
L 61.544717 256.38426 
L 65.131493 255.354225 
L 68.71827 254.285051 
L 72.305047 253.153974 
L 75.891824 251.940956 
L 79.478601 250.629108 
L 83.065378 249.205018 
L 86.652155 247.658988 
L 90.238931 245.985149 
L 93.825708 244.181457 
L 97.412485 242.249558 
L 100.999262 240.194522 
L 104.586039 238.024467 
L 108.172816 235.750074 
L 111.759593 233.384021 
L 115.346369 230.940353 
L 118.933146 228.433828 
L 122.519923 225.879254 
L 126.1067 223.290849 
L 129.693477 220.681668 
L 133.280254 218.063092 
L 136.867031 215.444436 
L 140.453807 212.832667 
L 144.040584 210.232273 
L 147.627361 207.645264 
L 151.214138 205.071332 
L 154.800915 202.508155 
L 158.387692 199.951815 
L 161.974469 197.39733 
L 165.561245 194.83924 
L 169.148022 192.272209 
L 172.734799 189.691606 
L 176.321576 187.093993 
L 179.908353 184.4775 
L 183.49513 181.842031 
L 187.081907 179.189296 
L 190.668683 176.522662 
L 194.25546 173.846832 
L 197.842237 171.167387 
L 201.429014 168.490246 
L 205.015791 165.82108 
L 208.602568 163.16475 
L 212.189345 160.52483 
L 215.776122 157.903251 
L 219.362898 155.30011 
L 222.949675 152.713659 
L 226.536452 150.140485 
L 230.123229 147.575847 
L 233.710006 145.014153 
L 237.296783 142.449515 
L 240.88356 139.876341 
L 244.470336 137.28989 
L 248.057113 134.686749 
L 251.64389 132.06517 
L 255.230667 129.42525 
L 258.817444 126.76892 
L 262.404221 124.099754 
L 265.990998 121.422613 
L 269.577774 118.743168 
L 273.164551 116.067338 
L 276.751328 113.400704 
L 280.338105 110.747969 
L 283.924882 108.1125 
L 287.511659 105.496007 
L 291.098436 102.898394 
L 294.685212 100.317791 
L 298.271989 97.75076 
L 301.858766 95.19267 
L 305.445543 92.638185 
L 309.03232 90.081845 
L 312.619097 87.518668 
L 316.205874 84.944736 
L 319.79265 82.357727 
L 323.379427 79.757333 
L 326.966204 77.145564 
L 330.552981 74.526908 
L 334.139758 71.908332 
L 337.726535 69.299151 
L 341.313312 66.710746 
L 344.900088 64.156172 
L 348.486865 61.649647 
L 352.073642 59.205979 
L 355.660419 56.839926 
L 359.247196 54.565533 
L 362.833973 52.395478 
L 366.42075 50.340442 
L 370.007526 48.408543 
L 373.594303 46.604851 
L 377.18108 44.931012 
L 380.767857 43.384982 
L 384.354634 41.960892 
L 387.941411 40.649044 
L 391.528188 39.436026 
L 395.114964 38.304949 
L 398.701741 37.235775 
L 402.288518 36.20574 
L 405.875295 35.189826 
L 409.462072 34.161288 
" style="fill:none;stroke:#ff9500;stroke-linecap:square;"/>
   </g>
   <g id="patch_3">
    <path d="M 36.616617 288.99 
L 36.616617 3.6 
" style="fill:none;stroke:#000000;stroke-linecap:square;stroke-linejoin:miter;stroke-width:0.5;"/>
   </g>
   <g id="patch_4">
    <path d="M 427.216617 288.99 
L 427.216617 3.6 
" style="fill:none;stroke:#000000;stroke-linecap:square;stroke-linejoin:miter;stroke-width:0.5;"/>
   </g>
   <g id="patch_5">
    <path d="M 36.616617 288.99 
L 427.216617 288.99 
" style="fill:none;stroke:#000000;stroke-linecap:square;stroke-linejoin:miter;stroke-width:0.5;"/>
   </g>
   <g id="patch_6">
    <path d="M 36.616617 3.6 
L 427.216617 3.6 
" style="fill:none;stroke:#000000;stroke-linecap:square;stroke-linejoin:miter;stroke-width:0.5;"/>
   </g>
   <g id="legend_1">
    <g id="line2d_102">
     <path d="M 51.016617 23.6 
L 83.016617 23.6 
" style="fill:none;stroke:#0c5da5;stroke-linecap:square;"/>
    </g>
    <g id="line2d_103"/>
    <g id="text_15">
     <!-- $\sigma = 0.01$ -->
     <g transform="translate(95.816617 29.2)scale(0.16 -0.16)">
      <defs>
       <path d="M 50.796875 37.59375 
C 52.09375 37.59375 55.40625 37.59375 55.40625 40.796875 
C 55.40625 43 53.5 43 51.703125 43 
L 29.59375 43 
C 14.59375 43 3.796875 26.328125 3.796875 14.5625 
C 3.796875 6.078125 9.296875 -1 18.296875 -1 
C 30.09375 -1 43 11.65625 43 26.625 
C 43 30.515625 42.09375 34.296875 39.703125 37.59375 
z
M 18.40625 1 
C 13.296875 1 9.59375 4.875 9.59375 11.765625 
C 9.59375 17.75 13.203125 37.59375 27.90625 37.59375 
C 32.203125 37.59375 37 35.5 37 27.8125 
C 37 24.328125 35.40625 15.953125 31.90625 10.171875 
C 28.296875 4.28125 22.90625 1 18.40625 1 
z
" id="CMMI12-27"/>
       <path d="M 64.296875 32 
C 65.796875 32 67.296875 32 67.296875 33.6875 
C 67.296875 35.5 65.59375 35.5 63.90625 35.5 
L 8 35.5 
C 6.296875 35.5 4.59375 35.5 4.59375 33.6875 
C 4.59375 32 6.09375 32 7.59375 32 
z
M 63.90625 14.484375 
C 65.59375 14.484375 67.296875 14.484375 67.296875 16.296875 
C 67.296875 18 65.796875 18 64.296875 18 
L 7.59375 18 
C 6.09375 18 4.59375 18 4.59375 16.296875 
C 4.59375 14.484375 6.296875 14.484375 8 14.484375 
z
" id="CMR17-61"/>
      </defs>
      <use transform="scale(0.996264)" xlink:href="#CMMI12-27"/>
      <use transform="translate(86.694062 0)scale(0.996264)" xlink:href="#CMR17-61"/>
      <use transform="translate(186.082859 0)scale(0.996264)" xlink:href="#CMR17-48"/>
      <use transform="translate(231.773337 0)scale(0.996264)" xlink:href="#CMMI12-58"/>
      <use transform="translate(258.870514 0)scale(0.996264)" xlink:href="#CMR17-48"/>
      <use transform="translate(304.560991 0)scale(0.996264)" xlink:href="#CMR17-49"/>
     </g>
    </g>
    <g id="line2d_104">
     <path d="M 51.016617 46.2225 
L 83.016617 46.2225 
" style="fill:none;stroke:#00b945;stroke-linecap:square;"/>
    </g>
    <g id="line2d_105"/>
    <g id="text_16">
     <!-- $\sigma = 0.05$ -->
     <g transform="translate(95.816617 51.8225)scale(0.16 -0.16)">
      <use transform="scale(0.996264)" xlink:href="#CMMI12-27"/>
      <use transform="translate(86.694062 0)scale(0.996264)" xlink:href="#CMR17-61"/>
      <use transform="translate(186.082859 0)scale(0.996264)" xlink:href="#CMR17-48"/>
      <use transform="translate(231.773337 0)scale(0.996264)" xlink:href="#CMMI12-58"/>
      <use transform="translate(258.870514 0)scale(0.996264)" xlink:href="#CMR17-48"/>
      <use transform="translate(304.560991 0)scale(0.996264)" xlink:href="#CMR17-53"/>
     </g>
    </g>
    <g id="line2d_106">
     <path d="M 51.016617 68.845 
L 83.016617 68.845 
" style="fill:none;stroke:#ff9500;stroke-linecap:square;"/>
    </g>
    <g id="line2d_107"/>
    <g id="text_17">
     <!-- $\sigma = 0.1$ -->
     <g transform="translate(95.816617 74.445)scale(0.16 -0.16)">
      <use transform="scale(0.996264)" xlink:href="#CMMI12-27"/>
      <use transform="translate(86.694062 0)scale(0.996264)" xlink:href="#CMR17-61"/>
      <use transform="translate(186.082859 0)scale(0.996264)" xlink:href="#CMR17-48"/>
      <use transform="translate(231.773337 0)scale(0.996264)" xlink:href="#CMMI12-58"/>
      <use transform="translate(258.870514 0)scale(0.996264)" xlink:href="#CMR17-49"/>
     </g>
    </g>
    <g id="PathCollection_2">
     <g>
      <use style="fill:#ff0000;stroke:#ff0000;" x="67.016617" xlink:href="#mc1f3bc9fc6" y="92.8675"/>
     </g>
    </g>
    <g id="text_18">
     <!-- real -->
     <g transform="translate(95.816617 97.0675)scale(0.16 -0.16)">
      <defs>
       <path d="M 15 23.703125 
C 15 33.34375 19.09375 42.390625 26.59375 42.390625 
C 27.296875 42.390625 28 42.296875 28.703125 41.984375 
C 28.703125 41.984375 26.5 41.28125 26.5 38.671875 
C 26.5 36.265625 28.40625 35.265625 29.90625 35.265625 
C 31.09375 35.265625 33.296875 35.96875 33.296875 38.78125 
C 33.296875 41.984375 30.09375 44 26.703125 44 
C 19.09375 44 15.796875 36.5625 14.796875 33.046875 
L 14.703125 33.046875 
L 14.703125 44 
L 3.09375 42.890625 
L 3.09375 40.28125 
C 9 40.28125 9.90625 39.6875 9.90625 34.859375 
L 9.90625 6.921875 
C 9.90625 3.09375 9.5 2.59375 3.09375 2.59375 
L 3.09375 0 
C 5.5 0.1875 10.09375 0.1875 12.703125 0.1875 
C 15.59375 0.1875 20.703125 0.1875 23.40625 0 
L 23.40625 2.59375 
C 16.203125 2.59375 15 2.59375 15 7.109375 
z
" id="CMR17-114"/>
       <path d="M 38.09375 23.484375 
C 38.5 23.890625 38.5 24.09375 38.5 25.09375 
C 38.5 35.171875 33.09375 44 21.703125 44 
C 11.09375 44 2.703125 33.984375 2.703125 21.78125 
C 2.703125 8.65625 12.203125 -1 22.796875 -1 
C 34 -1 38.40625 9.671875 38.40625 11.796875 
C 38.40625 12.5 37.796875 12.5 37.59375 12.5 
C 36.90625 12.5 36.796875 12.296875 36.40625 11.078125 
C 34.203125 4.21875 28.703125 0.796875 23.5 0.796875 
C 19.203125 0.796875 14.90625 3.21875 12.203125 7.65625 
C 9.09375 12.796875 9.09375 18.75 9.09375 23.484375 
z
M 9.203125 25 
C 9.90625 39.234375 17.59375 42.390625 21.59375 42.390625 
C 28.40625 42.390625 33 36.0625 33.09375 25 
z
" id="CMR17-101"/>
       <path d="M 36 25.875 
C 36 32 36 35.546875 31.796875 39.59375 
C 28.09375 42.984375 23.796875 44 20.40625 44 
C 12.5 44 6.796875 37.625 6.796875 30.890625 
C 6.796875 27.1875 9.796875 27 10.40625 27 
C 11.703125 27 14 27.796875 14 30.59375 
C 14 33.09375 12.09375 34.1875 10.40625 34.1875 
C 10 34.1875 9.5 34.09375 9.203125 34 
C 11.296875 40.53125 16.703125 42.390625 20.203125 42.390625 
C 25.203125 42.390625 30.703125 37.828125 30.703125 29.296875 
L 30.703125 25.5 
C 24.796875 25.296875 17.703125 24.5 12.09375 21.453125 
C 5.796875 17.921875 4 12.84375 4 9 
C 4 1.203125 13 -1 18.296875 -1 
C 23.796875 -1 28.90625 2.109375 31.09375 7.890625 
C 31.296875 3.421875 34.09375 -0.609375 38.5 -0.609375 
C 40.59375 -0.609375 45.90625 0.796875 45.90625 8.796875 
L 45.90625 14.46875 
L 44.09375 14.46875 
L 44.09375 8.703125 
C 44.09375 2.515625 41.40625 1.703125 40.09375 1.703125 
C 36 1.703125 36 6.96875 36 11.4375 
z
M 30.703125 13.859375 
C 30.703125 5.046875 24.5 0.59375 19 0.59375 
C 14 0.59375 10.09375 4.34375 10.09375 9 
C 10.09375 12.046875 11.40625 17.40625 17.203125 20.65625 
C 22 23.390625 27.5 23.796875 30.703125 24 
z
" id="CMR17-97"/>
       <path d="M 15.296875 69 
L 3.40625 67.890625 
L 3.40625 65.296875 
C 9.296875 65.296875 10.203125 64.703125 10.203125 59.921875 
L 10.203125 6.859375 
C 10.203125 3.09375 9.796875 2.59375 3.40625 2.59375 
L 3.40625 0 
C 5.796875 0.1875 10.203125 0.1875 12.703125 0.1875 
C 15.296875 0.1875 19.703125 0.1875 22.09375 0 
L 22.09375 2.59375 
C 15.703125 2.59375 15.296875 2.984375 15.296875 6.859375 
z
" id="CMR17-108"/>
      </defs>
      <use transform="scale(0.996264)" xlink:href="#CMR17-114"/>
      <use transform="translate(35.280768 0)scale(0.996264)" xlink:href="#CMR17-101"/>
      <use transform="translate(75.766428 0)scale(0.996264)" xlink:href="#CMR17-97"/>
      <use transform="translate(121.456905 0)scale(0.996264)" xlink:href="#CMR17-108"/>
     </g>
    </g>
   </g>
  </g>
 </g>
 <defs>
  <clipPath id="p146b36752d">
   <rect height="285.39" width="390.6" x="36.616617" y="3.6"/>
  </clipPath>
 </defs>
</svg>
