<?xml version="1.0" encoding="utf-8" standalone="no"?>
<!DOCTYPE svg PUBLIC "-//W3C//DTD SVG 1.1//EN"
  "http://www.w3.org/Graphics/SVG/1.1/DTD/svg11.dtd">
<!-- Created with matplotlib (https://matplotlib.org/) -->
<svg height="351.808692pt" version="1.1" viewBox="0 0 442.956153 351.808692" width="442.956153pt" xmlns="http://www.w3.org/2000/svg" xmlns:xlink="http://www.w3.org/1999/xlink">
 <metadata>
  <rdf:RDF xmlns:cc="http://creativecommons.org/ns#" xmlns:dc="http://purl.org/dc/elements/1.1/" xmlns:rdf="http://www.w3.org/1999/02/22-rdf-syntax-ns#">
   <cc:Work>
    <dc:type rdf:resource="http://purl.org/dc/dcmitype/StillImage"/>
    <dc:date>2020-10-05T14:41:28.245037</dc:date>
    <dc:format>image/svg+xml</dc:format>
    <dc:creator>
     <cc:Agent>
      <dc:title>Matplotlib v3.3.1, https://matplotlib.org/</dc:title>
     </cc:Agent>
    </dc:creator>
   </cc:Work>
  </rdf:RDF>
 </metadata>
 <defs>
  <style type="text/css">*{stroke-linecap:butt;stroke-linejoin:round;}</style>
 </defs>
 <g id="figure_1">
  <g id="patch_1">
   <path d="M 0 351.808692 
L 442.956153 351.808692 
L 442.956153 0 
L 0 0 
z
" style="fill:none;"/>
  </g>
  <g id="axes_1">
   <g id="patch_2">
    <path d="M 48.756153 308.826997 
L 439.356153 308.826997 
L 439.356153 23.436997 
L 48.756153 23.436997 
z
" style="fill:#ffffff;"/>
   </g>
   <g id="matplotlib.axis_1">
    <g id="xtick_1">
     <g id="line2d_1">
      <defs>
       <path d="M 0 0 
L 0 -3 
" id="mafb750c6c5" style="stroke:#000000;stroke-width:0.5;"/>
      </defs>
      <g>
       <use style="stroke:#000000;stroke-width:0.5;" x="66.510698" xlink:href="#mafb750c6c5" y="308.826997"/>
      </g>
     </g>
     <g id="line2d_2">
      <defs>
       <path d="M 0 0 
L 0 3 
" id="m385f217bce" style="stroke:#000000;stroke-width:0.5;"/>
      </defs>
      <g>
       <use style="stroke:#000000;stroke-width:0.5;" x="66.510698" xlink:href="#m385f217bce" y="23.436997"/>
      </g>
     </g>
     <g id="text_1">
      <!-- $\mathdefault{0.0}$ -->
      <g transform="translate(56.538937 323.396585)scale(0.16 -0.16)">
       <defs>
        <path d="M 42 31.84375 
C 42 37.96875 41.90625 48.421875 37.703125 56.453125 
C 34 63.484375 28.09375 66 22.90625 66 
C 18.09375 66 12 63.78125 8.203125 56.5625 
C 4.203125 49.015625 3.796875 39.671875 3.796875 31.84375 
C 3.796875 26.109375 3.90625 17.375 7 9.734375 
C 11.296875 -0.609375 19 -2 22.90625 -2 
C 27.5 -2 34.5 -0.109375 38.59375 9.4375 
C 41.59375 16.375 42 24.5 42 31.84375 
z
M 22.90625 -0.40625 
C 16.5 -0.40625 12.703125 5.125 11.296875 12.75 
C 10.203125 18.6875 10.203125 27.328125 10.203125 32.953125 
C 10.203125 40.6875 10.203125 47.109375 11.5 53.234375 
C 13.40625 61.78125 19 64.390625 22.90625 64.390625 
C 27 64.390625 32.296875 61.671875 34.203125 53.4375 
C 35.5 47.71875 35.59375 40.984375 35.59375 32.953125 
C 35.59375 26.421875 35.59375 18.375 34.40625 12.453125 
C 32.296875 1.5 26.40625 -0.40625 22.90625 -0.40625 
z
" id="CMR17-48"/>
        <path d="M 18.40625 4.796875 
C 18.40625 7.6875 16 9.6875 13.59375 9.6875 
C 10.703125 9.6875 8.703125 7.296875 8.703125 4.890625 
C 8.703125 2 11.09375 0 13.5 0 
C 16.40625 0 18.40625 2.390625 18.40625 4.796875 
z
" id="CMMI12-58"/>
       </defs>
       <use transform="scale(0.996264)" xlink:href="#CMR17-48"/>
       <use transform="translate(45.690477 0)scale(0.996264)" xlink:href="#CMMI12-58"/>
       <use transform="translate(72.787654 0)scale(0.996264)" xlink:href="#CMR17-48"/>
      </g>
     </g>
    </g>
    <g id="xtick_2">
     <g id="line2d_3">
      <g>
       <use style="stroke:#000000;stroke-width:0.5;" x="137.52888" xlink:href="#mafb750c6c5" y="308.826997"/>
      </g>
     </g>
     <g id="line2d_4">
      <g>
       <use style="stroke:#000000;stroke-width:0.5;" x="137.52888" xlink:href="#m385f217bce" y="23.436997"/>
      </g>
     </g>
     <g id="text_2">
      <!-- $\mathdefault{0.2}$ -->
      <g transform="translate(127.557119 323.396585)scale(0.16 -0.16)">
       <defs>
        <path d="M 41.703125 15.46875 
L 39.90625 15.46875 
C 38.90625 8.390625 38.09375 7.1875 37.703125 6.59375 
C 37.203125 5.796875 30 5.796875 28.59375 5.796875 
L 9.40625 5.796875 
C 13 9.6875 20 16.765625 28.5 24.9375 
C 34.59375 30.71875 41.703125 37.5 41.703125 47.390625 
C 41.703125 59.1875 32.296875 66 21.796875 66 
C 10.796875 66 4.09375 56.296875 4.09375 47.296875 
C 4.09375 43.390625 7 42.890625 8.203125 42.890625 
C 9.203125 42.890625 12.203125 43.484375 12.203125 46.984375 
C 12.203125 50.09375 9.59375 51 8.203125 51 
C 7.59375 51 7 50.890625 6.59375 50.6875 
C 8.5 59.1875 14.296875 63.390625 20.40625 63.390625 
C 29.09375 63.390625 34.796875 56.5 34.796875 47.390625 
C 34.796875 38.703125 29.703125 31.21875 24 24.734375 
L 4.09375 2.296875 
L 4.09375 0 
L 39.296875 0 
z
" id="CMR17-50"/>
       </defs>
       <use transform="scale(0.996264)" xlink:href="#CMR17-48"/>
       <use transform="translate(45.690477 0)scale(0.996264)" xlink:href="#CMMI12-58"/>
       <use transform="translate(72.787654 0)scale(0.996264)" xlink:href="#CMR17-50"/>
      </g>
     </g>
    </g>
    <g id="xtick_3">
     <g id="line2d_5">
      <g>
       <use style="stroke:#000000;stroke-width:0.5;" x="208.547062" xlink:href="#mafb750c6c5" y="308.826997"/>
      </g>
     </g>
     <g id="line2d_6">
      <g>
       <use style="stroke:#000000;stroke-width:0.5;" x="208.547062" xlink:href="#m385f217bce" y="23.436997"/>
      </g>
     </g>
     <g id="text_3">
      <!-- $\mathdefault{0.4}$ -->
      <g transform="translate(198.575301 323.396585)scale(0.16 -0.16)">
       <defs>
        <path d="M 33.59375 64.796875 
C 33.59375 66.890625 33.5 67 31.703125 67 
L 2 19.59375 
L 2 17 
L 27.796875 17 
L 27.796875 7.1875 
C 27.796875 3.59375 27.59375 2.59375 20.59375 2.59375 
L 18.703125 2.59375 
L 18.703125 0 
C 21.90625 0.1875 27.296875 0.1875 30.703125 0.1875 
C 34.09375 0.1875 39.5 0.1875 42.703125 0 
L 42.703125 2.59375 
L 40.796875 2.59375 
C 33.796875 2.59375 33.59375 3.59375 33.59375 7.1875 
L 33.59375 17 
L 43.796875 17 
L 43.796875 19.59375 
L 33.59375 19.59375 
z
M 28.09375 58.171875 
L 28.09375 19.59375 
L 4 19.59375 
z
" id="CMR17-52"/>
       </defs>
       <use transform="scale(0.996264)" xlink:href="#CMR17-48"/>
       <use transform="translate(45.690477 0)scale(0.996264)" xlink:href="#CMMI12-58"/>
       <use transform="translate(72.787654 0)scale(0.996264)" xlink:href="#CMR17-52"/>
      </g>
     </g>
    </g>
    <g id="xtick_4">
     <g id="line2d_7">
      <g>
       <use style="stroke:#000000;stroke-width:0.5;" x="279.565244" xlink:href="#mafb750c6c5" y="308.826997"/>
      </g>
     </g>
     <g id="line2d_8">
      <g>
       <use style="stroke:#000000;stroke-width:0.5;" x="279.565244" xlink:href="#m385f217bce" y="23.436997"/>
      </g>
     </g>
     <g id="text_4">
      <!-- $\mathdefault{0.6}$ -->
      <g transform="translate(269.593482 323.396585)scale(0.16 -0.16)">
       <defs>
        <path d="M 10.59375 34.34375 
C 10.59375 58 21.796875 63.6875 28.296875 63.6875 
C 30.40625 63.6875 35.5 63.265625 37.5 59.09375 
C 35.90625 59.09375 32.90625 59.09375 32.90625 55.59375 
C 32.90625 52.890625 35.09375 52 36.5 52 
C 37.40625 52 40.09375 52.390625 40.09375 55.796875 
C 40.09375 62.296875 35.09375 66 28.203125 66 
C 16.296875 66 3.796875 53.296875 3.796875 31.421875 
C 3.796875 4.015625 15.09375 -2 23.09375 -2 
C 32.796875 -2 42 6.734375 42 20.234375 
C 42 32.828125 33.90625 42 23.703125 42 
C 17.59375 42 13.09375 37.96875 10.59375 30.921875 
z
M 23.09375 0.390625 
C 10.796875 0.390625 10.796875 18.9375 10.796875 22.65625 
C 10.796875 29.90625 14.203125 40.390625 23.5 40.390625 
C 25.203125 40.390625 30.09375 40.390625 33.40625 33.4375 
C 35.203125 29.515625 35.203125 25.375 35.203125 20.34375 
C 35.203125 14.90625 35.203125 10.875 33.09375 6.84375 
C 30.90625 2.703125 27.703125 0.390625 23.09375 0.390625 
z
" id="CMR17-54"/>
       </defs>
       <use transform="scale(0.996264)" xlink:href="#CMR17-48"/>
       <use transform="translate(45.690477 0)scale(0.996264)" xlink:href="#CMMI12-58"/>
       <use transform="translate(72.787654 0)scale(0.996264)" xlink:href="#CMR17-54"/>
      </g>
     </g>
    </g>
    <g id="xtick_5">
     <g id="line2d_9">
      <g>
       <use style="stroke:#000000;stroke-width:0.5;" x="350.583425" xlink:href="#mafb750c6c5" y="308.826997"/>
      </g>
     </g>
     <g id="line2d_10">
      <g>
       <use style="stroke:#000000;stroke-width:0.5;" x="350.583425" xlink:href="#m385f217bce" y="23.436997"/>
      </g>
     </g>
     <g id="text_5">
      <!-- $\mathdefault{0.8}$ -->
      <g transform="translate(340.611664 323.396585)scale(0.16 -0.16)">
       <defs>
        <path d="M 27.203125 35.765625 
C 33.5 38.96875 39.90625 43.796875 39.90625 51.53125 
C 39.90625 60.6875 31.09375 66 23 66 
C 13.90625 66 5.90625 59.375 5.90625 50.234375 
C 5.90625 47.71875 6.5 43.390625 10.40625 39.578125 
C 11.40625 38.578125 15.59375 35.5625 18.296875 33.65625 
C 13.796875 31.34375 3.296875 25.8125 3.296875 14.765625 
C 3.296875 4.40625 13.09375 -2 22.796875 -2 
C 33.5 -2 42.5 5.71875 42.5 15.96875 
C 42.5 25.109375 36.40625 29.328125 32.40625 32.046875 
z
M 14.09375 44.609375 
C 13.296875 45.109375 9.296875 48.21875 9.296875 52.9375 
C 9.296875 59.078125 15.59375 63.6875 22.796875 63.6875 
C 30.703125 63.6875 36.5 58.0625 36.5 51.53125 
C 36.5 42.1875 26.09375 36.859375 25.59375 36.859375 
C 25.5 36.859375 25.40625 36.859375 24.59375 37.46875 
z
M 32.5 24 
C 34 22.90625 38.796875 19.578125 38.796875 13.453125 
C 38.796875 6.015625 31.40625 0.390625 23 0.390625 
C 13.90625 0.390625 7 6.921875 7 14.859375 
C 7 22.796875 13.09375 29.4375 20 32.546875 
z
" id="CMR17-56"/>
       </defs>
       <use transform="scale(0.996264)" xlink:href="#CMR17-48"/>
       <use transform="translate(45.690477 0)scale(0.996264)" xlink:href="#CMMI12-58"/>
       <use transform="translate(72.787654 0)scale(0.996264)" xlink:href="#CMR17-56"/>
      </g>
     </g>
    </g>
    <g id="xtick_6">
     <g id="line2d_11">
      <g>
       <use style="stroke:#000000;stroke-width:0.5;" x="421.601607" xlink:href="#mafb750c6c5" y="308.826997"/>
      </g>
     </g>
     <g id="line2d_12">
      <g>
       <use style="stroke:#000000;stroke-width:0.5;" x="421.601607" xlink:href="#m385f217bce" y="23.436997"/>
      </g>
     </g>
     <g id="text_6">
      <!-- $\mathdefault{1.0}$ -->
      <g transform="translate(411.629846 323.396585)scale(0.16 -0.16)">
       <defs>
        <path d="M 26.59375 63.796875 
C 26.59375 65.890625 26.5 66 25.09375 66 
C 21.203125 61.359375 15.296875 59.890625 9.703125 59.6875 
C 9.40625 59.6875 8.90625 59.6875 8.796875 59.5 
C 8.703125 59.296875 8.703125 59.09375 8.703125 57 
C 11.796875 57 17 57.59375 21 59.984375 
L 21 7.296875 
C 21 3.796875 20.796875 2.59375 12.203125 2.59375 
L 9.203125 2.59375 
L 9.203125 0 
C 14 0.09375 19 0.1875 23.796875 0.1875 
C 28.59375 0.1875 33.59375 0.09375 38.40625 0 
L 38.40625 2.59375 
L 35.40625 2.59375 
C 26.796875 2.59375 26.59375 3.6875 26.59375 7.296875 
z
" id="CMR17-49"/>
       </defs>
       <use transform="scale(0.996264)" xlink:href="#CMR17-49"/>
       <use transform="translate(45.690477 0)scale(0.996264)" xlink:href="#CMMI12-58"/>
       <use transform="translate(72.787654 0)scale(0.996264)" xlink:href="#CMR17-48"/>
      </g>
     </g>
    </g>
    <g id="xtick_7">
     <g id="line2d_13">
      <defs>
       <path d="M 0 0 
L 0 -1.5 
" id="m611b04df3e" style="stroke:#000000;stroke-width:0.5;"/>
      </defs>
      <g>
       <use style="stroke:#000000;stroke-width:0.5;" x="84.265244" xlink:href="#m611b04df3e" y="308.826997"/>
      </g>
     </g>
     <g id="line2d_14">
      <defs>
       <path d="M 0 0 
L 0 1.5 
" id="m251cd056d2" style="stroke:#000000;stroke-width:0.5;"/>
      </defs>
      <g>
       <use style="stroke:#000000;stroke-width:0.5;" x="84.265244" xlink:href="#m251cd056d2" y="23.436997"/>
      </g>
     </g>
    </g>
    <g id="xtick_8">
     <g id="line2d_15">
      <g>
       <use style="stroke:#000000;stroke-width:0.5;" x="102.019789" xlink:href="#m611b04df3e" y="308.826997"/>
      </g>
     </g>
     <g id="line2d_16">
      <g>
       <use style="stroke:#000000;stroke-width:0.5;" x="102.019789" xlink:href="#m251cd056d2" y="23.436997"/>
      </g>
     </g>
    </g>
    <g id="xtick_9">
     <g id="line2d_17">
      <g>
       <use style="stroke:#000000;stroke-width:0.5;" x="119.774335" xlink:href="#m611b04df3e" y="308.826997"/>
      </g>
     </g>
     <g id="line2d_18">
      <g>
       <use style="stroke:#000000;stroke-width:0.5;" x="119.774335" xlink:href="#m251cd056d2" y="23.436997"/>
      </g>
     </g>
    </g>
    <g id="xtick_10">
     <g id="line2d_19">
      <g>
       <use style="stroke:#000000;stroke-width:0.5;" x="155.283425" xlink:href="#m611b04df3e" y="308.826997"/>
      </g>
     </g>
     <g id="line2d_20">
      <g>
       <use style="stroke:#000000;stroke-width:0.5;" x="155.283425" xlink:href="#m251cd056d2" y="23.436997"/>
      </g>
     </g>
    </g>
    <g id="xtick_11">
     <g id="line2d_21">
      <g>
       <use style="stroke:#000000;stroke-width:0.5;" x="173.037971" xlink:href="#m611b04df3e" y="308.826997"/>
      </g>
     </g>
     <g id="line2d_22">
      <g>
       <use style="stroke:#000000;stroke-width:0.5;" x="173.037971" xlink:href="#m251cd056d2" y="23.436997"/>
      </g>
     </g>
    </g>
    <g id="xtick_12">
     <g id="line2d_23">
      <g>
       <use style="stroke:#000000;stroke-width:0.5;" x="190.792516" xlink:href="#m611b04df3e" y="308.826997"/>
      </g>
     </g>
     <g id="line2d_24">
      <g>
       <use style="stroke:#000000;stroke-width:0.5;" x="190.792516" xlink:href="#m251cd056d2" y="23.436997"/>
      </g>
     </g>
    </g>
    <g id="xtick_13">
     <g id="line2d_25">
      <g>
       <use style="stroke:#000000;stroke-width:0.5;" x="226.301607" xlink:href="#m611b04df3e" y="308.826997"/>
      </g>
     </g>
     <g id="line2d_26">
      <g>
       <use style="stroke:#000000;stroke-width:0.5;" x="226.301607" xlink:href="#m251cd056d2" y="23.436997"/>
      </g>
     </g>
    </g>
    <g id="xtick_14">
     <g id="line2d_27">
      <g>
       <use style="stroke:#000000;stroke-width:0.5;" x="244.056153" xlink:href="#m611b04df3e" y="308.826997"/>
      </g>
     </g>
     <g id="line2d_28">
      <g>
       <use style="stroke:#000000;stroke-width:0.5;" x="244.056153" xlink:href="#m251cd056d2" y="23.436997"/>
      </g>
     </g>
    </g>
    <g id="xtick_15">
     <g id="line2d_29">
      <g>
       <use style="stroke:#000000;stroke-width:0.5;" x="261.810698" xlink:href="#m611b04df3e" y="308.826997"/>
      </g>
     </g>
     <g id="line2d_30">
      <g>
       <use style="stroke:#000000;stroke-width:0.5;" x="261.810698" xlink:href="#m251cd056d2" y="23.436997"/>
      </g>
     </g>
    </g>
    <g id="xtick_16">
     <g id="line2d_31">
      <g>
       <use style="stroke:#000000;stroke-width:0.5;" x="297.319789" xlink:href="#m611b04df3e" y="308.826997"/>
      </g>
     </g>
     <g id="line2d_32">
      <g>
       <use style="stroke:#000000;stroke-width:0.5;" x="297.319789" xlink:href="#m251cd056d2" y="23.436997"/>
      </g>
     </g>
    </g>
    <g id="xtick_17">
     <g id="line2d_33">
      <g>
       <use style="stroke:#000000;stroke-width:0.5;" x="315.074335" xlink:href="#m611b04df3e" y="308.826997"/>
      </g>
     </g>
     <g id="line2d_34">
      <g>
       <use style="stroke:#000000;stroke-width:0.5;" x="315.074335" xlink:href="#m251cd056d2" y="23.436997"/>
      </g>
     </g>
    </g>
    <g id="xtick_18">
     <g id="line2d_35">
      <g>
       <use style="stroke:#000000;stroke-width:0.5;" x="332.82888" xlink:href="#m611b04df3e" y="308.826997"/>
      </g>
     </g>
     <g id="line2d_36">
      <g>
       <use style="stroke:#000000;stroke-width:0.5;" x="332.82888" xlink:href="#m251cd056d2" y="23.436997"/>
      </g>
     </g>
    </g>
    <g id="xtick_19">
     <g id="line2d_37">
      <g>
       <use style="stroke:#000000;stroke-width:0.5;" x="368.337971" xlink:href="#m611b04df3e" y="308.826997"/>
      </g>
     </g>
     <g id="line2d_38">
      <g>
       <use style="stroke:#000000;stroke-width:0.5;" x="368.337971" xlink:href="#m251cd056d2" y="23.436997"/>
      </g>
     </g>
    </g>
    <g id="xtick_20">
     <g id="line2d_39">
      <g>
       <use style="stroke:#000000;stroke-width:0.5;" x="386.092516" xlink:href="#m611b04df3e" y="308.826997"/>
      </g>
     </g>
     <g id="line2d_40">
      <g>
       <use style="stroke:#000000;stroke-width:0.5;" x="386.092516" xlink:href="#m251cd056d2" y="23.436997"/>
      </g>
     </g>
    </g>
    <g id="xtick_21">
     <g id="line2d_41">
      <g>
       <use style="stroke:#000000;stroke-width:0.5;" x="403.847062" xlink:href="#m611b04df3e" y="308.826997"/>
      </g>
     </g>
     <g id="line2d_42">
      <g>
       <use style="stroke:#000000;stroke-width:0.5;" x="403.847062" xlink:href="#m251cd056d2" y="23.436997"/>
      </g>
     </g>
    </g>
    <g id="text_7">
     <!-- $X$ -->
     <g transform="translate(235.960132 344.333058)scale(0.2 -0.2)">
      <defs>
       <path d="M 47.5 40.40625 
L 38.09375 62.203125 
C 39.40625 64.59375 42.40625 64.984375 43.59375 65.09375 
C 44.203125 65.09375 45.296875 65.1875 45.296875 66.890625 
C 45.296875 68 44.40625 68 43.796875 68 
C 42.09375 68 40.09375 67.796875 38.40625 67.796875 
L 32.59375 67.796875 
C 26.5 67.796875 22.09375 68 22 68 
C 21.203125 68 20.203125 68 20.203125 66.09375 
C 20.203125 65.09375 21.09375 65.09375 22.40625 65.09375 
C 28.203125 65.09375 28.59375 64.09375 29.59375 61.703125 
L 41.5 34.046875 
L 19.796875 10.953125 
C 16.203125 7.078125 11.90625 3.296875 4.5 2.890625 
C 3.296875 2.796875 2.5 2.796875 2.5 1 
C 2.5 0.6875 2.59375 0 3.703125 0 
C 5.09375 0 6.59375 0.1875 8 0.1875 
L 12.703125 0.1875 
C 15.90625 0.1875 19.40625 0 22.5 0 
C 23.203125 0 24.40625 0 24.40625 1.796875 
C 24.40625 2.796875 23.703125 2.890625 23.09375 2.890625 
C 21.09375 3.09375 19.796875 4.1875 19.796875 5.78125 
C 19.796875 7.46875 21 8.671875 23.90625 11.65625 
L 32.796875 21.296875 
C 35 23.59375 40.296875 29.359375 42.5 31.546875 
L 53 7.078125 
C 53.09375 6.875 53.5 5.875 53.5 5.78125 
C 53.5 4.875 51.296875 3.09375 48.09375 2.890625 
C 47.5 2.890625 46.40625 2.796875 46.40625 1 
C 46.40625 0 47.40625 0 47.90625 0 
C 49.59375 0 51.59375 0.1875 53.296875 0.1875 
L 64.296875 0.1875 
C 66.09375 0.1875 68 0 69.703125 0 
C 70.40625 0 71.5 0 71.5 1.890625 
C 71.5 2.890625 70.5 2.890625 69.59375 2.890625 
C 63.59375 2.984375 63.40625 3.484375 61.703125 7.171875 
L 48.5 38.015625 
L 61.203125 51.5625 
C 62.203125 52.546875 64.5 55.046875 65.40625 56.03125 
C 69.703125 60.515625 73.703125 64.59375 81.796875 65.09375 
C 82.796875 65.1875 83.796875 65.1875 83.796875 66.890625 
C 83.796875 68 82.90625 68 82.5 68 
C 81.09375 68 79.59375 67.796875 78.203125 67.796875 
L 73.59375 67.796875 
C 70.40625 67.796875 66.90625 68 63.796875 68 
C 63.09375 68 61.90625 68 61.90625 66.1875 
C 61.90625 65.1875 62.59375 65.09375 63.203125 65.09375 
C 64.796875 64.890625 66.5 64.09375 66.5 62.203125 
L 66.40625 62 
C 66.296875 61.3125 66.09375 60.3125 65 59.125 
z
" id="CMMI12-88"/>
      </defs>
      <use transform="scale(0.996264)" xlink:href="#CMMI12-88"/>
     </g>
    </g>
   </g>
   <g id="matplotlib.axis_2">
    <g id="ytick_1">
     <g id="line2d_43">
      <defs>
       <path d="M 0 0 
L 3 0 
" id="m412560c8a5" style="stroke:#000000;stroke-width:0.5;"/>
      </defs>
      <g>
       <use style="stroke:#000000;stroke-width:0.5;" x="48.756153" xlink:href="#m412560c8a5" y="295.854724"/>
      </g>
     </g>
     <g id="line2d_44">
      <defs>
       <path d="M 0 0 
L -3 0 
" id="m959fecb014" style="stroke:#000000;stroke-width:0.5;"/>
      </defs>
      <g>
       <use style="stroke:#000000;stroke-width:0.5;" x="439.356153" xlink:href="#m959fecb014" y="295.854724"/>
      </g>
     </g>
     <g id="text_8">
      <!-- $\mathdefault{0.0}$ -->
      <g transform="translate(25.31263 301.389518)scale(0.16 -0.16)">
       <use transform="scale(0.996264)" xlink:href="#CMR17-48"/>
       <use transform="translate(45.690477 0)scale(0.996264)" xlink:href="#CMMI12-58"/>
       <use transform="translate(72.787654 0)scale(0.996264)" xlink:href="#CMR17-48"/>
      </g>
     </g>
    </g>
    <g id="ytick_2">
     <g id="line2d_45">
      <g>
       <use style="stroke:#000000;stroke-width:0.5;" x="48.756153" xlink:href="#m412560c8a5" y="243.899413"/>
      </g>
     </g>
     <g id="line2d_46">
      <g>
       <use style="stroke:#000000;stroke-width:0.5;" x="439.356153" xlink:href="#m959fecb014" y="243.899413"/>
      </g>
     </g>
     <g id="text_9">
      <!-- $\mathdefault{0.2}$ -->
      <g transform="translate(25.31263 249.434207)scale(0.16 -0.16)">
       <use transform="scale(0.996264)" xlink:href="#CMR17-48"/>
       <use transform="translate(45.690477 0)scale(0.996264)" xlink:href="#CMMI12-58"/>
       <use transform="translate(72.787654 0)scale(0.996264)" xlink:href="#CMR17-50"/>
      </g>
     </g>
    </g>
    <g id="ytick_3">
     <g id="line2d_47">
      <g>
       <use style="stroke:#000000;stroke-width:0.5;" x="48.756153" xlink:href="#m412560c8a5" y="191.944101"/>
      </g>
     </g>
     <g id="line2d_48">
      <g>
       <use style="stroke:#000000;stroke-width:0.5;" x="439.356153" xlink:href="#m959fecb014" y="191.944101"/>
      </g>
     </g>
     <g id="text_10">
      <!-- $\mathdefault{0.4}$ -->
      <g transform="translate(25.31263 197.478895)scale(0.16 -0.16)">
       <use transform="scale(0.996264)" xlink:href="#CMR17-48"/>
       <use transform="translate(45.690477 0)scale(0.996264)" xlink:href="#CMMI12-58"/>
       <use transform="translate(72.787654 0)scale(0.996264)" xlink:href="#CMR17-52"/>
      </g>
     </g>
    </g>
    <g id="ytick_4">
     <g id="line2d_49">
      <g>
       <use style="stroke:#000000;stroke-width:0.5;" x="48.756153" xlink:href="#m412560c8a5" y="139.98879"/>
      </g>
     </g>
     <g id="line2d_50">
      <g>
       <use style="stroke:#000000;stroke-width:0.5;" x="439.356153" xlink:href="#m959fecb014" y="139.98879"/>
      </g>
     </g>
     <g id="text_11">
      <!-- $\mathdefault{0.6}$ -->
      <g transform="translate(25.31263 145.523584)scale(0.16 -0.16)">
       <use transform="scale(0.996264)" xlink:href="#CMR17-48"/>
       <use transform="translate(45.690477 0)scale(0.996264)" xlink:href="#CMMI12-58"/>
       <use transform="translate(72.787654 0)scale(0.996264)" xlink:href="#CMR17-54"/>
      </g>
     </g>
    </g>
    <g id="ytick_5">
     <g id="line2d_51">
      <g>
       <use style="stroke:#000000;stroke-width:0.5;" x="48.756153" xlink:href="#m412560c8a5" y="88.033478"/>
      </g>
     </g>
     <g id="line2d_52">
      <g>
       <use style="stroke:#000000;stroke-width:0.5;" x="439.356153" xlink:href="#m959fecb014" y="88.033478"/>
      </g>
     </g>
     <g id="text_12">
      <!-- $\mathdefault{0.8}$ -->
      <g transform="translate(25.31263 93.568272)scale(0.16 -0.16)">
       <use transform="scale(0.996264)" xlink:href="#CMR17-48"/>
       <use transform="translate(45.690477 0)scale(0.996264)" xlink:href="#CMMI12-58"/>
       <use transform="translate(72.787654 0)scale(0.996264)" xlink:href="#CMR17-56"/>
      </g>
     </g>
    </g>
    <g id="ytick_6">
     <g id="line2d_53">
      <g>
       <use style="stroke:#000000;stroke-width:0.5;" x="48.756153" xlink:href="#m412560c8a5" y="36.078167"/>
      </g>
     </g>
     <g id="line2d_54">
      <g>
       <use style="stroke:#000000;stroke-width:0.5;" x="439.356153" xlink:href="#m959fecb014" y="36.078167"/>
      </g>
     </g>
     <g id="text_13">
      <!-- $\mathdefault{1.0}$ -->
      <g transform="translate(25.31263 41.612961)scale(0.16 -0.16)">
       <use transform="scale(0.996264)" xlink:href="#CMR17-49"/>
       <use transform="translate(45.690477 0)scale(0.996264)" xlink:href="#CMMI12-58"/>
       <use transform="translate(72.787654 0)scale(0.996264)" xlink:href="#CMR17-48"/>
      </g>
     </g>
    </g>
    <g id="ytick_7">
     <g id="line2d_55">
      <defs>
       <path d="M 0 0 
L 1.5 0 
" id="m68742ce0cd" style="stroke:#000000;stroke-width:0.5;"/>
      </defs>
      <g>
       <use style="stroke:#000000;stroke-width:0.5;" x="48.756153" xlink:href="#m68742ce0cd" y="282.865896"/>
      </g>
     </g>
     <g id="line2d_56">
      <defs>
       <path d="M 0 0 
L -1.5 0 
" id="m14cb86f818" style="stroke:#000000;stroke-width:0.5;"/>
      </defs>
      <g>
       <use style="stroke:#000000;stroke-width:0.5;" x="439.356153" xlink:href="#m14cb86f818" y="282.865896"/>
      </g>
     </g>
    </g>
    <g id="ytick_8">
     <g id="line2d_57">
      <g>
       <use style="stroke:#000000;stroke-width:0.5;" x="48.756153" xlink:href="#m68742ce0cd" y="269.877068"/>
      </g>
     </g>
     <g id="line2d_58">
      <g>
       <use style="stroke:#000000;stroke-width:0.5;" x="439.356153" xlink:href="#m14cb86f818" y="269.877068"/>
      </g>
     </g>
    </g>
    <g id="ytick_9">
     <g id="line2d_59">
      <g>
       <use style="stroke:#000000;stroke-width:0.5;" x="48.756153" xlink:href="#m68742ce0cd" y="256.88824"/>
      </g>
     </g>
     <g id="line2d_60">
      <g>
       <use style="stroke:#000000;stroke-width:0.5;" x="439.356153" xlink:href="#m14cb86f818" y="256.88824"/>
      </g>
     </g>
    </g>
    <g id="ytick_10">
     <g id="line2d_61">
      <g>
       <use style="stroke:#000000;stroke-width:0.5;" x="48.756153" xlink:href="#m68742ce0cd" y="230.910585"/>
      </g>
     </g>
     <g id="line2d_62">
      <g>
       <use style="stroke:#000000;stroke-width:0.5;" x="439.356153" xlink:href="#m14cb86f818" y="230.910585"/>
      </g>
     </g>
    </g>
    <g id="ytick_11">
     <g id="line2d_63">
      <g>
       <use style="stroke:#000000;stroke-width:0.5;" x="48.756153" xlink:href="#m68742ce0cd" y="217.921757"/>
      </g>
     </g>
     <g id="line2d_64">
      <g>
       <use style="stroke:#000000;stroke-width:0.5;" x="439.356153" xlink:href="#m14cb86f818" y="217.921757"/>
      </g>
     </g>
    </g>
    <g id="ytick_12">
     <g id="line2d_65">
      <g>
       <use style="stroke:#000000;stroke-width:0.5;" x="48.756153" xlink:href="#m68742ce0cd" y="204.932929"/>
      </g>
     </g>
     <g id="line2d_66">
      <g>
       <use style="stroke:#000000;stroke-width:0.5;" x="439.356153" xlink:href="#m14cb86f818" y="204.932929"/>
      </g>
     </g>
    </g>
    <g id="ytick_13">
     <g id="line2d_67">
      <g>
       <use style="stroke:#000000;stroke-width:0.5;" x="48.756153" xlink:href="#m68742ce0cd" y="178.955273"/>
      </g>
     </g>
     <g id="line2d_68">
      <g>
       <use style="stroke:#000000;stroke-width:0.5;" x="439.356153" xlink:href="#m14cb86f818" y="178.955273"/>
      </g>
     </g>
    </g>
    <g id="ytick_14">
     <g id="line2d_69">
      <g>
       <use style="stroke:#000000;stroke-width:0.5;" x="48.756153" xlink:href="#m68742ce0cd" y="165.966445"/>
      </g>
     </g>
     <g id="line2d_70">
      <g>
       <use style="stroke:#000000;stroke-width:0.5;" x="439.356153" xlink:href="#m14cb86f818" y="165.966445"/>
      </g>
     </g>
    </g>
    <g id="ytick_15">
     <g id="line2d_71">
      <g>
       <use style="stroke:#000000;stroke-width:0.5;" x="48.756153" xlink:href="#m68742ce0cd" y="152.977618"/>
      </g>
     </g>
     <g id="line2d_72">
      <g>
       <use style="stroke:#000000;stroke-width:0.5;" x="439.356153" xlink:href="#m14cb86f818" y="152.977618"/>
      </g>
     </g>
    </g>
    <g id="ytick_16">
     <g id="line2d_73">
      <g>
       <use style="stroke:#000000;stroke-width:0.5;" x="48.756153" xlink:href="#m68742ce0cd" y="126.999962"/>
      </g>
     </g>
     <g id="line2d_74">
      <g>
       <use style="stroke:#000000;stroke-width:0.5;" x="439.356153" xlink:href="#m14cb86f818" y="126.999962"/>
      </g>
     </g>
    </g>
    <g id="ytick_17">
     <g id="line2d_75">
      <g>
       <use style="stroke:#000000;stroke-width:0.5;" x="48.756153" xlink:href="#m68742ce0cd" y="114.011134"/>
      </g>
     </g>
     <g id="line2d_76">
      <g>
       <use style="stroke:#000000;stroke-width:0.5;" x="439.356153" xlink:href="#m14cb86f818" y="114.011134"/>
      </g>
     </g>
    </g>
    <g id="ytick_18">
     <g id="line2d_77">
      <g>
       <use style="stroke:#000000;stroke-width:0.5;" x="48.756153" xlink:href="#m68742ce0cd" y="101.022306"/>
      </g>
     </g>
     <g id="line2d_78">
      <g>
       <use style="stroke:#000000;stroke-width:0.5;" x="439.356153" xlink:href="#m14cb86f818" y="101.022306"/>
      </g>
     </g>
    </g>
    <g id="ytick_19">
     <g id="line2d_79">
      <g>
       <use style="stroke:#000000;stroke-width:0.5;" x="48.756153" xlink:href="#m68742ce0cd" y="75.04465"/>
      </g>
     </g>
     <g id="line2d_80">
      <g>
       <use style="stroke:#000000;stroke-width:0.5;" x="439.356153" xlink:href="#m14cb86f818" y="75.04465"/>
      </g>
     </g>
    </g>
    <g id="ytick_20">
     <g id="line2d_81">
      <g>
       <use style="stroke:#000000;stroke-width:0.5;" x="48.756153" xlink:href="#m68742ce0cd" y="62.055823"/>
      </g>
     </g>
     <g id="line2d_82">
      <g>
       <use style="stroke:#000000;stroke-width:0.5;" x="439.356153" xlink:href="#m14cb86f818" y="62.055823"/>
      </g>
     </g>
    </g>
    <g id="ytick_21">
     <g id="line2d_83">
      <g>
       <use style="stroke:#000000;stroke-width:0.5;" x="48.756153" xlink:href="#m68742ce0cd" y="49.066995"/>
      </g>
     </g>
     <g id="line2d_84">
      <g>
       <use style="stroke:#000000;stroke-width:0.5;" x="439.356153" xlink:href="#m14cb86f818" y="49.066995"/>
      </g>
     </g>
    </g>
    <g id="text_14">
     <!-- Weighting -->
     <g transform="translate(17.436997 206.468695)rotate(-90)scale(0.2 -0.2)">
      <defs>
       <path d="M 86.296875 58.984375 
C 87.203125 61.6875 88.703125 65.203125 94.5 65.390625 
L 94.5 68 
C 92.796875 67.890625 89.296875 67.796875 87.5 67.796875 
C 85 67.796875 80.59375 67.796875 78.203125 68 
L 78.203125 65.390625 
C 82.703125 65.296875 84.59375 62.796875 84.59375 60.390625 
C 84.59375 59.6875 84.5 59.28125 84.09375 58.1875 
L 68.59375 8.703125 
L 52.296875 60.78125 
C 52 61.796875 51.90625 62.1875 51.90625 62.59375 
C 51.90625 65.390625 56.296875 65.390625 58.203125 65.390625 
L 58.203125 68 
C 55.296875 67.796875 50.296875 67.796875 47.203125 67.796875 
C 44.703125 67.796875 40.203125 67.796875 37.90625 68 
L 37.90625 65.390625 
C 42.5 65.390625 43.703125 65.09375 44.703125 63.296875 
C 45.09375 62.390625 46.703125 57.1875 46.703125 56.875 
C 46.703125 56.484375 46.5 55.875 46.40625 55.578125 
L 31.703125 8.8125 
L 15.40625 60.78125 
C 14.90625 62.1875 14.90625 62.390625 14.90625 62.59375 
C 14.90625 65.390625 19.296875 65.390625 21.296875 65.390625 
L 21.296875 68 
C 18.40625 67.796875 13.40625 67.796875 10.296875 67.796875 
C 7.703125 67.796875 3.296875 67.796875 0.90625 68 
L 0.90625 65.390625 
C 6.90625 65.390625 7.296875 64.796875 8.296875 61.59375 
L 27.796875 -0.3125 
C 28.296875 -1.8125 28.296875 -2 29.203125 -2 
C 30 -2 30.296875 -1.8125 30.703125 -0.40625 
L 47.703125 53.875 
L 64.703125 -0.40625 
C 65.09375 -1.8125 65.40625 -2 66.203125 -2 
C 67.09375 -2 67.09375 -1.8125 67.59375 -0.3125 
z
" id="CMR17-87"/>
       <path d="M 38.09375 23.484375 
C 38.5 23.890625 38.5 24.09375 38.5 25.09375 
C 38.5 35.171875 33.09375 44 21.703125 44 
C 11.09375 44 2.703125 33.984375 2.703125 21.78125 
C 2.703125 8.65625 12.203125 -1 22.796875 -1 
C 34 -1 38.40625 9.671875 38.40625 11.796875 
C 38.40625 12.5 37.796875 12.5 37.59375 12.5 
C 36.90625 12.5 36.796875 12.296875 36.40625 11.078125 
C 34.203125 4.21875 28.703125 0.796875 23.5 0.796875 
C 19.203125 0.796875 14.90625 3.21875 12.203125 7.65625 
C 9.09375 12.796875 9.09375 18.75 9.09375 23.484375 
z
M 9.203125 25 
C 9.90625 39.234375 17.59375 42.390625 21.59375 42.390625 
C 28.40625 42.390625 33 36.0625 33.09375 25 
z
" id="CMR17-101"/>
       <path d="M 15.5 61.890625 
C 15.5 64.09375 13.703125 66 11.40625 66 
C 9.203125 66 7.296875 64.1875 7.296875 61.890625 
C 7.296875 59.6875 9.09375 57.796875 11.40625 57.796875 
C 13.59375 57.796875 15.5 59.59375 15.5 61.890625 
z
M 3.796875 42.890625 
L 3.796875 40.296875 
C 9.40625 40.296875 10.203125 39.6875 10.203125 34.859375 
L 10.203125 6.921875 
C 10.203125 3.09375 9.796875 2.59375 3.40625 2.59375 
L 3.40625 0 
C 5.796875 0.1875 10.09375 0.1875 12.59375 0.1875 
C 15 0.1875 19.09375 0.1875 21.40625 0 
L 21.40625 2.59375 
C 15.5 2.59375 15.296875 3.203125 15.296875 6.8125 
L 15.296875 44 
z
" id="CMR17-105"/>
       <path d="M 11.09375 18.203125 
C 13 16.6875 16.296875 15 20.296875 15 
C 28.203125 15 35 21.234375 35 29.609375 
C 35 32.234375 34.203125 36.265625 31.203125 39.390625 
C 34 42.390625 38.09375 43.390625 40.40625 43.390625 
C 40.796875 43.390625 41.40625 43.390625 41.90625 43.09375 
C 41.5 42.984375 40.59375 42.59375 40.59375 40.984375 
C 40.59375 39.6875 41.5 38.796875 42.796875 38.796875 
C 44.296875 38.796875 45.09375 39.796875 45.09375 41.09375 
C 45.09375 42.984375 43.59375 45 40.40625 45 
C 36.40625 45 32.90625 43.09375 30.09375 40.484375 
C 27.09375 43.1875 23.5 44.1875 20.296875 44.1875 
C 12.40625 44.1875 5.59375 37.984375 5.59375 29.609375 
C 5.59375 23.859375 8.90625 20.21875 9.90625 19.21875 
C 6.90625 15.6875 6.90625 11.59375 6.90625 11.09375 
C 6.90625 8.5 7.90625 4.6875 11.296875 2.59375 
C 6.09375 1.28125 2 -2.875 2 -8.078125 
C 2 -15.5625 11.5 -21 22.90625 -21 
C 33.90625 -21 43.796875 -15.765625 43.796875 -7.96875 
C 43.796875 6 29 6 21.296875 6 
C 19 6 14.90625 6 14.40625 6.09375 
C 11.296875 6.59375 9.203125 9.390625 9.203125 12.890625 
C 9.203125 13.796875 9.203125 16 11.09375 18.203125 
z
M 20.296875 16.6875 
C 11.5 16.6875 11.5 27.59375 11.5 29.609375 
C 11.5 31.625 11.5 42.484375 20.296875 42.484375 
C 29.09375 42.484375 29.09375 31.625 29.09375 29.609375 
C 29.09375 27.59375 29.09375 16.6875 20.296875 16.6875 
z
M 22.90625 -19.3125 
C 12.90625 -19.3125 6 -13.796875 6 -8.078125 
C 6 -4.859375 7.703125 -1.84375 9.90625 -0.171875 
C 12.40625 1.59375 13.40625 1.59375 20.203125 1.59375 
C 28.40625 1.59375 39.796875 1.59375 39.796875 -8.078125 
C 39.796875 -13.796875 32.90625 -19.3125 22.90625 -19.3125 
z
" id="CMR17-103"/>
       <path d="M 41.5 30.53125 
C 41.5 35.65625 40.5 44 28.703125 44 
C 20.5 44 16.5 37.375 15.296875 34.046875 
L 15.203125 34.046875 
L 15.203125 69 
L 3.296875 67.890625 
L 3.296875 65.296875 
C 9.203125 65.296875 10.09375 64.703125 10.09375 60.046875 
L 10.09375 6.921875 
C 10.09375 3.09375 9.703125 2.59375 3.296875 2.59375 
L 3.296875 0 
C 5.703125 0.1875 10.09375 0.1875 12.703125 0.1875 
C 15.296875 0.1875 19.796875 0.1875 22.203125 0 
L 22.203125 2.59375 
C 15.796875 2.59375 15.40625 3 15.40625 6.921875 
L 15.40625 26.21875 
C 15.40625 35.453125 21 42.390625 28 42.390625 
C 35.40625 42.390625 36.203125 35.765625 36.203125 30.9375 
L 36.203125 6.921875 
C 36.203125 3.09375 35.796875 2.59375 29.40625 2.59375 
L 29.40625 0 
C 31.796875 0.1875 36.203125 0.1875 38.796875 0.1875 
C 41.40625 0.1875 45.90625 0.1875 48.296875 0 
L 48.296875 2.59375 
C 41.90625 2.59375 41.5 3 41.5 6.921875 
z
" id="CMR17-104"/>
       <path d="M 15.09375 40.390625 
L 29.09375 40.390625 
L 29.09375 43 
L 15.09375 43 
L 15.09375 62 
L 13.296875 62 
C 13.09375 51.4375 9.59375 42.1875 1.09375 41.984375 
L 1.09375 40.390625 
L 9.796875 40.390625 
L 9.796875 12.15625 
C 9.796875 10.234375 9.796875 -1 21.40625 -1 
C 27.296875 -1 30.703125 4.8125 30.703125 12.25 
L 30.703125 17.984375 
L 28.90625 17.984375 
L 28.90625 12.34375 
C 28.90625 5.421875 26.203125 0.796875 22 0.796875 
C 19.09375 0.796875 15.09375 2.796875 15.09375 11.953125 
z
" id="CMR17-116"/>
       <path d="M 41.5 30.53125 
C 41.5 35.65625 40.5 44 28.703125 44 
C 20.796875 44 16.703125 37.875 15.203125 33.84375 
L 15.09375 33.84375 
L 15.09375 44 
L 3.296875 42.890625 
L 3.296875 40.28125 
C 9.203125 40.28125 10.09375 39.6875 10.09375 34.859375 
L 10.09375 6.921875 
C 10.09375 3.09375 9.703125 2.59375 3.296875 2.59375 
L 3.296875 0 
C 5.703125 0.1875 10.09375 0.1875 12.703125 0.1875 
C 15.296875 0.1875 19.796875 0.1875 22.203125 0 
L 22.203125 2.59375 
C 15.796875 2.59375 15.40625 3 15.40625 6.921875 
L 15.40625 26.21875 
C 15.40625 35.453125 21 42.390625 28 42.390625 
C 35.40625 42.390625 36.203125 35.765625 36.203125 30.9375 
L 36.203125 6.921875 
C 36.203125 3.09375 35.796875 2.59375 29.40625 2.59375 
L 29.40625 0 
C 31.796875 0.1875 36.203125 0.1875 38.796875 0.1875 
C 41.40625 0.1875 45.90625 0.1875 48.296875 0 
L 48.296875 2.59375 
C 41.90625 2.59375 41.5 3 41.5 6.921875 
z
" id="CMR17-110"/>
      </defs>
      <use transform="scale(0.996264)" xlink:href="#CMR17-87"/>
      <use transform="translate(87.289395 0)scale(0.996264)" xlink:href="#CMR17-101"/>
      <use transform="translate(127.775055 0)scale(0.996264)" xlink:href="#CMR17-105"/>
      <use transform="translate(152.646113 0)scale(0.996264)" xlink:href="#CMR17-103"/>
      <use transform="translate(198.336591 0)scale(0.996264)" xlink:href="#CMR17-104"/>
      <use transform="translate(246.629506 0)scale(0.996264)" xlink:href="#CMR17-116"/>
      <use transform="translate(281.910274 0)scale(0.996264)" xlink:href="#CMR17-105"/>
      <use transform="translate(306.781333 0)scale(0.996264)" xlink:href="#CMR17-110"/>
      <use transform="translate(357.676702 0)scale(0.996264)" xlink:href="#CMR17-103"/>
     </g>
    </g>
   </g>
   <g id="line2d_85">
    <path clip-path="url(#pd2ec4ca491)" d="M 66.510698 295.854724 
L 70.097475 295.854724 
L 73.684252 295.854724 
L 77.271029 295.854724 
L 80.857806 295.854724 
L 84.444582 295.854724 
L 88.031359 295.854724 
L 91.618136 295.854724 
L 95.204913 295.854724 
L 98.79169 295.854724 
L 102.378467 295.854724 
L 105.965244 295.854724 
L 109.55202 295.854724 
L 113.138797 295.854724 
L 116.725574 295.854724 
L 120.312351 295.854724 
L 123.899128 295.854724 
L 127.485905 295.854724 
L 131.072682 295.854724 
L 134.659458 295.854724 
L 138.246235 295.854724 
L 141.833012 295.854724 
L 145.419789 295.854724 
L 149.006566 295.854724 
L 152.593343 295.854724 
L 156.18012 295.854724 
L 159.766897 295.854724 
L 163.353673 295.854724 
L 166.94045 295.854724 
L 170.527227 295.854724 
L 174.114004 295.854724 
L 177.700781 295.854724 
L 181.287558 295.854724 
L 184.874335 295.854724 
L 188.461111 295.854724 
L 192.047888 295.854724 
L 195.634665 295.854724 
L 199.221442 295.854724 
L 202.808219 295.854724 
L 206.394996 295.854724 
L 209.981773 295.854724 
L 213.568549 295.854724 
L 217.155326 295.854724 
L 220.742103 295.854724 
L 224.32888 295.854672 
L 227.915657 295.84625 
L 231.502434 295.352917 
L 235.089211 285.142648 
L 238.675987 213.422221 
L 242.262764 67.183822 
L 245.849541 67.183822 
L 249.436318 213.422221 
L 253.023095 285.142648 
L 256.609872 295.352917 
L 260.196649 295.84625 
L 263.783425 295.854672 
L 267.370202 295.854724 
L 270.956979 295.854724 
L 274.543756 295.854724 
L 278.130533 295.854724 
L 281.71731 295.854724 
L 285.304087 295.854724 
L 288.890863 295.854724 
L 292.47764 295.854724 
L 296.064417 295.854724 
L 299.651194 295.854724 
L 303.237971 295.854724 
L 306.824748 295.854724 
L 310.411525 295.854724 
L 313.998301 295.854724 
L 317.585078 295.854724 
L 321.171855 295.854724 
L 324.758632 295.854724 
L 328.345409 295.854724 
L 331.932186 295.854724 
L 335.518963 295.854724 
L 339.105739 295.854724 
L 342.692516 295.854724 
L 346.279293 295.854724 
L 349.86607 295.854724 
L 353.452847 295.854724 
L 357.039624 295.854724 
L 360.626401 295.854724 
L 364.213178 295.854724 
L 367.799954 295.854724 
L 371.386731 295.854724 
L 374.973508 295.854724 
L 378.560285 295.854724 
L 382.147062 295.854724 
L 385.733839 295.854724 
L 389.320616 295.854724 
L 392.907392 295.854724 
L 396.494169 295.854724 
L 400.080946 295.854724 
L 403.667723 295.854724 
L 407.2545 295.854724 
L 410.841277 295.854724 
L 414.428054 295.854724 
L 418.01483 295.854724 
L 421.601607 295.854724 
" style="fill:none;stroke:#0c5da5;stroke-linecap:square;"/>
   </g>
   <g id="line2d_86">
    <path clip-path="url(#pd2ec4ca491)" d="M 66.510698 295.854724 
L 70.097475 295.854724 
L 73.684252 295.854724 
L 77.271029 295.854724 
L 80.857806 295.854724 
L 84.444582 295.854724 
L 88.031359 295.854724 
L 91.618136 295.854724 
L 95.204913 295.854724 
L 98.79169 295.854724 
L 102.378467 295.854724 
L 105.965244 295.854724 
L 109.55202 295.854724 
L 113.138797 295.854724 
L 116.725574 295.854724 
L 120.312351 295.854724 
L 123.899128 295.854724 
L 127.485905 295.854724 
L 131.072682 295.854724 
L 134.659458 295.854723 
L 138.246235 295.854719 
L 141.833012 295.854708 
L 145.419789 295.854672 
L 149.006566 295.854569 
L 152.593343 295.854275 
L 156.18012 295.853479 
L 159.766897 295.851409 
L 163.353673 295.84625 
L 166.94045 295.833926 
L 170.527227 295.805719 
L 174.114004 295.743875 
L 177.700781 295.614013 
L 181.287558 295.352917 
L 184.874335 294.850449 
L 188.461111 293.925224 
L 192.047888 292.295853 
L 195.634665 289.553061 
L 199.221442 285.142648 
L 202.808219 278.37367 
L 206.394996 268.46819 
L 209.981773 254.665649 
L 213.568549 236.384098 
L 217.155326 213.422221 
L 220.742103 186.163985 
L 224.32888 155.729299 
L 227.915657 124.008724 
L 231.502434 93.535377 
L 235.089211 67.183822 
L 238.675987 47.735795 
L 242.262764 37.400048 
L 245.849541 37.400048 
L 249.436318 47.735795 
L 253.023095 67.183822 
L 256.609872 93.535377 
L 260.196649 124.008724 
L 263.783425 155.729299 
L 267.370202 186.163985 
L 270.956979 213.422221 
L 274.543756 236.384098 
L 278.130533 254.665649 
L 281.71731 268.46819 
L 285.304087 278.37367 
L 288.890863 285.142648 
L 292.47764 289.553061 
L 296.064417 292.295853 
L 299.651194 293.925224 
L 303.237971 294.850449 
L 306.824748 295.352917 
L 310.411525 295.614013 
L 313.998301 295.743875 
L 317.585078 295.805719 
L 321.171855 295.833926 
L 324.758632 295.84625 
L 328.345409 295.851409 
L 331.932186 295.853479 
L 335.518963 295.854275 
L 339.105739 295.854569 
L 342.692516 295.854672 
L 346.279293 295.854708 
L 349.86607 295.854719 
L 353.452847 295.854723 
L 357.039624 295.854724 
L 360.626401 295.854724 
L 364.213178 295.854724 
L 367.799954 295.854724 
L 371.386731 295.854724 
L 374.973508 295.854724 
L 378.560285 295.854724 
L 382.147062 295.854724 
L 385.733839 295.854724 
L 389.320616 295.854724 
L 392.907392 295.854724 
L 396.494169 295.854724 
L 400.080946 295.854724 
L 403.667723 295.854724 
L 407.2545 295.854724 
L 410.841277 295.854724 
L 414.428054 295.854724 
L 418.01483 295.854724 
L 421.601607 295.854724 
" style="fill:none;stroke:#00b945;stroke-linecap:square;"/>
   </g>
   <g id="line2d_87">
    <path clip-path="url(#pd2ec4ca491)" d="M 66.510698 295.853756 
L 70.097475 295.853128 
L 73.684252 295.852119 
L 77.271029 295.850517 
L 80.857806 295.847997 
L 84.444582 295.844077 
L 88.031359 295.838044 
L 91.618136 295.828857 
L 95.204913 295.815019 
L 98.79169 295.794395 
L 102.378467 295.76399 
L 105.965244 295.719647 
L 109.55202 295.655672 
L 113.138797 295.564377 
L 116.725574 295.435508 
L 120.312351 295.255586 
L 123.899128 295.007135 
L 127.485905 294.667829 
L 131.072682 294.209563 
L 134.659458 293.597507 
L 138.246235 292.789184 
L 141.833012 291.733657 
L 145.419789 290.37093 
L 149.006566 288.63166 
L 152.593343 286.437331 
L 156.18012 283.701016 
L 159.766897 280.32886 
L 163.353673 276.222403 
L 166.94045 271.281826 
L 170.527227 265.410144 
L 174.114004 258.518322 
L 177.700781 250.531183 
L 181.287558 241.393918 
L 184.874335 231.078866 
L 188.461111 219.592202 
L 192.047888 206.980049 
L 195.634665 193.333504 
L 199.221442 178.792066 
L 202.808219 163.544968 
L 206.394996 147.830008 
L 209.981773 131.929616 
L 213.568549 116.164026 
L 217.155326 100.881672 
L 220.742103 86.447115 
L 224.32888 73.227022 
L 227.915657 61.574935 
L 231.502434 51.815677 
L 235.089211 44.230358 
L 238.675987 39.042943 
L 242.262764 36.409269 
L 245.849541 36.409269 
L 249.436318 39.042943 
L 253.023095 44.230358 
L 256.609872 51.815677 
L 260.196649 61.574935 
L 263.783425 73.227022 
L 267.370202 86.447115 
L 270.956979 100.881672 
L 274.543756 116.164026 
L 278.130533 131.929616 
L 281.71731 147.830008 
L 285.304087 163.544968 
L 288.890863 178.792066 
L 292.47764 193.333504 
L 296.064417 206.980049 
L 299.651194 219.592202 
L 303.237971 231.078866 
L 306.824748 241.393918 
L 310.411525 250.531183 
L 313.998301 258.518322 
L 317.585078 265.410144 
L 321.171855 271.281826 
L 324.758632 276.222403 
L 328.345409 280.32886 
L 331.932186 283.701016 
L 335.518963 286.437331 
L 339.105739 288.63166 
L 342.692516 290.37093 
L 346.279293 291.733657 
L 349.86607 292.789184 
L 353.452847 293.597507 
L 357.039624 294.209563 
L 360.626401 294.667829 
L 364.213178 295.007135 
L 367.799954 295.255586 
L 371.386731 295.435508 
L 374.973508 295.564377 
L 378.560285 295.655672 
L 382.147062 295.719647 
L 385.733839 295.76399 
L 389.320616 295.794395 
L 392.907392 295.815019 
L 396.494169 295.828857 
L 400.080946 295.838044 
L 403.667723 295.844077 
L 407.2545 295.847997 
L 410.841277 295.850517 
L 414.428054 295.852119 
L 418.01483 295.853128 
L 421.601607 295.853756 
" style="fill:none;stroke:#ff9500;stroke-linecap:square;"/>
   </g>
   <g id="patch_3">
    <path d="M 48.756153 308.826997 
L 48.756153 23.436997 
" style="fill:none;stroke:#000000;stroke-linecap:square;stroke-linejoin:miter;stroke-width:0.5;"/>
   </g>
   <g id="patch_4">
    <path d="M 439.356153 308.826997 
L 439.356153 23.436997 
" style="fill:none;stroke:#000000;stroke-linecap:square;stroke-linejoin:miter;stroke-width:0.5;"/>
   </g>
   <g id="patch_5">
    <path d="M 48.756153 308.826997 
L 439.356153 308.826997 
" style="fill:none;stroke:#000000;stroke-linecap:square;stroke-linejoin:miter;stroke-width:0.5;"/>
   </g>
   <g id="patch_6">
    <path d="M 48.756153 23.436997 
L 439.356153 23.436997 
" style="fill:none;stroke:#000000;stroke-linecap:square;stroke-linejoin:miter;stroke-width:0.5;"/>
   </g>
   <g id="text_15">
    <!-- $x_0 = 0.5$ -->
    <g transform="translate(210.295419 17.436997)scale(0.2 -0.2)">
     <defs>
      <path d="M 47.40625 41 
C 44.203125 40.390625 43 37.984375 43 36.09375 
C 43 33.6875 44.90625 32.890625 46.296875 32.890625 
C 49.296875 32.890625 51.40625 35.484375 51.40625 38.1875 
C 51.40625 42.09375 46.59375 44 42.40625 44 
C 36.296875 44 32.90625 38.296875 32 36.390625 
C 29.703125 43.59375 23.5 44 21.703125 44 
C 11.5 44 6.09375 31.140625 6.09375 28.890625 
C 6.09375 28.484375 6.5 27.96875 7.203125 27.96875 
C 8 27.96875 8.203125 28.578125 8.40625 28.984375 
C 11.796875 40.1875 18.5 41.984375 21.40625 41.984375 
C 25.90625 41.984375 26.796875 38.09375 26.796875 35.6875 
C 26.796875 33.484375 26.203125 31.140625 25 26.21875 
L 21.59375 12.15625 
C 20.09375 6.09375 17.203125 1 11.90625 1 
C 11.40625 1 8.90625 1 6.796875 1.96875 
C 10.40625 2.59375 11.203125 5.59375 11.203125 6.796875 
C 11.203125 8.796875 9.703125 10 7.796875 10 
C 5.40625 10 2.796875 7.890625 2.796875 4.6875 
C 2.796875 0.890625 7.5 -1 11.796875 -1 
C 16.59375 -1 20 2.390625 22.09375 6.484375 
C 23.703125 1 28.703125 -1 32.40625 -1 
C 42.59375 -1 48 11.734375 48 14 
C 48 14.515625 47.59375 14.921875 47 14.921875 
C 46.09375 14.921875 46 14.40625 45.703125 13.59375 
C 43 4.6875 37.203125 1 32.703125 1 
C 29.203125 1 27.296875 3.1875 27.296875 7.296875 
C 27.296875 9.484375 27.703125 11.125 29.296875 17.90625 
L 32.796875 31.859375 
C 34.296875 37.890625 37.703125 41.984375 42.296875 41.984375 
C 42.5 41.984375 45.296875 41.984375 47.40625 41 
z
" id="CMMI12-120"/>
      <path d="M 64.296875 32 
C 65.796875 32 67.296875 32 67.296875 33.6875 
C 67.296875 35.5 65.59375 35.5 63.90625 35.5 
L 8 35.5 
C 6.296875 35.5 4.59375 35.5 4.59375 33.6875 
C 4.59375 32 6.09375 32 7.59375 32 
z
M 63.90625 14.484375 
C 65.59375 14.484375 67.296875 14.484375 67.296875 16.296875 
C 67.296875 18 65.796875 18 64.296875 18 
L 7.59375 18 
C 6.09375 18 4.59375 18 4.59375 16.296875 
C 4.59375 14.484375 6.296875 14.484375 8 14.484375 
z
" id="CMR17-61"/>
      <path d="M 11.40625 58.59375 
C 12.40625 58.1875 16.5 56.890625 20.703125 56.890625 
C 30 56.890625 35.09375 61.890625 38 64.6875 
C 38 65.484375 38 66 37.40625 66 
C 37.296875 66 37.09375 66 36.296875 65.59375 
C 32.796875 64.09375 28.703125 63 23.703125 63 
C 20.703125 63 16.203125 63.359375 11.296875 65.484375 
C 10.203125 66 10 66 9.90625 66 
C 9.40625 66 9.296875 65.890625 9.296875 63.90625 
L 9.296875 34.859375 
C 9.296875 33.015625 9.296875 32.5 10.296875 32.5 
C 10.796875 32.5 11 32.703125 11.5 33.421875 
C 14.703125 38.046875 19.09375 40 24.09375 40 
C 27.59375 40 35.09375 37.734375 35.09375 20.203125 
C 35.09375 16.984375 35.09375 11.1875 32.09375 6.59375 
C 29.59375 2.484375 25.703125 0.390625 21.40625 0.390625 
C 14.796875 0.390625 8.09375 4.984375 6.296875 12.6875 
C 6.703125 12.59375 7.5 12.390625 7.90625 12.390625 
C 9.203125 12.390625 11.703125 13.09375 11.703125 16.1875 
C 11.703125 18.890625 9.796875 20 7.90625 20 
C 5.59375 20 4.09375 18.59375 4.09375 15.796875 
C 4.09375 7.09375 11 -2 21.59375 -2 
C 31.90625 -2 41.703125 6.890625 41.703125 19.796875 
C 41.703125 32.09375 33.90625 41.59375 24.203125 41.59375 
C 19.09375 41.59375 14.796875 39.6875 11.40625 36 
z
" id="CMR17-53"/>
     </defs>
     <use transform="scale(0.996264)" xlink:href="#CMMI12-120"/>
     <use transform="translate(55.43406 -14.943915)scale(0.697382)" xlink:href="#CMR17-48"/>
     <use transform="translate(115.589382 0)scale(0.996264)" xlink:href="#CMR17-61"/>
     <use transform="translate(214.978179 0)scale(0.996264)" xlink:href="#CMR17-48"/>
     <use transform="translate(260.668656 0)scale(0.996264)" xlink:href="#CMMI12-58"/>
     <use transform="translate(287.765834 0)scale(0.996264)" xlink:href="#CMR17-53"/>
    </g>
   </g>
   <g id="legend_1">
    <g id="line2d_88">
     <path d="M 321.970251 43.436997 
L 353.970251 43.436997 
" style="fill:none;stroke:#0c5da5;stroke-linecap:square;"/>
    </g>
    <g id="line2d_89"/>
    <g id="text_16">
     <!-- $\sigma = 0.01$ -->
     <g transform="translate(366.770251 49.036997)scale(0.16 -0.16)">
      <defs>
       <path d="M 50.796875 37.59375 
C 52.09375 37.59375 55.40625 37.59375 55.40625 40.796875 
C 55.40625 43 53.5 43 51.703125 43 
L 29.59375 43 
C 14.59375 43 3.796875 26.328125 3.796875 14.5625 
C 3.796875 6.078125 9.296875 -1 18.296875 -1 
C 30.09375 -1 43 11.65625 43 26.625 
C 43 30.515625 42.09375 34.296875 39.703125 37.59375 
z
M 18.40625 1 
C 13.296875 1 9.59375 4.875 9.59375 11.765625 
C 9.59375 17.75 13.203125 37.59375 27.90625 37.59375 
C 32.203125 37.59375 37 35.5 37 27.8125 
C 37 24.328125 35.40625 15.953125 31.90625 10.171875 
C 28.296875 4.28125 22.90625 1 18.40625 1 
z
" id="CMMI12-27"/>
      </defs>
      <use transform="scale(0.996264)" xlink:href="#CMMI12-27"/>
      <use transform="translate(86.694062 0)scale(0.996264)" xlink:href="#CMR17-61"/>
      <use transform="translate(186.082859 0)scale(0.996264)" xlink:href="#CMR17-48"/>
      <use transform="translate(231.773337 0)scale(0.996264)" xlink:href="#CMMI12-58"/>
      <use transform="translate(258.870514 0)scale(0.996264)" xlink:href="#CMR17-48"/>
      <use transform="translate(304.560991 0)scale(0.996264)" xlink:href="#CMR17-49"/>
     </g>
    </g>
    <g id="line2d_90">
     <path d="M 321.970251 66.059497 
L 353.970251 66.059497 
" style="fill:none;stroke:#00b945;stroke-linecap:square;"/>
    </g>
    <g id="line2d_91"/>
    <g id="text_17">
     <!-- $\sigma = 0.05$ -->
     <g transform="translate(366.770251 71.659497)scale(0.16 -0.16)">
      <use transform="scale(0.996264)" xlink:href="#CMMI12-27"/>
      <use transform="translate(86.694062 0)scale(0.996264)" xlink:href="#CMR17-61"/>
      <use transform="translate(186.082859 0)scale(0.996264)" xlink:href="#CMR17-48"/>
      <use transform="translate(231.773337 0)scale(0.996264)" xlink:href="#CMMI12-58"/>
      <use transform="translate(258.870514 0)scale(0.996264)" xlink:href="#CMR17-48"/>
      <use transform="translate(304.560991 0)scale(0.996264)" xlink:href="#CMR17-53"/>
     </g>
    </g>
    <g id="line2d_92">
     <path d="M 321.970251 88.681997 
L 353.970251 88.681997 
" style="fill:none;stroke:#ff9500;stroke-linecap:square;"/>
    </g>
    <g id="line2d_93"/>
    <g id="text_18">
     <!-- $\sigma = 0.1$ -->
     <g transform="translate(366.770251 94.281997)scale(0.16 -0.16)">
      <use transform="scale(0.996264)" xlink:href="#CMMI12-27"/>
      <use transform="translate(86.694062 0)scale(0.996264)" xlink:href="#CMR17-61"/>
      <use transform="translate(186.082859 0)scale(0.996264)" xlink:href="#CMR17-48"/>
      <use transform="translate(231.773337 0)scale(0.996264)" xlink:href="#CMMI12-58"/>
      <use transform="translate(258.870514 0)scale(0.996264)" xlink:href="#CMR17-49"/>
     </g>
    </g>
   </g>
  </g>
 </g>
 <defs>
  <clipPath id="pd2ec4ca491">
   <rect height="285.39" width="390.6" x="48.756153" y="23.436997"/>
  </clipPath>
 </defs>
</svg>
