<?xml version="1.0" encoding="utf-8" standalone="no"?>
<!DOCTYPE svg PUBLIC "-//W3C//DTD SVG 1.1//EN"
  "http://www.w3.org/Graphics/SVG/1.1/DTD/svg11.dtd">
<!-- Created with matplotlib (https://matplotlib.org/) -->
<svg height="238.991683pt" version="1.1" viewBox="0 0 365.425341 238.991683" width="365.425341pt" xmlns="http://www.w3.org/2000/svg" xmlns:xlink="http://www.w3.org/1999/xlink">
 <metadata>
  <rdf:RDF xmlns:cc="http://creativecommons.org/ns#" xmlns:dc="http://purl.org/dc/elements/1.1/" xmlns:rdf="http://www.w3.org/1999/02/22-rdf-syntax-ns#">
   <cc:Work>
    <dc:type rdf:resource="http://purl.org/dc/dcmitype/StillImage"/>
    <dc:date>2021-03-22T19:27:54.920615</dc:date>
    <dc:format>image/svg+xml</dc:format>
    <dc:creator>
     <cc:Agent>
      <dc:title>Matplotlib v3.3.4, https://matplotlib.org/</dc:title>
     </cc:Agent>
    </dc:creator>
   </cc:Work>
  </rdf:RDF>
 </metadata>
 <defs>
  <style type="text/css">*{stroke-linecap:butt;stroke-linejoin:round;}</style>
 </defs>
 <g id="figure_1">
  <g id="patch_1">
   <path d="M 0 238.991683 
L 365.425341 238.991683 
L 365.425341 0 
L 0 0 
z
" style="fill:none;"/>
  </g>
  <g id="axes_1">
   <g id="patch_2">
    <path d="M 27.025341 223.036007 
L 361.825341 223.036007 
L 361.825341 5.596007 
L 27.025341 5.596007 
z
" style="fill:#ffffff;"/>
   </g>
   <g id="patch_3">
    <path clip-path="url(#paebfc9d99c)" d="M 42.243523 223.036007 
L 72.679886 223.036007 
L 72.679886 149.78389 
L 42.243523 149.78389 
z
" style="fill:#0c5da5;stroke:#ffffff;stroke-linejoin:miter;"/>
   </g>
   <g id="patch_4">
    <path clip-path="url(#paebfc9d99c)" d="M 72.679886 223.036007 
L 103.11625 223.036007 
L 103.11625 223.036007 
L 72.679886 223.036007 
z
" style="fill:#0c5da5;stroke:#ffffff;stroke-linejoin:miter;"/>
   </g>
   <g id="patch_5">
    <path clip-path="url(#paebfc9d99c)" d="M 103.11625 223.036007 
L 133.552614 223.036007 
L 133.552614 223.036007 
L 103.11625 223.036007 
z
" style="fill:#0c5da5;stroke:#ffffff;stroke-linejoin:miter;"/>
   </g>
   <g id="patch_6">
    <path clip-path="url(#paebfc9d99c)" d="M 133.552614 223.036007 
L 163.988977 223.036007 
L 163.988977 223.036007 
L 133.552614 223.036007 
z
" style="fill:#0c5da5;stroke:#ffffff;stroke-linejoin:miter;"/>
   </g>
   <g id="patch_7">
    <path clip-path="url(#paebfc9d99c)" d="M 163.988977 223.036007 
L 194.425341 223.036007 
L 194.425341 223.036007 
L 163.988977 223.036007 
z
" style="fill:#0c5da5;stroke:#ffffff;stroke-linejoin:miter;"/>
   </g>
   <g id="patch_8">
    <path clip-path="url(#paebfc9d99c)" d="M 194.425341 223.036007 
L 224.861705 223.036007 
L 224.861705 143.412575 
L 194.425341 143.412575 
z
" style="fill:#0c5da5;stroke:#ffffff;stroke-linejoin:miter;"/>
   </g>
   <g id="patch_9">
    <path clip-path="url(#paebfc9d99c)" d="M 224.861705 223.036007 
L 255.298068 223.036007 
L 255.298068 223.036007 
L 224.861705 223.036007 
z
" style="fill:#0c5da5;stroke:#ffffff;stroke-linejoin:miter;"/>
   </g>
   <g id="patch_10">
    <path clip-path="url(#paebfc9d99c)" d="M 255.298068 223.036007 
L 285.734432 223.036007 
L 285.734432 223.036007 
L 255.298068 223.036007 
z
" style="fill:#0c5da5;stroke:#ffffff;stroke-linejoin:miter;"/>
   </g>
   <g id="patch_11">
    <path clip-path="url(#paebfc9d99c)" d="M 285.734432 223.036007 
L 316.170796 223.036007 
L 316.170796 223.036007 
L 285.734432 223.036007 
z
" style="fill:#0c5da5;stroke:#ffffff;stroke-linejoin:miter;"/>
   </g>
   <g id="patch_12">
    <path clip-path="url(#paebfc9d99c)" d="M 316.170796 223.036007 
L 346.607159 223.036007 
L 346.607159 15.950292 
L 316.170796 15.950292 
z
" style="fill:#0c5da5;stroke:#ffffff;stroke-linejoin:miter;"/>
   </g>
   <g id="matplotlib.axis_1">
    <g id="xtick_1">
     <g id="line2d_1">
      <defs>
       <path d="M 0 0 
L 0 -3 
" id="md983c1167e" style="stroke:#000000;stroke-width:0.5;"/>
      </defs>
      <g>
       <use style="stroke:#000000;stroke-width:0.5;" x="42.243523" xlink:href="#md983c1167e" y="223.036007"/>
      </g>
     </g>
     <g id="line2d_2">
      <defs>
       <path d="M 0 0 
L 0 3 
" id="m30c8ff3dcd" style="stroke:#000000;stroke-width:0.5;"/>
      </defs>
      <g>
       <use style="stroke:#000000;stroke-width:0.5;" x="42.243523" xlink:href="#m30c8ff3dcd" y="5.596007"/>
      </g>
     </g>
     <g id="text_1">
      <!-- $\mathdefault{0.00}$ -->
      <g transform="translate(33.387816 233.454505)scale(0.1 -0.1)">
       <defs>
        <path d="M 42 31.84375 
C 42 37.96875 41.90625 48.421875 37.703125 56.453125 
C 34 63.484375 28.09375 66 22.90625 66 
C 18.09375 66 12 63.78125 8.203125 56.5625 
C 4.203125 49.015625 3.796875 39.671875 3.796875 31.84375 
C 3.796875 26.109375 3.90625 17.375 7 9.734375 
C 11.296875 -0.609375 19 -2 22.90625 -2 
C 27.5 -2 34.5 -0.109375 38.59375 9.4375 
C 41.59375 16.375 42 24.5 42 31.84375 
z
M 22.90625 -0.40625 
C 16.5 -0.40625 12.703125 5.125 11.296875 12.75 
C 10.203125 18.6875 10.203125 27.328125 10.203125 32.953125 
C 10.203125 40.6875 10.203125 47.109375 11.5 53.234375 
C 13.40625 61.78125 19 64.390625 22.90625 64.390625 
C 27 64.390625 32.296875 61.671875 34.203125 53.4375 
C 35.5 47.71875 35.59375 40.984375 35.59375 32.953125 
C 35.59375 26.421875 35.59375 18.375 34.40625 12.453125 
C 32.296875 1.5 26.40625 -0.40625 22.90625 -0.40625 
z
" id="CMR17-48"/>
        <path d="M 18.40625 4.796875 
C 18.40625 7.6875 16 9.6875 13.59375 9.6875 
C 10.703125 9.6875 8.703125 7.296875 8.703125 4.890625 
C 8.703125 2 11.09375 0 13.5 0 
C 16.40625 0 18.40625 2.390625 18.40625 4.796875 
z
" id="CMMI12-58"/>
       </defs>
       <use transform="scale(0.996264)" xlink:href="#CMR17-48"/>
       <use transform="translate(45.690477 0)scale(0.996264)" xlink:href="#CMMI12-58"/>
       <use transform="translate(72.787654 0)scale(0.996264)" xlink:href="#CMR17-48"/>
       <use transform="translate(118.478131 0)scale(0.996264)" xlink:href="#CMR17-48"/>
      </g>
     </g>
    </g>
    <g id="xtick_2">
     <g id="line2d_3">
      <g>
       <use style="stroke:#000000;stroke-width:0.5;" x="80.288977" xlink:href="#md983c1167e" y="223.036007"/>
      </g>
     </g>
     <g id="line2d_4">
      <g>
       <use style="stroke:#000000;stroke-width:0.5;" x="80.288977" xlink:href="#m30c8ff3dcd" y="5.596007"/>
      </g>
     </g>
     <g id="text_2">
      <!-- $\mathdefault{0.25}$ -->
      <g transform="translate(71.43327 233.454505)scale(0.1 -0.1)">
       <defs>
        <path d="M 41.703125 15.46875 
L 39.90625 15.46875 
C 38.90625 8.390625 38.09375 7.1875 37.703125 6.59375 
C 37.203125 5.796875 30 5.796875 28.59375 5.796875 
L 9.40625 5.796875 
C 13 9.6875 20 16.765625 28.5 24.9375 
C 34.59375 30.71875 41.703125 37.5 41.703125 47.390625 
C 41.703125 59.1875 32.296875 66 21.796875 66 
C 10.796875 66 4.09375 56.296875 4.09375 47.296875 
C 4.09375 43.390625 7 42.890625 8.203125 42.890625 
C 9.203125 42.890625 12.203125 43.484375 12.203125 46.984375 
C 12.203125 50.09375 9.59375 51 8.203125 51 
C 7.59375 51 7 50.890625 6.59375 50.6875 
C 8.5 59.1875 14.296875 63.390625 20.40625 63.390625 
C 29.09375 63.390625 34.796875 56.5 34.796875 47.390625 
C 34.796875 38.703125 29.703125 31.21875 24 24.734375 
L 4.09375 2.296875 
L 4.09375 0 
L 39.296875 0 
z
" id="CMR17-50"/>
        <path d="M 11.40625 58.59375 
C 12.40625 58.1875 16.5 56.890625 20.703125 56.890625 
C 30 56.890625 35.09375 61.890625 38 64.6875 
C 38 65.484375 38 66 37.40625 66 
C 37.296875 66 37.09375 66 36.296875 65.59375 
C 32.796875 64.09375 28.703125 63 23.703125 63 
C 20.703125 63 16.203125 63.359375 11.296875 65.484375 
C 10.203125 66 10 66 9.90625 66 
C 9.40625 66 9.296875 65.890625 9.296875 63.90625 
L 9.296875 34.859375 
C 9.296875 33.015625 9.296875 32.5 10.296875 32.5 
C 10.796875 32.5 11 32.703125 11.5 33.421875 
C 14.703125 38.046875 19.09375 40 24.09375 40 
C 27.59375 40 35.09375 37.734375 35.09375 20.203125 
C 35.09375 16.984375 35.09375 11.1875 32.09375 6.59375 
C 29.59375 2.484375 25.703125 0.390625 21.40625 0.390625 
C 14.796875 0.390625 8.09375 4.984375 6.296875 12.6875 
C 6.703125 12.59375 7.5 12.390625 7.90625 12.390625 
C 9.203125 12.390625 11.703125 13.09375 11.703125 16.1875 
C 11.703125 18.890625 9.796875 20 7.90625 20 
C 5.59375 20 4.09375 18.59375 4.09375 15.796875 
C 4.09375 7.09375 11 -2 21.59375 -2 
C 31.90625 -2 41.703125 6.890625 41.703125 19.796875 
C 41.703125 32.09375 33.90625 41.59375 24.203125 41.59375 
C 19.09375 41.59375 14.796875 39.6875 11.40625 36 
z
" id="CMR17-53"/>
       </defs>
       <use transform="scale(0.996264)" xlink:href="#CMR17-48"/>
       <use transform="translate(45.690477 0)scale(0.996264)" xlink:href="#CMMI12-58"/>
       <use transform="translate(72.787654 0)scale(0.996264)" xlink:href="#CMR17-50"/>
       <use transform="translate(118.478131 0)scale(0.996264)" xlink:href="#CMR17-53"/>
      </g>
     </g>
    </g>
    <g id="xtick_3">
     <g id="line2d_5">
      <g>
       <use style="stroke:#000000;stroke-width:0.5;" x="118.334432" xlink:href="#md983c1167e" y="223.036007"/>
      </g>
     </g>
     <g id="line2d_6">
      <g>
       <use style="stroke:#000000;stroke-width:0.5;" x="118.334432" xlink:href="#m30c8ff3dcd" y="5.596007"/>
      </g>
     </g>
     <g id="text_3">
      <!-- $\mathdefault{0.50}$ -->
      <g transform="translate(109.478725 233.454505)scale(0.1 -0.1)">
       <use transform="scale(0.996264)" xlink:href="#CMR17-48"/>
       <use transform="translate(45.690477 0)scale(0.996264)" xlink:href="#CMMI12-58"/>
       <use transform="translate(72.787654 0)scale(0.996264)" xlink:href="#CMR17-53"/>
       <use transform="translate(118.478131 0)scale(0.996264)" xlink:href="#CMR17-48"/>
      </g>
     </g>
    </g>
    <g id="xtick_4">
     <g id="line2d_7">
      <g>
       <use style="stroke:#000000;stroke-width:0.5;" x="156.379886" xlink:href="#md983c1167e" y="223.036007"/>
      </g>
     </g>
     <g id="line2d_8">
      <g>
       <use style="stroke:#000000;stroke-width:0.5;" x="156.379886" xlink:href="#m30c8ff3dcd" y="5.596007"/>
      </g>
     </g>
     <g id="text_4">
      <!-- $\mathdefault{0.75}$ -->
      <g transform="translate(147.524179 233.454505)scale(0.1 -0.1)">
       <defs>
        <path d="M 45.09375 61.796875 
L 45.09375 64 
L 21.59375 64 
C 9.90625 64 9.703125 65.09375 9.296875 67 
L 7.5 67 
L 4.59375 48.5 
L 6.40625 48.5 
C 6.703125 50.40625 7.40625 55.5 8.59375 57.390625 
C 9.203125 58.1875 16.59375 58.1875 18.296875 58.1875 
L 40.296875 58.1875 
L 29.203125 41.71875 
C 21.796875 30.640625 16.703125 15.671875 16.703125 2.59375 
C 16.703125 1.390625 16.703125 -2 20.296875 -2 
C 23.90625 -2 23.90625 1.390625 23.90625 2.6875 
L 23.90625 7.28125 
C 23.90625 23.65625 26.703125 34.4375 31.296875 41.3125 
z
" id="CMR17-55"/>
       </defs>
       <use transform="scale(0.996264)" xlink:href="#CMR17-48"/>
       <use transform="translate(45.690477 0)scale(0.996264)" xlink:href="#CMMI12-58"/>
       <use transform="translate(72.787654 0)scale(0.996264)" xlink:href="#CMR17-55"/>
       <use transform="translate(118.478131 0)scale(0.996264)" xlink:href="#CMR17-53"/>
      </g>
     </g>
    </g>
    <g id="xtick_5">
     <g id="line2d_9">
      <g>
       <use style="stroke:#000000;stroke-width:0.5;" x="194.425341" xlink:href="#md983c1167e" y="223.036007"/>
      </g>
     </g>
     <g id="line2d_10">
      <g>
       <use style="stroke:#000000;stroke-width:0.5;" x="194.425341" xlink:href="#m30c8ff3dcd" y="5.596007"/>
      </g>
     </g>
     <g id="text_5">
      <!-- $\mathdefault{1.00}$ -->
      <g transform="translate(185.569634 233.454505)scale(0.1 -0.1)">
       <defs>
        <path d="M 26.59375 63.796875 
C 26.59375 65.890625 26.5 66 25.09375 66 
C 21.203125 61.359375 15.296875 59.890625 9.703125 59.6875 
C 9.40625 59.6875 8.90625 59.6875 8.796875 59.5 
C 8.703125 59.296875 8.703125 59.09375 8.703125 57 
C 11.796875 57 17 57.59375 21 59.984375 
L 21 7.296875 
C 21 3.796875 20.796875 2.59375 12.203125 2.59375 
L 9.203125 2.59375 
L 9.203125 0 
C 14 0.09375 19 0.1875 23.796875 0.1875 
C 28.59375 0.1875 33.59375 0.09375 38.40625 0 
L 38.40625 2.59375 
L 35.40625 2.59375 
C 26.796875 2.59375 26.59375 3.6875 26.59375 7.296875 
z
" id="CMR17-49"/>
       </defs>
       <use transform="scale(0.996264)" xlink:href="#CMR17-49"/>
       <use transform="translate(45.690477 0)scale(0.996264)" xlink:href="#CMMI12-58"/>
       <use transform="translate(72.787654 0)scale(0.996264)" xlink:href="#CMR17-48"/>
       <use transform="translate(118.478131 0)scale(0.996264)" xlink:href="#CMR17-48"/>
      </g>
     </g>
    </g>
    <g id="xtick_6">
     <g id="line2d_11">
      <g>
       <use style="stroke:#000000;stroke-width:0.5;" x="232.470796" xlink:href="#md983c1167e" y="223.036007"/>
      </g>
     </g>
     <g id="line2d_12">
      <g>
       <use style="stroke:#000000;stroke-width:0.5;" x="232.470796" xlink:href="#m30c8ff3dcd" y="5.596007"/>
      </g>
     </g>
     <g id="text_6">
      <!-- $\mathdefault{1.25}$ -->
      <g transform="translate(223.615088 233.454505)scale(0.1 -0.1)">
       <use transform="scale(0.996264)" xlink:href="#CMR17-49"/>
       <use transform="translate(45.690477 0)scale(0.996264)" xlink:href="#CMMI12-58"/>
       <use transform="translate(72.787654 0)scale(0.996264)" xlink:href="#CMR17-50"/>
       <use transform="translate(118.478131 0)scale(0.996264)" xlink:href="#CMR17-53"/>
      </g>
     </g>
    </g>
    <g id="xtick_7">
     <g id="line2d_13">
      <g>
       <use style="stroke:#000000;stroke-width:0.5;" x="270.51625" xlink:href="#md983c1167e" y="223.036007"/>
      </g>
     </g>
     <g id="line2d_14">
      <g>
       <use style="stroke:#000000;stroke-width:0.5;" x="270.51625" xlink:href="#m30c8ff3dcd" y="5.596007"/>
      </g>
     </g>
     <g id="text_7">
      <!-- $\mathdefault{1.50}$ -->
      <g transform="translate(261.660543 233.454505)scale(0.1 -0.1)">
       <use transform="scale(0.996264)" xlink:href="#CMR17-49"/>
       <use transform="translate(45.690477 0)scale(0.996264)" xlink:href="#CMMI12-58"/>
       <use transform="translate(72.787654 0)scale(0.996264)" xlink:href="#CMR17-53"/>
       <use transform="translate(118.478131 0)scale(0.996264)" xlink:href="#CMR17-48"/>
      </g>
     </g>
    </g>
    <g id="xtick_8">
     <g id="line2d_15">
      <g>
       <use style="stroke:#000000;stroke-width:0.5;" x="308.561705" xlink:href="#md983c1167e" y="223.036007"/>
      </g>
     </g>
     <g id="line2d_16">
      <g>
       <use style="stroke:#000000;stroke-width:0.5;" x="308.561705" xlink:href="#m30c8ff3dcd" y="5.596007"/>
      </g>
     </g>
     <g id="text_8">
      <!-- $\mathdefault{1.75}$ -->
      <g transform="translate(299.705998 233.454505)scale(0.1 -0.1)">
       <use transform="scale(0.996264)" xlink:href="#CMR17-49"/>
       <use transform="translate(45.690477 0)scale(0.996264)" xlink:href="#CMMI12-58"/>
       <use transform="translate(72.787654 0)scale(0.996264)" xlink:href="#CMR17-55"/>
       <use transform="translate(118.478131 0)scale(0.996264)" xlink:href="#CMR17-53"/>
      </g>
     </g>
    </g>
    <g id="xtick_9">
     <g id="line2d_17">
      <g>
       <use style="stroke:#000000;stroke-width:0.5;" x="346.607159" xlink:href="#md983c1167e" y="223.036007"/>
      </g>
     </g>
     <g id="line2d_18">
      <g>
       <use style="stroke:#000000;stroke-width:0.5;" x="346.607159" xlink:href="#m30c8ff3dcd" y="5.596007"/>
      </g>
     </g>
     <g id="text_9">
      <!-- $\mathdefault{2.00}$ -->
      <g transform="translate(337.751452 233.454505)scale(0.1 -0.1)">
       <use transform="scale(0.996264)" xlink:href="#CMR17-50"/>
       <use transform="translate(45.690477 0)scale(0.996264)" xlink:href="#CMMI12-58"/>
       <use transform="translate(72.787654 0)scale(0.996264)" xlink:href="#CMR17-48"/>
       <use transform="translate(118.478131 0)scale(0.996264)" xlink:href="#CMR17-48"/>
      </g>
     </g>
    </g>
    <g id="xtick_10">
     <g id="line2d_19">
      <defs>
       <path d="M 0 0 
L 0 -1.5 
" id="m2e86fa9a30" style="stroke:#000000;stroke-width:0.5;"/>
      </defs>
      <g>
       <use style="stroke:#000000;stroke-width:0.5;" x="27.025341" xlink:href="#m2e86fa9a30" y="223.036007"/>
      </g>
     </g>
     <g id="line2d_20">
      <defs>
       <path d="M 0 0 
L 0 1.5 
" id="m6e33ee27d4" style="stroke:#000000;stroke-width:0.5;"/>
      </defs>
      <g>
       <use style="stroke:#000000;stroke-width:0.5;" x="27.025341" xlink:href="#m6e33ee27d4" y="5.596007"/>
      </g>
     </g>
    </g>
    <g id="xtick_11">
     <g id="line2d_21">
      <g>
       <use style="stroke:#000000;stroke-width:0.5;" x="34.634432" xlink:href="#m2e86fa9a30" y="223.036007"/>
      </g>
     </g>
     <g id="line2d_22">
      <g>
       <use style="stroke:#000000;stroke-width:0.5;" x="34.634432" xlink:href="#m6e33ee27d4" y="5.596007"/>
      </g>
     </g>
    </g>
    <g id="xtick_12">
     <g id="line2d_23">
      <g>
       <use style="stroke:#000000;stroke-width:0.5;" x="49.852614" xlink:href="#m2e86fa9a30" y="223.036007"/>
      </g>
     </g>
     <g id="line2d_24">
      <g>
       <use style="stroke:#000000;stroke-width:0.5;" x="49.852614" xlink:href="#m6e33ee27d4" y="5.596007"/>
      </g>
     </g>
    </g>
    <g id="xtick_13">
     <g id="line2d_25">
      <g>
       <use style="stroke:#000000;stroke-width:0.5;" x="57.461705" xlink:href="#m2e86fa9a30" y="223.036007"/>
      </g>
     </g>
     <g id="line2d_26">
      <g>
       <use style="stroke:#000000;stroke-width:0.5;" x="57.461705" xlink:href="#m6e33ee27d4" y="5.596007"/>
      </g>
     </g>
    </g>
    <g id="xtick_14">
     <g id="line2d_27">
      <g>
       <use style="stroke:#000000;stroke-width:0.5;" x="65.070796" xlink:href="#m2e86fa9a30" y="223.036007"/>
      </g>
     </g>
     <g id="line2d_28">
      <g>
       <use style="stroke:#000000;stroke-width:0.5;" x="65.070796" xlink:href="#m6e33ee27d4" y="5.596007"/>
      </g>
     </g>
    </g>
    <g id="xtick_15">
     <g id="line2d_29">
      <g>
       <use style="stroke:#000000;stroke-width:0.5;" x="72.679886" xlink:href="#m2e86fa9a30" y="223.036007"/>
      </g>
     </g>
     <g id="line2d_30">
      <g>
       <use style="stroke:#000000;stroke-width:0.5;" x="72.679886" xlink:href="#m6e33ee27d4" y="5.596007"/>
      </g>
     </g>
    </g>
    <g id="xtick_16">
     <g id="line2d_31">
      <g>
       <use style="stroke:#000000;stroke-width:0.5;" x="87.898068" xlink:href="#m2e86fa9a30" y="223.036007"/>
      </g>
     </g>
     <g id="line2d_32">
      <g>
       <use style="stroke:#000000;stroke-width:0.5;" x="87.898068" xlink:href="#m6e33ee27d4" y="5.596007"/>
      </g>
     </g>
    </g>
    <g id="xtick_17">
     <g id="line2d_33">
      <g>
       <use style="stroke:#000000;stroke-width:0.5;" x="95.507159" xlink:href="#m2e86fa9a30" y="223.036007"/>
      </g>
     </g>
     <g id="line2d_34">
      <g>
       <use style="stroke:#000000;stroke-width:0.5;" x="95.507159" xlink:href="#m6e33ee27d4" y="5.596007"/>
      </g>
     </g>
    </g>
    <g id="xtick_18">
     <g id="line2d_35">
      <g>
       <use style="stroke:#000000;stroke-width:0.5;" x="103.11625" xlink:href="#m2e86fa9a30" y="223.036007"/>
      </g>
     </g>
     <g id="line2d_36">
      <g>
       <use style="stroke:#000000;stroke-width:0.5;" x="103.11625" xlink:href="#m6e33ee27d4" y="5.596007"/>
      </g>
     </g>
    </g>
    <g id="xtick_19">
     <g id="line2d_37">
      <g>
       <use style="stroke:#000000;stroke-width:0.5;" x="110.725341" xlink:href="#m2e86fa9a30" y="223.036007"/>
      </g>
     </g>
     <g id="line2d_38">
      <g>
       <use style="stroke:#000000;stroke-width:0.5;" x="110.725341" xlink:href="#m6e33ee27d4" y="5.596007"/>
      </g>
     </g>
    </g>
    <g id="xtick_20">
     <g id="line2d_39">
      <g>
       <use style="stroke:#000000;stroke-width:0.5;" x="125.943523" xlink:href="#m2e86fa9a30" y="223.036007"/>
      </g>
     </g>
     <g id="line2d_40">
      <g>
       <use style="stroke:#000000;stroke-width:0.5;" x="125.943523" xlink:href="#m6e33ee27d4" y="5.596007"/>
      </g>
     </g>
    </g>
    <g id="xtick_21">
     <g id="line2d_41">
      <g>
       <use style="stroke:#000000;stroke-width:0.5;" x="133.552614" xlink:href="#m2e86fa9a30" y="223.036007"/>
      </g>
     </g>
     <g id="line2d_42">
      <g>
       <use style="stroke:#000000;stroke-width:0.5;" x="133.552614" xlink:href="#m6e33ee27d4" y="5.596007"/>
      </g>
     </g>
    </g>
    <g id="xtick_22">
     <g id="line2d_43">
      <g>
       <use style="stroke:#000000;stroke-width:0.5;" x="141.161705" xlink:href="#m2e86fa9a30" y="223.036007"/>
      </g>
     </g>
     <g id="line2d_44">
      <g>
       <use style="stroke:#000000;stroke-width:0.5;" x="141.161705" xlink:href="#m6e33ee27d4" y="5.596007"/>
      </g>
     </g>
    </g>
    <g id="xtick_23">
     <g id="line2d_45">
      <g>
       <use style="stroke:#000000;stroke-width:0.5;" x="148.770796" xlink:href="#m2e86fa9a30" y="223.036007"/>
      </g>
     </g>
     <g id="line2d_46">
      <g>
       <use style="stroke:#000000;stroke-width:0.5;" x="148.770796" xlink:href="#m6e33ee27d4" y="5.596007"/>
      </g>
     </g>
    </g>
    <g id="xtick_24">
     <g id="line2d_47">
      <g>
       <use style="stroke:#000000;stroke-width:0.5;" x="163.988977" xlink:href="#m2e86fa9a30" y="223.036007"/>
      </g>
     </g>
     <g id="line2d_48">
      <g>
       <use style="stroke:#000000;stroke-width:0.5;" x="163.988977" xlink:href="#m6e33ee27d4" y="5.596007"/>
      </g>
     </g>
    </g>
    <g id="xtick_25">
     <g id="line2d_49">
      <g>
       <use style="stroke:#000000;stroke-width:0.5;" x="171.598068" xlink:href="#m2e86fa9a30" y="223.036007"/>
      </g>
     </g>
     <g id="line2d_50">
      <g>
       <use style="stroke:#000000;stroke-width:0.5;" x="171.598068" xlink:href="#m6e33ee27d4" y="5.596007"/>
      </g>
     </g>
    </g>
    <g id="xtick_26">
     <g id="line2d_51">
      <g>
       <use style="stroke:#000000;stroke-width:0.5;" x="179.207159" xlink:href="#m2e86fa9a30" y="223.036007"/>
      </g>
     </g>
     <g id="line2d_52">
      <g>
       <use style="stroke:#000000;stroke-width:0.5;" x="179.207159" xlink:href="#m6e33ee27d4" y="5.596007"/>
      </g>
     </g>
    </g>
    <g id="xtick_27">
     <g id="line2d_53">
      <g>
       <use style="stroke:#000000;stroke-width:0.5;" x="186.81625" xlink:href="#m2e86fa9a30" y="223.036007"/>
      </g>
     </g>
     <g id="line2d_54">
      <g>
       <use style="stroke:#000000;stroke-width:0.5;" x="186.81625" xlink:href="#m6e33ee27d4" y="5.596007"/>
      </g>
     </g>
    </g>
    <g id="xtick_28">
     <g id="line2d_55">
      <g>
       <use style="stroke:#000000;stroke-width:0.5;" x="202.034432" xlink:href="#m2e86fa9a30" y="223.036007"/>
      </g>
     </g>
     <g id="line2d_56">
      <g>
       <use style="stroke:#000000;stroke-width:0.5;" x="202.034432" xlink:href="#m6e33ee27d4" y="5.596007"/>
      </g>
     </g>
    </g>
    <g id="xtick_29">
     <g id="line2d_57">
      <g>
       <use style="stroke:#000000;stroke-width:0.5;" x="209.643523" xlink:href="#m2e86fa9a30" y="223.036007"/>
      </g>
     </g>
     <g id="line2d_58">
      <g>
       <use style="stroke:#000000;stroke-width:0.5;" x="209.643523" xlink:href="#m6e33ee27d4" y="5.596007"/>
      </g>
     </g>
    </g>
    <g id="xtick_30">
     <g id="line2d_59">
      <g>
       <use style="stroke:#000000;stroke-width:0.5;" x="217.252614" xlink:href="#m2e86fa9a30" y="223.036007"/>
      </g>
     </g>
     <g id="line2d_60">
      <g>
       <use style="stroke:#000000;stroke-width:0.5;" x="217.252614" xlink:href="#m6e33ee27d4" y="5.596007"/>
      </g>
     </g>
    </g>
    <g id="xtick_31">
     <g id="line2d_61">
      <g>
       <use style="stroke:#000000;stroke-width:0.5;" x="224.861705" xlink:href="#m2e86fa9a30" y="223.036007"/>
      </g>
     </g>
     <g id="line2d_62">
      <g>
       <use style="stroke:#000000;stroke-width:0.5;" x="224.861705" xlink:href="#m6e33ee27d4" y="5.596007"/>
      </g>
     </g>
    </g>
    <g id="xtick_32">
     <g id="line2d_63">
      <g>
       <use style="stroke:#000000;stroke-width:0.5;" x="240.079886" xlink:href="#m2e86fa9a30" y="223.036007"/>
      </g>
     </g>
     <g id="line2d_64">
      <g>
       <use style="stroke:#000000;stroke-width:0.5;" x="240.079886" xlink:href="#m6e33ee27d4" y="5.596007"/>
      </g>
     </g>
    </g>
    <g id="xtick_33">
     <g id="line2d_65">
      <g>
       <use style="stroke:#000000;stroke-width:0.5;" x="247.688977" xlink:href="#m2e86fa9a30" y="223.036007"/>
      </g>
     </g>
     <g id="line2d_66">
      <g>
       <use style="stroke:#000000;stroke-width:0.5;" x="247.688977" xlink:href="#m6e33ee27d4" y="5.596007"/>
      </g>
     </g>
    </g>
    <g id="xtick_34">
     <g id="line2d_67">
      <g>
       <use style="stroke:#000000;stroke-width:0.5;" x="255.298068" xlink:href="#m2e86fa9a30" y="223.036007"/>
      </g>
     </g>
     <g id="line2d_68">
      <g>
       <use style="stroke:#000000;stroke-width:0.5;" x="255.298068" xlink:href="#m6e33ee27d4" y="5.596007"/>
      </g>
     </g>
    </g>
    <g id="xtick_35">
     <g id="line2d_69">
      <g>
       <use style="stroke:#000000;stroke-width:0.5;" x="262.907159" xlink:href="#m2e86fa9a30" y="223.036007"/>
      </g>
     </g>
     <g id="line2d_70">
      <g>
       <use style="stroke:#000000;stroke-width:0.5;" x="262.907159" xlink:href="#m6e33ee27d4" y="5.596007"/>
      </g>
     </g>
    </g>
    <g id="xtick_36">
     <g id="line2d_71">
      <g>
       <use style="stroke:#000000;stroke-width:0.5;" x="278.125341" xlink:href="#m2e86fa9a30" y="223.036007"/>
      </g>
     </g>
     <g id="line2d_72">
      <g>
       <use style="stroke:#000000;stroke-width:0.5;" x="278.125341" xlink:href="#m6e33ee27d4" y="5.596007"/>
      </g>
     </g>
    </g>
    <g id="xtick_37">
     <g id="line2d_73">
      <g>
       <use style="stroke:#000000;stroke-width:0.5;" x="285.734432" xlink:href="#m2e86fa9a30" y="223.036007"/>
      </g>
     </g>
     <g id="line2d_74">
      <g>
       <use style="stroke:#000000;stroke-width:0.5;" x="285.734432" xlink:href="#m6e33ee27d4" y="5.596007"/>
      </g>
     </g>
    </g>
    <g id="xtick_38">
     <g id="line2d_75">
      <g>
       <use style="stroke:#000000;stroke-width:0.5;" x="293.343523" xlink:href="#m2e86fa9a30" y="223.036007"/>
      </g>
     </g>
     <g id="line2d_76">
      <g>
       <use style="stroke:#000000;stroke-width:0.5;" x="293.343523" xlink:href="#m6e33ee27d4" y="5.596007"/>
      </g>
     </g>
    </g>
    <g id="xtick_39">
     <g id="line2d_77">
      <g>
       <use style="stroke:#000000;stroke-width:0.5;" x="300.952614" xlink:href="#m2e86fa9a30" y="223.036007"/>
      </g>
     </g>
     <g id="line2d_78">
      <g>
       <use style="stroke:#000000;stroke-width:0.5;" x="300.952614" xlink:href="#m6e33ee27d4" y="5.596007"/>
      </g>
     </g>
    </g>
    <g id="xtick_40">
     <g id="line2d_79">
      <g>
       <use style="stroke:#000000;stroke-width:0.5;" x="316.170796" xlink:href="#m2e86fa9a30" y="223.036007"/>
      </g>
     </g>
     <g id="line2d_80">
      <g>
       <use style="stroke:#000000;stroke-width:0.5;" x="316.170796" xlink:href="#m6e33ee27d4" y="5.596007"/>
      </g>
     </g>
    </g>
    <g id="xtick_41">
     <g id="line2d_81">
      <g>
       <use style="stroke:#000000;stroke-width:0.5;" x="323.779886" xlink:href="#m2e86fa9a30" y="223.036007"/>
      </g>
     </g>
     <g id="line2d_82">
      <g>
       <use style="stroke:#000000;stroke-width:0.5;" x="323.779886" xlink:href="#m6e33ee27d4" y="5.596007"/>
      </g>
     </g>
    </g>
    <g id="xtick_42">
     <g id="line2d_83">
      <g>
       <use style="stroke:#000000;stroke-width:0.5;" x="331.388977" xlink:href="#m2e86fa9a30" y="223.036007"/>
      </g>
     </g>
     <g id="line2d_84">
      <g>
       <use style="stroke:#000000;stroke-width:0.5;" x="331.388977" xlink:href="#m6e33ee27d4" y="5.596007"/>
      </g>
     </g>
    </g>
    <g id="xtick_43">
     <g id="line2d_85">
      <g>
       <use style="stroke:#000000;stroke-width:0.5;" x="338.998068" xlink:href="#m2e86fa9a30" y="223.036007"/>
      </g>
     </g>
     <g id="line2d_86">
      <g>
       <use style="stroke:#000000;stroke-width:0.5;" x="338.998068" xlink:href="#m6e33ee27d4" y="5.596007"/>
      </g>
     </g>
    </g>
    <g id="xtick_44">
     <g id="line2d_87">
      <g>
       <use style="stroke:#000000;stroke-width:0.5;" x="354.21625" xlink:href="#m2e86fa9a30" y="223.036007"/>
      </g>
     </g>
     <g id="line2d_88">
      <g>
       <use style="stroke:#000000;stroke-width:0.5;" x="354.21625" xlink:href="#m6e33ee27d4" y="5.596007"/>
      </g>
     </g>
    </g>
   </g>
   <g id="matplotlib.axis_2">
    <g id="ytick_1">
     <g id="line2d_89">
      <defs>
       <path d="M 0 0 
L 3 0 
" id="m3d52a42c65" style="stroke:#000000;stroke-width:0.5;"/>
      </defs>
      <g>
       <use style="stroke:#000000;stroke-width:0.5;" x="27.025341" xlink:href="#m3d52a42c65" y="223.036007"/>
      </g>
     </g>
     <g id="line2d_90">
      <defs>
       <path d="M 0 0 
L -3 0 
" id="medb4e1197e" style="stroke:#000000;stroke-width:0.5;"/>
      </defs>
      <g>
       <use style="stroke:#000000;stroke-width:0.5;" x="361.825341" xlink:href="#medb4e1197e" y="223.036007"/>
      </g>
     </g>
     <g id="text_10">
      <!-- $\mathdefault{0}$ -->
      <g transform="translate(18.544006 226.495256)scale(0.1 -0.1)">
       <use transform="scale(0.996264)" xlink:href="#CMR17-48"/>
      </g>
     </g>
    </g>
    <g id="ytick_2">
     <g id="line2d_91">
      <g>
       <use style="stroke:#000000;stroke-width:0.5;" x="27.025341" xlink:href="#m3d52a42c65" y="187.03988"/>
      </g>
     </g>
     <g id="line2d_92">
      <g>
       <use style="stroke:#000000;stroke-width:0.5;" x="361.825341" xlink:href="#medb4e1197e" y="187.03988"/>
      </g>
     </g>
     <g id="text_11">
      <!-- $\mathdefault{1000}$ -->
      <g transform="translate(3.6 190.49913)scale(0.1 -0.1)">
       <use transform="scale(0.996264)" xlink:href="#CMR17-49"/>
       <use transform="translate(45.690477 0)scale(0.996264)" xlink:href="#CMR17-48"/>
       <use transform="translate(91.380954 0)scale(0.996264)" xlink:href="#CMR17-48"/>
       <use transform="translate(137.071431 0)scale(0.996264)" xlink:href="#CMR17-48"/>
      </g>
     </g>
    </g>
    <g id="ytick_3">
     <g id="line2d_93">
      <g>
       <use style="stroke:#000000;stroke-width:0.5;" x="27.025341" xlink:href="#m3d52a42c65" y="151.043754"/>
      </g>
     </g>
     <g id="line2d_94">
      <g>
       <use style="stroke:#000000;stroke-width:0.5;" x="361.825341" xlink:href="#medb4e1197e" y="151.043754"/>
      </g>
     </g>
     <g id="text_12">
      <!-- $\mathdefault{2000}$ -->
      <g transform="translate(3.6 154.503003)scale(0.1 -0.1)">
       <use transform="scale(0.996264)" xlink:href="#CMR17-50"/>
       <use transform="translate(45.690477 0)scale(0.996264)" xlink:href="#CMR17-48"/>
       <use transform="translate(91.380954 0)scale(0.996264)" xlink:href="#CMR17-48"/>
       <use transform="translate(137.071431 0)scale(0.996264)" xlink:href="#CMR17-48"/>
      </g>
     </g>
    </g>
    <g id="ytick_4">
     <g id="line2d_95">
      <g>
       <use style="stroke:#000000;stroke-width:0.5;" x="27.025341" xlink:href="#m3d52a42c65" y="115.047628"/>
      </g>
     </g>
     <g id="line2d_96">
      <g>
       <use style="stroke:#000000;stroke-width:0.5;" x="361.825341" xlink:href="#medb4e1197e" y="115.047628"/>
      </g>
     </g>
     <g id="text_13">
      <!-- $\mathdefault{3000}$ -->
      <g transform="translate(3.6 118.506877)scale(0.1 -0.1)">
       <defs>
        <path d="M 22.09375 34 
C 31 34 34.90625 26.140625 34.90625 17.09375 
C 34.90625 5.03125 28.5 0.390625 22.703125 0.390625 
C 17.40625 0.390625 8.796875 3.015625 6.09375 10.796875 
C 6.59375 10.59375 7.09375 10.59375 7.59375 10.59375 
C 10 10.59375 11.796875 12.1875 11.796875 14.796875 
C 11.796875 17.6875 9.59375 19 7.59375 19 
C 5.90625 19 3.296875 18.1875 3.296875 14.484375 
C 3.296875 5.234375 12.296875 -2 22.90625 -2 
C 34 -2 42.5 6.75 42.5 16.984375 
C 42.5 26.84375 34.5 34 25 35.09375 
C 32.59375 36.671875 39.90625 43.375 39.90625 52.390625 
C 39.90625 60.25 32 66 23 66 
C 13.90625 66 5.90625 60.34375 5.90625 52.296875 
C 5.90625 48.796875 8.5 48.1875 9.796875 48.1875 
C 11.90625 48.1875 13.703125 49.484375 13.703125 52.09375 
C 13.703125 54.6875 11.90625 56 9.796875 56 
C 9.40625 56 8.90625 56 8.5 55.796875 
C 11.40625 62.484375 19.296875 63.6875 22.796875 63.6875 
C 26.296875 63.6875 32.90625 61.96875 32.90625 52.296875 
C 32.90625 49.484375 32.5 44.546875 29.09375 40.21875 
C 26.09375 36.390625 22.703125 36.1875 19.40625 35.890625 
C 18.90625 35.890625 16.59375 35.6875 16.203125 35.6875 
C 15.5 35.59375 15.09375 35.5 15.09375 34.796875 
C 15.09375 34.09375 15.203125 34 17.203125 34 
z
" id="CMR17-51"/>
       </defs>
       <use transform="scale(0.996264)" xlink:href="#CMR17-51"/>
       <use transform="translate(45.690477 0)scale(0.996264)" xlink:href="#CMR17-48"/>
       <use transform="translate(91.380954 0)scale(0.996264)" xlink:href="#CMR17-48"/>
       <use transform="translate(137.071431 0)scale(0.996264)" xlink:href="#CMR17-48"/>
      </g>
     </g>
    </g>
    <g id="ytick_5">
     <g id="line2d_97">
      <g>
       <use style="stroke:#000000;stroke-width:0.5;" x="27.025341" xlink:href="#m3d52a42c65" y="79.051502"/>
      </g>
     </g>
     <g id="line2d_98">
      <g>
       <use style="stroke:#000000;stroke-width:0.5;" x="361.825341" xlink:href="#medb4e1197e" y="79.051502"/>
      </g>
     </g>
     <g id="text_14">
      <!-- $\mathdefault{4000}$ -->
      <g transform="translate(3.6 82.510751)scale(0.1 -0.1)">
       <defs>
        <path d="M 33.59375 64.796875 
C 33.59375 66.890625 33.5 67 31.703125 67 
L 2 19.59375 
L 2 17 
L 27.796875 17 
L 27.796875 7.1875 
C 27.796875 3.59375 27.59375 2.59375 20.59375 2.59375 
L 18.703125 2.59375 
L 18.703125 0 
C 21.90625 0.1875 27.296875 0.1875 30.703125 0.1875 
C 34.09375 0.1875 39.5 0.1875 42.703125 0 
L 42.703125 2.59375 
L 40.796875 2.59375 
C 33.796875 2.59375 33.59375 3.59375 33.59375 7.1875 
L 33.59375 17 
L 43.796875 17 
L 43.796875 19.59375 
L 33.59375 19.59375 
z
M 28.09375 58.171875 
L 28.09375 19.59375 
L 4 19.59375 
z
" id="CMR17-52"/>
       </defs>
       <use transform="scale(0.996264)" xlink:href="#CMR17-52"/>
       <use transform="translate(45.690477 0)scale(0.996264)" xlink:href="#CMR17-48"/>
       <use transform="translate(91.380954 0)scale(0.996264)" xlink:href="#CMR17-48"/>
       <use transform="translate(137.071431 0)scale(0.996264)" xlink:href="#CMR17-48"/>
      </g>
     </g>
    </g>
    <g id="ytick_6">
     <g id="line2d_99">
      <g>
       <use style="stroke:#000000;stroke-width:0.5;" x="27.025341" xlink:href="#m3d52a42c65" y="43.055375"/>
      </g>
     </g>
     <g id="line2d_100">
      <g>
       <use style="stroke:#000000;stroke-width:0.5;" x="361.825341" xlink:href="#medb4e1197e" y="43.055375"/>
      </g>
     </g>
     <g id="text_15">
      <!-- $\mathdefault{5000}$ -->
      <g transform="translate(3.6 46.514625)scale(0.1 -0.1)">
       <use transform="scale(0.996264)" xlink:href="#CMR17-53"/>
       <use transform="translate(45.690477 0)scale(0.996264)" xlink:href="#CMR17-48"/>
       <use transform="translate(91.380954 0)scale(0.996264)" xlink:href="#CMR17-48"/>
       <use transform="translate(137.071431 0)scale(0.996264)" xlink:href="#CMR17-48"/>
      </g>
     </g>
    </g>
    <g id="ytick_7">
     <g id="line2d_101">
      <g>
       <use style="stroke:#000000;stroke-width:0.5;" x="27.025341" xlink:href="#m3d52a42c65" y="7.059249"/>
      </g>
     </g>
     <g id="line2d_102">
      <g>
       <use style="stroke:#000000;stroke-width:0.5;" x="361.825341" xlink:href="#medb4e1197e" y="7.059249"/>
      </g>
     </g>
     <g id="text_16">
      <!-- $\mathdefault{6000}$ -->
      <g transform="translate(3.6 10.518498)scale(0.1 -0.1)">
       <defs>
        <path d="M 10.59375 34.34375 
C 10.59375 58 21.796875 63.6875 28.296875 63.6875 
C 30.40625 63.6875 35.5 63.265625 37.5 59.09375 
C 35.90625 59.09375 32.90625 59.09375 32.90625 55.59375 
C 32.90625 52.890625 35.09375 52 36.5 52 
C 37.40625 52 40.09375 52.390625 40.09375 55.796875 
C 40.09375 62.296875 35.09375 66 28.203125 66 
C 16.296875 66 3.796875 53.296875 3.796875 31.421875 
C 3.796875 4.015625 15.09375 -2 23.09375 -2 
C 32.796875 -2 42 6.734375 42 20.234375 
C 42 32.828125 33.90625 42 23.703125 42 
C 17.59375 42 13.09375 37.96875 10.59375 30.921875 
z
M 23.09375 0.390625 
C 10.796875 0.390625 10.796875 18.9375 10.796875 22.65625 
C 10.796875 29.90625 14.203125 40.390625 23.5 40.390625 
C 25.203125 40.390625 30.09375 40.390625 33.40625 33.4375 
C 35.203125 29.515625 35.203125 25.375 35.203125 20.34375 
C 35.203125 14.90625 35.203125 10.875 33.09375 6.84375 
C 30.90625 2.703125 27.703125 0.390625 23.09375 0.390625 
z
" id="CMR17-54"/>
       </defs>
       <use transform="scale(0.996264)" xlink:href="#CMR17-54"/>
       <use transform="translate(45.690477 0)scale(0.996264)" xlink:href="#CMR17-48"/>
       <use transform="translate(91.380954 0)scale(0.996264)" xlink:href="#CMR17-48"/>
       <use transform="translate(137.071431 0)scale(0.996264)" xlink:href="#CMR17-48"/>
      </g>
     </g>
    </g>
    <g id="ytick_8">
     <g id="line2d_103">
      <defs>
       <path d="M 0 0 
L 1.5 0 
" id="m888646d43e" style="stroke:#000000;stroke-width:0.5;"/>
      </defs>
      <g>
       <use style="stroke:#000000;stroke-width:0.5;" x="27.025341" xlink:href="#m888646d43e" y="215.836781"/>
      </g>
     </g>
     <g id="line2d_104">
      <defs>
       <path d="M 0 0 
L -1.5 0 
" id="mf8f6241766" style="stroke:#000000;stroke-width:0.5;"/>
      </defs>
      <g>
       <use style="stroke:#000000;stroke-width:0.5;" x="361.825341" xlink:href="#mf8f6241766" y="215.836781"/>
      </g>
     </g>
    </g>
    <g id="ytick_9">
     <g id="line2d_105">
      <g>
       <use style="stroke:#000000;stroke-width:0.5;" x="27.025341" xlink:href="#m888646d43e" y="208.637556"/>
      </g>
     </g>
     <g id="line2d_106">
      <g>
       <use style="stroke:#000000;stroke-width:0.5;" x="361.825341" xlink:href="#mf8f6241766" y="208.637556"/>
      </g>
     </g>
    </g>
    <g id="ytick_10">
     <g id="line2d_107">
      <g>
       <use style="stroke:#000000;stroke-width:0.5;" x="27.025341" xlink:href="#m888646d43e" y="201.438331"/>
      </g>
     </g>
     <g id="line2d_108">
      <g>
       <use style="stroke:#000000;stroke-width:0.5;" x="361.825341" xlink:href="#mf8f6241766" y="201.438331"/>
      </g>
     </g>
    </g>
    <g id="ytick_11">
     <g id="line2d_109">
      <g>
       <use style="stroke:#000000;stroke-width:0.5;" x="27.025341" xlink:href="#m888646d43e" y="194.239106"/>
      </g>
     </g>
     <g id="line2d_110">
      <g>
       <use style="stroke:#000000;stroke-width:0.5;" x="361.825341" xlink:href="#mf8f6241766" y="194.239106"/>
      </g>
     </g>
    </g>
    <g id="ytick_12">
     <g id="line2d_111">
      <g>
       <use style="stroke:#000000;stroke-width:0.5;" x="27.025341" xlink:href="#m888646d43e" y="179.840655"/>
      </g>
     </g>
     <g id="line2d_112">
      <g>
       <use style="stroke:#000000;stroke-width:0.5;" x="361.825341" xlink:href="#mf8f6241766" y="179.840655"/>
      </g>
     </g>
    </g>
    <g id="ytick_13">
     <g id="line2d_113">
      <g>
       <use style="stroke:#000000;stroke-width:0.5;" x="27.025341" xlink:href="#m888646d43e" y="172.64143"/>
      </g>
     </g>
     <g id="line2d_114">
      <g>
       <use style="stroke:#000000;stroke-width:0.5;" x="361.825341" xlink:href="#mf8f6241766" y="172.64143"/>
      </g>
     </g>
    </g>
    <g id="ytick_14">
     <g id="line2d_115">
      <g>
       <use style="stroke:#000000;stroke-width:0.5;" x="27.025341" xlink:href="#m888646d43e" y="165.442205"/>
      </g>
     </g>
     <g id="line2d_116">
      <g>
       <use style="stroke:#000000;stroke-width:0.5;" x="361.825341" xlink:href="#mf8f6241766" y="165.442205"/>
      </g>
     </g>
    </g>
    <g id="ytick_15">
     <g id="line2d_117">
      <g>
       <use style="stroke:#000000;stroke-width:0.5;" x="27.025341" xlink:href="#m888646d43e" y="158.242979"/>
      </g>
     </g>
     <g id="line2d_118">
      <g>
       <use style="stroke:#000000;stroke-width:0.5;" x="361.825341" xlink:href="#mf8f6241766" y="158.242979"/>
      </g>
     </g>
    </g>
    <g id="ytick_16">
     <g id="line2d_119">
      <g>
       <use style="stroke:#000000;stroke-width:0.5;" x="27.025341" xlink:href="#m888646d43e" y="143.844529"/>
      </g>
     </g>
     <g id="line2d_120">
      <g>
       <use style="stroke:#000000;stroke-width:0.5;" x="361.825341" xlink:href="#mf8f6241766" y="143.844529"/>
      </g>
     </g>
    </g>
    <g id="ytick_17">
     <g id="line2d_121">
      <g>
       <use style="stroke:#000000;stroke-width:0.5;" x="27.025341" xlink:href="#m888646d43e" y="136.645304"/>
      </g>
     </g>
     <g id="line2d_122">
      <g>
       <use style="stroke:#000000;stroke-width:0.5;" x="361.825341" xlink:href="#mf8f6241766" y="136.645304"/>
      </g>
     </g>
    </g>
    <g id="ytick_18">
     <g id="line2d_123">
      <g>
       <use style="stroke:#000000;stroke-width:0.5;" x="27.025341" xlink:href="#m888646d43e" y="129.446078"/>
      </g>
     </g>
     <g id="line2d_124">
      <g>
       <use style="stroke:#000000;stroke-width:0.5;" x="361.825341" xlink:href="#mf8f6241766" y="129.446078"/>
      </g>
     </g>
    </g>
    <g id="ytick_19">
     <g id="line2d_125">
      <g>
       <use style="stroke:#000000;stroke-width:0.5;" x="27.025341" xlink:href="#m888646d43e" y="122.246853"/>
      </g>
     </g>
     <g id="line2d_126">
      <g>
       <use style="stroke:#000000;stroke-width:0.5;" x="361.825341" xlink:href="#mf8f6241766" y="122.246853"/>
      </g>
     </g>
    </g>
    <g id="ytick_20">
     <g id="line2d_127">
      <g>
       <use style="stroke:#000000;stroke-width:0.5;" x="27.025341" xlink:href="#m888646d43e" y="107.848403"/>
      </g>
     </g>
     <g id="line2d_128">
      <g>
       <use style="stroke:#000000;stroke-width:0.5;" x="361.825341" xlink:href="#mf8f6241766" y="107.848403"/>
      </g>
     </g>
    </g>
    <g id="ytick_21">
     <g id="line2d_129">
      <g>
       <use style="stroke:#000000;stroke-width:0.5;" x="27.025341" xlink:href="#m888646d43e" y="100.649177"/>
      </g>
     </g>
     <g id="line2d_130">
      <g>
       <use style="stroke:#000000;stroke-width:0.5;" x="361.825341" xlink:href="#mf8f6241766" y="100.649177"/>
      </g>
     </g>
    </g>
    <g id="ytick_22">
     <g id="line2d_131">
      <g>
       <use style="stroke:#000000;stroke-width:0.5;" x="27.025341" xlink:href="#m888646d43e" y="93.449952"/>
      </g>
     </g>
     <g id="line2d_132">
      <g>
       <use style="stroke:#000000;stroke-width:0.5;" x="361.825341" xlink:href="#mf8f6241766" y="93.449952"/>
      </g>
     </g>
    </g>
    <g id="ytick_23">
     <g id="line2d_133">
      <g>
       <use style="stroke:#000000;stroke-width:0.5;" x="27.025341" xlink:href="#m888646d43e" y="86.250727"/>
      </g>
     </g>
     <g id="line2d_134">
      <g>
       <use style="stroke:#000000;stroke-width:0.5;" x="361.825341" xlink:href="#mf8f6241766" y="86.250727"/>
      </g>
     </g>
    </g>
    <g id="ytick_24">
     <g id="line2d_135">
      <g>
       <use style="stroke:#000000;stroke-width:0.5;" x="27.025341" xlink:href="#m888646d43e" y="71.852276"/>
      </g>
     </g>
     <g id="line2d_136">
      <g>
       <use style="stroke:#000000;stroke-width:0.5;" x="361.825341" xlink:href="#mf8f6241766" y="71.852276"/>
      </g>
     </g>
    </g>
    <g id="ytick_25">
     <g id="line2d_137">
      <g>
       <use style="stroke:#000000;stroke-width:0.5;" x="27.025341" xlink:href="#m888646d43e" y="64.653051"/>
      </g>
     </g>
     <g id="line2d_138">
      <g>
       <use style="stroke:#000000;stroke-width:0.5;" x="361.825341" xlink:href="#mf8f6241766" y="64.653051"/>
      </g>
     </g>
    </g>
    <g id="ytick_26">
     <g id="line2d_139">
      <g>
       <use style="stroke:#000000;stroke-width:0.5;" x="27.025341" xlink:href="#m888646d43e" y="57.453826"/>
      </g>
     </g>
     <g id="line2d_140">
      <g>
       <use style="stroke:#000000;stroke-width:0.5;" x="361.825341" xlink:href="#mf8f6241766" y="57.453826"/>
      </g>
     </g>
    </g>
    <g id="ytick_27">
     <g id="line2d_141">
      <g>
       <use style="stroke:#000000;stroke-width:0.5;" x="27.025341" xlink:href="#m888646d43e" y="50.254601"/>
      </g>
     </g>
     <g id="line2d_142">
      <g>
       <use style="stroke:#000000;stroke-width:0.5;" x="361.825341" xlink:href="#mf8f6241766" y="50.254601"/>
      </g>
     </g>
    </g>
    <g id="ytick_28">
     <g id="line2d_143">
      <g>
       <use style="stroke:#000000;stroke-width:0.5;" x="27.025341" xlink:href="#m888646d43e" y="35.85615"/>
      </g>
     </g>
     <g id="line2d_144">
      <g>
       <use style="stroke:#000000;stroke-width:0.5;" x="361.825341" xlink:href="#mf8f6241766" y="35.85615"/>
      </g>
     </g>
    </g>
    <g id="ytick_29">
     <g id="line2d_145">
      <g>
       <use style="stroke:#000000;stroke-width:0.5;" x="27.025341" xlink:href="#m888646d43e" y="28.656925"/>
      </g>
     </g>
     <g id="line2d_146">
      <g>
       <use style="stroke:#000000;stroke-width:0.5;" x="361.825341" xlink:href="#mf8f6241766" y="28.656925"/>
      </g>
     </g>
    </g>
    <g id="ytick_30">
     <g id="line2d_147">
      <g>
       <use style="stroke:#000000;stroke-width:0.5;" x="27.025341" xlink:href="#m888646d43e" y="21.4577"/>
      </g>
     </g>
     <g id="line2d_148">
      <g>
       <use style="stroke:#000000;stroke-width:0.5;" x="361.825341" xlink:href="#mf8f6241766" y="21.4577"/>
      </g>
     </g>
    </g>
    <g id="ytick_31">
     <g id="line2d_149">
      <g>
       <use style="stroke:#000000;stroke-width:0.5;" x="27.025341" xlink:href="#m888646d43e" y="14.258474"/>
      </g>
     </g>
     <g id="line2d_150">
      <g>
       <use style="stroke:#000000;stroke-width:0.5;" x="361.825341" xlink:href="#mf8f6241766" y="14.258474"/>
      </g>
     </g>
    </g>
   </g>
   <g id="patch_13">
    <path d="M 27.025341 223.036007 
L 27.025341 5.596007 
" style="fill:none;stroke:#000000;stroke-linecap:square;stroke-linejoin:miter;stroke-width:0.5;"/>
   </g>
   <g id="patch_14">
    <path d="M 361.825341 223.036007 
L 361.825341 5.596007 
" style="fill:none;stroke:#000000;stroke-linecap:square;stroke-linejoin:miter;stroke-width:0.5;"/>
   </g>
   <g id="patch_15">
    <path d="M 27.025341 223.036007 
L 361.825341 223.036007 
" style="fill:none;stroke:#000000;stroke-linecap:square;stroke-linejoin:miter;stroke-width:0.5;"/>
   </g>
   <g id="patch_16">
    <path d="M 27.025341 5.596007 
L 361.825341 5.596007 
" style="fill:none;stroke:#000000;stroke-linecap:square;stroke-linejoin:miter;stroke-width:0.5;"/>
   </g>
   <g id="text_17">
    <!-- 2035 -->
    <g transform="translate(47.499034 147.646711)scale(0.1 -0.1)">
     <use transform="scale(0.996264)" xlink:href="#CMR17-50"/>
     <use transform="translate(45.690477 0)scale(0.996264)" xlink:href="#CMR17-48"/>
     <use transform="translate(91.380954 0)scale(0.996264)" xlink:href="#CMR17-51"/>
     <use transform="translate(137.071431 0)scale(0.996264)" xlink:href="#CMR17-53"/>
    </g>
   </g>
   <g id="text_18">
    <!-- 0 -->
    <g transform="translate(85.407401 220.898828)scale(0.1 -0.1)">
     <use transform="scale(0.996264)" xlink:href="#CMR17-48"/>
    </g>
   </g>
   <g id="text_19">
    <!-- 0 -->
    <g transform="translate(115.843764 220.898828)scale(0.1 -0.1)">
     <use transform="scale(0.996264)" xlink:href="#CMR17-48"/>
    </g>
   </g>
   <g id="text_20">
    <!-- 0 -->
    <g transform="translate(146.280128 220.898828)scale(0.1 -0.1)">
     <use transform="scale(0.996264)" xlink:href="#CMR17-48"/>
    </g>
   </g>
   <g id="text_21">
    <!-- 0 -->
    <g transform="translate(176.716492 220.898828)scale(0.1 -0.1)">
     <use transform="scale(0.996264)" xlink:href="#CMR17-48"/>
    </g>
   </g>
   <g id="text_22">
    <!-- 2212 -->
    <g transform="translate(199.680852 141.275397)scale(0.1 -0.1)">
     <use transform="scale(0.996264)" xlink:href="#CMR17-50"/>
     <use transform="translate(45.690477 0)scale(0.996264)" xlink:href="#CMR17-50"/>
     <use transform="translate(91.380954 0)scale(0.996264)" xlink:href="#CMR17-49"/>
     <use transform="translate(137.071431 0)scale(0.996264)" xlink:href="#CMR17-50"/>
    </g>
   </g>
   <g id="text_23">
    <!-- 0 -->
    <g transform="translate(237.589219 220.898828)scale(0.1 -0.1)">
     <use transform="scale(0.996264)" xlink:href="#CMR17-48"/>
    </g>
   </g>
   <g id="text_24">
    <!-- 0 -->
    <g transform="translate(268.025582 220.898828)scale(0.1 -0.1)">
     <use transform="scale(0.996264)" xlink:href="#CMR17-48"/>
    </g>
   </g>
   <g id="text_25">
    <!-- 0 -->
    <g transform="translate(298.461946 220.898828)scale(0.1 -0.1)">
     <use transform="scale(0.996264)" xlink:href="#CMR17-48"/>
    </g>
   </g>
   <g id="text_26">
    <!-- 5753 -->
    <g transform="translate(321.426307 13.813114)scale(0.1 -0.1)">
     <use transform="scale(0.996264)" xlink:href="#CMR17-53"/>
     <use transform="translate(45.690477 0)scale(0.996264)" xlink:href="#CMR17-55"/>
     <use transform="translate(91.380954 0)scale(0.996264)" xlink:href="#CMR17-53"/>
     <use transform="translate(137.071431 0)scale(0.996264)" xlink:href="#CMR17-51"/>
    </g>
   </g>
  </g>
 </g>
 <defs>
  <clipPath id="paebfc9d99c">
   <rect height="217.44" width="334.8" x="27.025341" y="5.596007"/>
  </clipPath>
 </defs>
</svg>
